<svg width="182" height="250" viewBox="0 0 182 250" fill="none" xmlns="http://www.w3.org/2000/svg">
<path d="M90.9598 56.8182V90.9091L136.44 45.4545L90.9598 0V34.0909C40.7045 34.0909 0 74.7727 0 125C0 142.841 5.23019 159.432 14.0988 173.409L30.6989 156.818C25.5824 147.386 22.74 136.477 22.74 125C22.74 87.3864 53.3252 56.8182 90.9598 56.8182ZM167.821 76.5909L151.221 93.1818C156.223 102.727 159.18 113.523 159.18 125C159.18 162.614 128.594 193.182 90.9598 193.182V159.091L45.4799 204.545L90.9598 250V215.909C141.215 215.909 181.92 175.227 181.92 125C181.92 107.159 176.689 90.5682 167.821 76.5909V76.5909Z" fill="#BBBBBB"/>
</svg>
