<svg width="424" height="285" viewBox="0 0 424 285" fill="none" xmlns="http://www.w3.org/2000/svg">
<path d="M390.5 273.5C390.5 274.254 390.159 275.173 389.127 276.231C388.084 277.301 386.454 278.379 384.243 279.338C379.83 281.253 373.559 282.5 366.5 282.5C359.441 282.5 353.17 281.253 348.757 279.338C346.546 278.379 344.916 277.301 343.873 276.231C342.841 275.173 342.5 274.254 342.5 273.5C342.5 272.746 342.841 271.827 343.873 270.769C344.916 269.699 346.546 268.621 348.757 267.662C353.17 265.747 359.441 264.5 366.5 264.5C373.559 264.5 379.83 265.747 384.243 267.662C386.454 268.621 388.084 269.699 389.127 270.769C390.159 271.827 390.5 272.746 390.5 273.5Z" fill="white" stroke="#7F7F7F" stroke-width="5"/>
<path d="M348.5 230.5C348.5 232.501 347.581 234.605 345.512 236.739C343.431 238.885 340.299 240.931 336.235 242.704C328.113 246.247 316.718 248.5 304 248.5C291.282 248.5 279.887 246.247 271.765 242.704C267.701 240.931 264.569 238.885 262.488 236.739C260.419 234.605 259.5 232.501 259.5 230.5C259.5 228.499 260.419 226.395 262.488 224.261C264.569 222.115 267.701 220.069 271.765 218.296C279.887 214.753 291.282 212.5 304 212.5C316.718 212.5 328.113 214.753 336.235 218.296C340.299 220.069 343.431 222.115 345.512 224.261C347.581 226.395 348.5 228.499 348.5 230.5Z" fill="white" stroke="#7F7F7F" stroke-width="5"/>
<path d="M421.5 92.5C421.5 104.442 415.964 116.017 405.545 126.765C395.115 137.525 379.901 147.328 360.907 155.616C322.926 172.188 270.282 182.5 212 182.5C153.718 182.5 101.074 172.188 63.0931 155.616C44.099 147.328 28.8852 137.525 18.455 126.765C8.03639 116.017 2.5 104.442 2.5 92.5C2.5 80.5579 8.03639 68.9826 18.455 58.2349C28.8852 47.4754 44.099 37.6715 63.0931 29.384C101.074 12.8122 153.718 2.5 212 2.5C270.282 2.5 322.926 12.8122 360.907 29.384C379.901 37.6715 395.115 47.4754 405.545 58.2349C415.964 68.9826 421.5 80.5579 421.5 92.5Z" fill="white" stroke="#7F7F7F" stroke-width="5"/>
<circle cx="211" cy="100" r="10" fill="#7F7F7F"/>
<circle cx="151" cy="100" r="10" fill="#7F7F7F"/>
<circle cx="271" cy="100" r="10" fill="#7F7F7F"/>
</svg>
