<svg width="22" height="21" viewBox="0 0 22 21" fill="none" xmlns="http://www.w3.org/2000/svg">
<path d="M15.95 0C14.036 0 12.199 0.891 11 2.299C9.801 0.891 7.964 0 6.05 0C2.662 0 0 2.662 0 6.05C0 10.208 3.74 13.596 9.405 18.744L11 20.185L12.595 18.733C18.26 13.596 22 10.208 22 6.05C22 2.662 19.338 0 15.95 0ZM11.11 17.105L11 17.215L10.89 17.105C5.654 12.364 2.2 9.229 2.2 6.05C2.2 3.85 3.85 2.2 6.05 2.2C7.744 2.2 9.394 3.289 9.977 4.796H12.034C12.606 3.289 14.256 2.2 15.95 2.2C18.15 2.2 19.8 3.85 19.8 6.05C19.8 9.229 16.346 12.364 11.11 17.105Z" fill="#FF4C3C"/>
</svg>
