<svg width="103" height="103" viewBox="0 0 103 103" fill="none" xmlns="http://www.w3.org/2000/svg">
<path d="M91.2739 36.5337L95.0071 38.3658L88.5948 51.4317L84.8617 49.5996L91.2739 36.5337Z" fill="#31EBC7"/>
<path d="M89.3174 35.6123L96.7836 39.2764L96.3256 40.2097C95.3138 42.2715 92.8222 43.1226 90.7604 42.1108V42.1108C88.6987 41.099 87.8475 38.6073 88.8594 36.5456L89.3174 35.6123Z" fill="#31EBC7"/>
<rect x="65.166" y="79.9634" width="20.1685" height="20.0851" transform="rotate(-10.5859 65.166 79.9634)" fill="#E0E0E0"/>
<rect x="41.6821" y="78.1367" width="20.1685" height="20.3557" transform="rotate(3.56157 41.6821 78.1367)" fill="#E0E0E0"/>
<rect x="60.5435" y="79.1211" width="8.31695" height="20.5844" fill="#E0E0E0"/>
<path d="M42.7773 79.7451L62.6917 81.1027V81.1027C62.1684 88.7787 55.5216 94.5771 47.8456 94.0538L41.8298 93.6437L42.7773 79.7451Z" fill="white"/>
<rect x="64.7085" y="60.019" width="16.2627" height="20.8079" transform="rotate(-12.0958 64.7085 60.019)" fill="#FFFFC8"/>
<rect x="43.6011" y="58.3506" width="20.0424" height="20.1685" transform="rotate(5.56943 43.6011 58.3506)" fill="#FFFFC8"/>
<rect x="61.5825" y="68.7251" width="7.48523" height="11.6437" fill="#FFFFC8"/>
<ellipse cx="58.6948" cy="44.6583" rx="25.2132" ry="25.2132" transform="rotate(45 58.6948 44.6583)" fill="#F3EAC7"/>
<ellipse cx="82.1265" cy="48.7334" rx="11.0458" ry="11.0458" transform="rotate(45 82.1265 48.7334)" fill="#5E5E5E"/>
<ellipse cx="78.731" cy="35.8291" rx="11.0458" ry="11.0458" transform="rotate(45 78.731 35.8291)" fill="#5E5E5E"/>
<ellipse cx="66.5054" cy="23.2642" rx="11.0458" ry="11.0458" transform="rotate(45 66.5054 23.2642)" fill="#5E5E5E"/>
<ellipse cx="51.394" cy="24.4526" rx="11.0458" ry="11.0458" transform="rotate(45 51.394 24.4526)" fill="#5E5E5E"/>
<ellipse cx="39.3384" cy="36.5083" rx="11.0458" ry="11.0458" transform="rotate(45 39.3384 36.5083)" fill="#5E5E5E"/>
<line x1="35.9424" y1="50.271" x2="48.8468" y2="50.271" stroke="black"/>
<line x1="56.6572" y1="50.271" x2="69.5616" y2="50.271" stroke="black"/>
<line x1="35.9414" y1="50.9487" x2="48.8458" y2="50.9487" stroke="black"/>
<line x1="56.6567" y1="50.9487" x2="69.5611" y2="50.9487" stroke="black"/>
<line x1="35.9414" y1="51.6284" x2="48.8458" y2="51.6284" stroke="black"/>
<line x1="56.6567" y1="51.6284" x2="69.5611" y2="51.6284" stroke="black"/>
<line x1="35.9414" y1="52.3081" x2="48.8458" y2="52.3081" stroke="black"/>
<line x1="56.6567" y1="52.3081" x2="69.5611" y2="52.3081" stroke="black"/>
<line x1="35.9414" y1="52.9878" x2="48.8458" y2="52.9878" stroke="black"/>
<line x1="56.6567" y1="52.9878" x2="69.5611" y2="52.9878" stroke="black"/>
<line x1="35.9414" y1="53.665" x2="48.8458" y2="53.665" stroke="black"/>
<line x1="56.6567" y1="53.665" x2="69.5611" y2="53.665" stroke="black"/>
<line x1="35.9414" y1="49.5918" x2="48.8458" y2="49.5918" stroke="black"/>
<line x1="56.6567" y1="49.5918" x2="69.5611" y2="49.5918" stroke="black"/>
<line x1="35.9414" y1="48.9102" x2="48.8458" y2="48.9102" stroke="black"/>
<line x1="56.6567" y1="48.9102" x2="69.5611" y2="48.9102" stroke="black"/>
<line x1="35.9414" y1="48.2329" x2="48.8458" y2="48.2329" stroke="black"/>
<line x1="56.6567" y1="48.2329" x2="69.5611" y2="48.2329" stroke="black"/>
<circle cx="39.8477" cy="50.2602" r="0.960503" transform="rotate(45 39.8477 50.2602)" fill="white"/>
<circle cx="43.582" cy="50.2602" r="1.44075" transform="rotate(45 43.582 50.2602)" fill="white"/>
<circle cx="42.394" cy="52.1279" r="0.480251" transform="rotate(45 42.394 52.1279)" fill="white"/>
<circle cx="65.1465" cy="50.942" r="0.84044" transform="rotate(45 65.1465 50.942)" fill="white"/>
<circle cx="61.2412" cy="49.9206" r="1.20063" transform="rotate(45 61.2412 49.9206)" fill="white"/>
<circle cx="63.1084" cy="52.9762" r="0.84044" transform="rotate(45 63.1084 52.9762)" fill="white"/>
<path d="M47.1015 58.9722H58.063C57.8104 61.7772 55.453 63.9753 52.5822 63.9753C49.7115 63.9753 47.3541 61.7772 47.1015 58.9722Z" fill="#E67E22" stroke="black"/>
<line x1="46.9932" y1="56.7261" x2="44.6161" y2="59.1032" stroke="black"/>
<line x1="60.8886" y1="59.4444" x2="58.5115" y2="57.0672" stroke="black"/>
<path d="M82.208 54.3765L85.9412 56.2083L80.4457 67.4081C79.9398 68.439 78.694 68.8646 77.6631 68.3588V68.3588C76.6322 67.8529 76.2066 66.6071 76.7124 65.5762L82.208 54.3765Z" fill="#31EBC7"/>
</svg>
