<svg width="18" height="24" viewBox="0 0 18 24" fill="none" xmlns="http://www.w3.org/2000/svg">
<path d="M4.85714 9.41714V5.14286C4.85714 3.56571 6.13714 2.28571 7.71429 2.28571C9.29143 2.28571 10.5714 3.56571 10.5714 5.14286V9.41714C11.9543 8.49143 12.8571 6.92571 12.8571 5.14286C12.8571 2.29714 10.56 0 7.71429 0C4.86857 0 2.57143 2.29714 2.57143 5.14286C2.57143 6.92571 3.47429 8.49143 4.85714 9.41714ZM16.5 14L15 13C13 12 10.5143 12 10.2971 12H9.42857V5.14286C9.42857 4.19429 8.66286 3.42857 7.71429 3.42857C6.76571 3.42857 6 4.19429 6 5.14286V16.9371L5.5 17.5L2.08 16.5943C1.98857 16.5829 1.90857 16.56 1.80571 16.56C1.45143 16.56 1.13143 16.7086 0.902857 16.9371L0 17.8514L5.64571 23.4971C5.95428 23.8057 6.38857 24 6.85714 24H14.6171C15.4743 24 16.1371 23.3714 16.2629 22.5371L17.12 16.5143C17.1314 16.4343 17.1429 16.3543 17.1429 16.2857C17.1429 15.5771 17.1057 14.2514 16.5 14Z" fill="#858585"/>
</svg>
