<svg width="287" height="242" viewBox="0 0 287 242" fill="none" xmlns="http://www.w3.org/2000/svg">
<rect x="41.999" y="100.162" width="214.651" height="78.927" transform="rotate(14.8304 41.999 100.162)" fill="#9E9E9E"/>
<circle cx="208.589" cy="146.538" r="29.9308" fill="#9E9E9E"/>
<ellipse cx="248.655" cy="151.251" rx="29.9309" ry="29.9308" fill="#9E9E9E"/>
<ellipse cx="256.195" cy="188.959" rx="29.9308" ry="29.9308" fill="#9E9E9E"/>
<ellipse cx="234.042" cy="211.113" rx="29.9307" ry="29.9308" fill="#9E9E9E"/>
<ellipse cx="196.334" cy="206.4" rx="29.9308" ry="29.9308" fill="#9E9E9E"/>
<path d="M137.084 36.0884L145.547 40.2416L131.011 69.8615L122.548 65.7082L137.084 36.0884Z" fill="#31EBC7"/>
<path d="M132.649 34.0034L149.575 42.3099L148.537 44.4256C146.243 49.0994 140.595 51.0289 135.921 48.7351C131.247 46.4414 129.317 40.793 131.611 36.1191L132.649 34.0034Z" fill="#31EBC7"/>
<rect x="77.8994" y="134.545" width="45.7211" height="45.532" transform="rotate(-10.5859 77.8994 134.545)" fill="#E0E0E0"/>
<rect x="24.6621" y="130.401" width="45.7211" height="46.1454" transform="rotate(3.56157 24.6621 130.401)" fill="#E0E0E0"/>
<rect x="67.4199" y="132.634" width="18.8541" height="46.6638" fill="#E0E0E0"/>
<path d="M27.1455 134.047L72.2904 137.125C71.1041 154.526 56.0361 167.671 38.635 166.484L24.9975 165.555L27.1455 134.047Z" fill="white"/>
<rect x="76.8613" y="89.333" width="36.8669" height="47.1705" transform="rotate(-12.0958 76.8613 89.333)" fill="#FFFFC8"/>
<rect x="29.0117" y="85.5459" width="45.4352" height="45.7211" transform="rotate(5.56943 29.0117 85.5459)" fill="#FFFFC8"/>
<rect x="69.7764" y="109.065" width="16.9687" height="26.3957" fill="#FFFFC8"/>
<ellipse cx="63.8841" cy="64.5228" rx="52.0843" ry="52.0843" fill="#F3EAC7"/>
<line x1="23.584" y1="83.0264" x2="41.4953" y2="83.0264" stroke="black" stroke-width="4"/>
<ellipse cx="30.8898" cy="45.6691" rx="29.9308" ry="29.9308" fill="#5E5E5E"/>
<circle cx="56.3429" cy="30.1144" r="29.9308" fill="#5E5E5E"/>
<circle cx="93.5793" cy="36.2419" r="29.9308" fill="#5E5E5E"/>
<ellipse cx="106.777" cy="66.4083" rx="29.9308" ry="29.9308" fill="#5E5E5E"/>
<ellipse cx="77.0822" cy="78.1921" rx="29.9308" ry="29.9308" fill="#5E5E5E"/>
<path d="M116.531 76.5425L124.994 80.6952L112.536 106.084C111.389 108.422 108.565 109.386 106.228 108.24C103.891 107.093 102.926 104.269 104.073 101.932L116.531 76.5425Z" fill="#31EBC7"/>
</svg>
