<svg width="159" height="157" viewBox="0 0 159 157" fill="none" xmlns="http://www.w3.org/2000/svg">
<rect x="19.3403" y="70.6436" width="139.659" height="81.434" fill="#FFE4A0"/>
<rect x="10.5864" y="144.545" width="19.137" height="12.4187" fill="#C4C4C4"/>
<rect x="14.0474" y="64.332" width="12.4187" height="80.2125" fill="#E3A270"/>
<rect x="5.7002" y="124.187" width="153.3" height="13.0295" fill="#E3A270"/>
<rect x="79.3989" y="83.2656" width="25.2446" height="38.8848" fill="#F6F6F6"/>
<rect x="79.3989" y="83.2656" width="25.2446" height="2.8502" fill="#E3A270"/>
<rect x="79.3989" y="83.2656" width="2.85017" height="38.8848" fill="#E3A270"/>
<rect x="101.793" y="83.2656" width="2.8502" height="38.8848" fill="#E3A270"/>
<rect x="96.9072" y="83.2656" width="2.85017" height="38.8848" fill="#E3A270"/>
<rect x="84.2852" y="83.2656" width="2.8502" height="38.8848" fill="#E3A270"/>
<rect x="79.3989" y="89.3726" width="25.2446" height="2.8502" fill="#E3A270"/>
<rect x="79.3989" y="119.302" width="25.2446" height="2.8502" fill="#E3A270"/>
<rect x="79.3989" y="113.193" width="25.2446" height="2.8502" fill="#E3A270"/>
<rect x="107.29" y="83.2656" width="25.2445" height="38.8848" fill="#F6F6F6"/>
<rect x="107.29" y="83.2656" width="25.2445" height="2.8502" fill="#E3A270"/>
<rect x="107.29" y="83.2656" width="2.85017" height="38.8848" fill="#E3A270"/>
<rect x="129.684" y="83.2656" width="2.85017" height="38.8848" fill="#E3A270"/>
<rect x="124.798" y="83.2656" width="2.8502" height="38.8848" fill="#E3A270"/>
<rect x="112.176" y="83.2656" width="2.8502" height="38.8848" fill="#E3A270"/>
<rect x="107.29" y="89.3726" width="25.2445" height="2.8502" fill="#E3A270"/>
<rect x="107.29" y="119.302" width="25.2445" height="2.8502" fill="#E3A270"/>
<rect x="107.29" y="113.193" width="25.2445" height="2.8502" fill="#E3A270"/>
<rect width="8.75413" height="8.75413" transform="matrix(0.707106 -0.707107 0.707106 0.707107 146.581 75.4097)" fill="#F1C40F"/>
<rect width="8.75414" height="8.75414" transform="matrix(0.707107 -0.707106 0.707107 0.707106 87.9487 75.4097)" fill="#F1C40F"/>
<rect width="8.75414" height="8.75414" transform="matrix(0.707107 -0.707106 0.707107 0.707106 117.265 75.4097)" fill="#F1C40F"/>
<rect width="8.75415" height="8.75415" transform="matrix(0.707108 -0.707106 0.707108 0.707106 58.6323 75.4097)" fill="#F1C40F"/>
<rect width="8.75415" height="8.75415" transform="matrix(0.707108 -0.707106 0.707108 0.707106 19.5444 75.4097)" fill="#F1C40F"/>
<rect width="8.75414" height="8.75414" transform="matrix(0.707107 -0.707106 0.707107 0.707106 136.81 75.4097)" fill="#F1C40F"/>
<rect width="8.75414" height="8.75414" transform="matrix(0.707107 -0.707106 0.707107 0.707106 78.1772 75.4097)" fill="#F1C40F"/>
<rect width="8.75415" height="8.75415" transform="matrix(0.707108 -0.707106 0.707108 0.707106 107.493 75.4097)" fill="#F1C40F"/>
<rect width="8.75415" height="8.75415" transform="matrix(0.707108 -0.707106 0.707108 0.707106 48.8604 75.4097)" fill="#F1C40F"/>
<rect width="8.75415" height="8.75415" transform="matrix(0.707108 -0.707106 0.707108 0.707106 9.77246 75.4097)" fill="#F1C40F"/>
<rect width="8.75414" height="8.75414" transform="matrix(0.707107 -0.707106 0.707107 0.707106 127.037 75.4097)" fill="#F1C40F"/>
<rect width="8.75415" height="8.75415" transform="matrix(0.707108 -0.707106 0.707108 0.707106 68.4048 75.4097)" fill="#F1C40F"/>
<rect width="8.75416" height="8.75416" transform="matrix(0.707109 -0.707105 0.707109 0.707105 29.3164 75.4097)" fill="#F1C40F"/>
<rect width="8.75414" height="8.75414" transform="matrix(0.707107 -0.707106 0.707107 0.707106 97.7207 75.4097)" fill="#F1C40F"/>
<rect width="8.75414" height="8.75414" transform="matrix(0.707107 -0.707106 0.707107 0.707106 39.0884 75.4097)" fill="#F1C40F"/>
<rect width="8.75413" height="8.75413" transform="matrix(0.707106 -0.707107 0.707106 0.707107 0 75.4097)" fill="#F1C40F"/>
<path d="M0 75.5307C0 40.338 28.5294 11.8086 63.7221 11.8086H159V75.5307H0V75.5307Z" fill="#F1C40F"/>
<ellipse cx="47.3132" cy="35.8238" rx="16.0832" ry="7.53264" transform="rotate(5.92958 47.3132 35.8238)" fill="#2ECC71"/>
<ellipse cx="48.1852" cy="33.5349" rx="17.574" ry="7.53265" transform="rotate(5.92957 48.1852 33.5349)" fill="#F1C409"/>
<ellipse cx="76.8328" cy="31.5474" rx="16.0832" ry="7.53265" transform="rotate(5.92958 76.8328 31.5474)" fill="#2ECC71"/>
<ellipse cx="77.7053" cy="29.2585" rx="17.574" ry="7.53265" transform="rotate(5.92957 77.7053 29.2585)" fill="#F1C409"/>
<ellipse cx="127.63" cy="23.7604" rx="23.1442" ry="19.3975" transform="rotate(-11.9232 127.63 23.7604)" fill="#FCCE17"/>
<ellipse rx="8.29344" ry="5.73999" transform="matrix(0.803074 0.59588 -0.595881 0.803072 138.281 15.5525)" fill="#2ECC71"/>
<ellipse cx="139.034" cy="14.5933" rx="8.55395" ry="5.74943" transform="rotate(36.5754 139.034 14.5933)" fill="#FCCE17"/>
<ellipse cx="108.143" cy="29.4416" rx="3.05426" ry="4.78425" transform="rotate(0.462424 108.143 29.4416)" fill="#2ECC71"/>
<ellipse cx="120.612" cy="24.5729" rx="11.8073" ry="8.17198" transform="rotate(4.97292 120.612 24.5729)" fill="#2ECC71"/>
<ellipse cx="120.81" cy="22.8485" rx="12.1782" ry="8.18542" transform="rotate(4.97291 120.81 22.8485)" fill="#FCCE17"/>
<ellipse cx="99.3925" cy="21.4036" rx="9.63915" ry="6.67139" transform="rotate(27.3263 99.3925 21.4036)" fill="#2ECC71"/>
<ellipse cx="100.077" cy="20.1651" rx="9.94195" ry="6.68237" transform="rotate(27.3263 100.077 20.1651)" fill="#FCCE17"/>
<ellipse cx="130.023" cy="64.8072" rx="16.0832" ry="7.53265" transform="rotate(-170.12 130.023 64.8072)" fill="#2ECC71"/>
<ellipse cx="128.995" cy="67.0304" rx="17.574" ry="7.53264" transform="rotate(-170.12 128.995 67.0304)" fill="#F1C409"/>
<ellipse cx="35.8337" cy="43.7191" rx="3.05378" ry="4.78425" transform="rotate(26.9097 35.8337 43.7191)" fill="#2ECC71"/>
<ellipse cx="43.1898" cy="45.6795" rx="3.05424" ry="4.78425" transform="rotate(-8.05088 43.1898 45.6795)" fill="#2ECC71"/>
<ellipse cx="116.684" cy="35.4978" rx="3.05423" ry="4.78425" transform="rotate(-8.05085 116.684 35.4978)" fill="#2ECC71"/>
</svg>
