<svg width="1385" height="316" viewBox="0 0 1385 316" fill="none" xmlns="http://www.w3.org/2000/svg">
<ellipse cx="1046.65" cy="196.654" rx="14.1405" ry="14.1405" fill="#D2F3F8"/>
<ellipse cx="1081.05" cy="192.883" rx="14.1405" ry="14.1405" fill="#D2F3F8"/>
<ellipse cx="1113.34" cy="193.59" rx="13.4335" ry="13.4335" fill="#D2F3F8"/>
<ellipse cx="1067.15" cy="203.252" rx="18.147" ry="14.1405" fill="#D2F3F8"/>
<ellipse cx="1094.96" cy="201.367" rx="18.147" ry="14.1405" fill="#D2F3F8"/>
<ellipse cx="1097.83" cy="185.045" rx="18.147" ry="14.1405" transform="rotate(13.9025 1097.83 185.045)" fill="#D2F3F8"/>
<ellipse cx="1067.75" cy="181.204" rx="20.5737" ry="14.1405" transform="rotate(-21.0768 1067.75 181.204)" fill="#D2F3F8"/>
<ellipse cx="1177.89" cy="93.8713" rx="36.5056" ry="36.5056" fill="#D2F3F8"/>
<ellipse cx="1266.72" cy="84.1369" rx="36.5056" ry="36.5056" fill="#D2F3F8"/>
<ellipse cx="1350.08" cy="85.962" rx="34.6803" ry="34.6803" fill="#D2F3F8"/>
<ellipse cx="1230.83" cy="110.907" rx="46.8488" ry="36.5056" fill="#D2F3F8"/>
<ellipse cx="1302.62" cy="106.04" rx="46.8488" ry="36.5056" fill="#D2F3F8"/>
<ellipse cx="1310.02" cy="63.9025" rx="46.8488" ry="36.5056" transform="rotate(13.9025 1310.02 63.9025)" fill="#D2F3F8"/>
<ellipse cx="1232.38" cy="53.9866" rx="53.1135" ry="36.5056" transform="rotate(-21.0768 1232.38 53.9866)" fill="#D2F3F8"/>
<ellipse cx="34.05" cy="265.79" rx="34.05" ry="34.05" fill="#D2F3F8"/>
<ellipse cx="116.905" cy="256.71" rx="34.05" ry="34.05" fill="#D2F3F8"/>
<ellipse cx="194.653" cy="258.412" rx="32.3474" ry="32.3475" fill="#D2F3F8"/>
<ellipse cx="83.4221" cy="281.679" rx="43.6975" ry="34.05" fill="#D2F3F8"/>
<ellipse cx="150.388" cy="277.14" rx="43.6975" ry="34.05" fill="#D2F3F8"/>
<ellipse cx="157.289" cy="237.837" rx="43.6976" ry="34.05" transform="rotate(13.9025 157.289 237.837)" fill="#D2F3F8"/>
<ellipse cx="84.8719" cy="228.588" rx="49.5408" ry="34.05" transform="rotate(-21.0768 84.8719 228.588)" fill="#D2F3F8"/>
</svg>
