<svg width="72" height="70" viewBox="0 0 72 70" fill="none" xmlns="http://www.w3.org/2000/svg">
<ellipse cx="35.752" cy="39.5161" rx="35.752" ry="30.4839" fill="#F0DB66"/>
<ellipse cx="35.7522" cy="6.77394" rx="4.469" ry="4.51613" fill="#E3BC5B"/>
<ellipse rx="10.0723" ry="4.50862" transform="matrix(0.914996 -0.403464 0.396414 0.918072 22.1762 8.20288)" fill="#F1C40F"/>
<ellipse rx="10.0604" ry="4.51387" transform="matrix(0.975164 0.221486 -0.217106 0.976148 48.7768 6.63444)" fill="#F1C40F"/>
<ellipse rx="10.0625" ry="4.51295" transform="matrix(0.964838 -0.262846 0.257754 0.966211 24.2791 9.26344)" fill="#F1C40F"/>
<ellipse rx="10.0552" ry="4.51613" transform="matrix(0.999999 0.00157285 -0.00154019 0.999999 48.3949 8.46065)" fill="#F1C40F"/>
<path d="M52.7266 52.0215L69.74 49.0602C70.9723 56.3913 66.0342 63.3677 58.7103 64.6425L54.9578 65.2956L52.7266 52.0215Z" fill="#E3BC5B"/>
<rect width="1.33236" height="6.69344" transform="matrix(0.985246 -0.171159 0.166077 0.986116 58.627 47.6099)" fill="#B89337"/>
<rect width="6.63376" height="1.33301" transform="matrix(0.985247 -0.171154 0.166082 0.986115 50.3906 58.5518)" fill="#B89337"/>
<rect width="6.63376" height="1.33302" transform="matrix(0.985247 -0.171155 0.166081 0.986115 50.9492 61.853)" fill="#B89337"/>
<rect width="1.33237" height="6.69344" transform="matrix(0.985246 -0.171159 0.166077 0.986116 61.8936 47.0454)" fill="#B89337"/>
</svg>
