<svg width="272" height="275" viewBox="0 0 272 275" fill="none" xmlns="http://www.w3.org/2000/svg">
<circle cx="166.746" cy="169.575" r="105" fill="#F3EAC7"/>
<line x1="166.746" y1="248.075" x2="201.746" y2="248.075" stroke="black"/>
<line x1="201.246" y1="248.575" x2="201.246" y2="213.575" stroke="black"/>
<path d="M75.6604 226.981C33.8743 185.195 33.8743 117.446 75.6604 75.6604V75.6604C117.447 33.8743 185.195 33.8743 226.981 75.6604L230.517 79.1959L79.196 230.517L75.6604 226.981Z" fill="#3498DB"/>
<path d="M110.746 52.5747L115.076 50.0747C117.468 48.694 120.526 49.5134 121.906 51.9048L174.406 142.837L165.746 147.837L110.746 52.5747Z" fill="#C4C4C4"/>
<path d="M49.4065 175.235C44.6235 172.473 42.9848 166.358 45.7462 161.575V161.575L106.368 196.575L101.368 205.235L49.4065 175.235Z" fill="#C4C4C4"/>
<path d="M223.933 72.4549C247.365 95.8864 247.365 133.876 223.933 157.308L144.737 236.504C127.945 253.296 100.718 253.296 83.9259 236.504L71.9051 224.483L223.933 72.4549V72.4549Z" fill="#7F7F7F"/>
<path d="M224.933 71.4549C248.365 94.8864 248.365 132.876 224.933 156.308L168.365 212.876L125.938 170.45L224.933 71.4549V71.4549Z" fill="#5E5E5E"/>
</svg>
