<svg width="95" height="61" viewBox="0 0 95 61" fill="none" xmlns="http://www.w3.org/2000/svg">
<ellipse cx="15.1624" cy="21.7515" rx="12.5358" ry="12.5296" fill="#F3EAC7"/>
<ellipse cx="26.1461" cy="44.1854" rx="4.17861" ry="2.98324" fill="#F3EAC7"/>
<ellipse cx="24.8328" cy="14.9497" rx="5.49189" ry="5.48915" fill="#5E5E5E"/>
<ellipse cx="19.1022" cy="11.6085" rx="5.49188" ry="5.48915" fill="#5E5E5E"/>
<ellipse cx="10.3868" cy="11.4891" rx="5.49189" ry="5.48915" fill="#5E5E5E"/>
<ellipse cx="5.49189" cy="17.2169" rx="5.49189" ry="5.48915" fill="#5E5E5E"/>
<ellipse cx="5.49189" cy="25.6894" rx="5.49189" ry="5.48916" fill="#5E5E5E"/>
<line y1="-0.5" x2="6.41436" y2="-0.5" transform="matrix(0.707284 -0.70693 0.707284 0.70693 9.31238 31.8944)" stroke="black"/>
<line y1="-0.5" x2="6.41437" y2="-0.5" transform="matrix(0.707283 -0.706931 0.707283 0.706931 16.5951 24.6154)" stroke="black"/>
<line x1="15.1624" y1="30.6785" x2="19.341" y2="30.6785" stroke="black"/>
<line x1="18.8409" y1="31.1785" x2="18.8409" y2="27.0019" stroke="black"/>
<path d="M34.7732 35.096C34.4212 34.84 34.2292 34.6 34.1972 34.376C34.1652 34.152 34.1492 33.912 34.1492 33.656V33.368C34.1492 33.24 34.1652 33.048 34.1972 32.792C34.2612 32.536 34.3092 32.376 34.3412 32.312C34.4052 31.992 34.6132 31.624 34.9652 31.208C35.3172 30.792 35.6052 30.456 35.8292 30.2C36.4692 29.464 37.0612 28.728 37.6052 27.992V28.04L39.3812 25.784C39.4452 25.72 39.5412 25.608 39.6692 25.448C39.8292 25.256 40.0212 25.048 40.2452 24.824C40.7572 24.28 41.3172 23.64 41.9252 22.904C42.5332 22.136 43.0772 21.384 43.5572 20.648C43.2052 20.648 42.8052 20.648 42.3572 20.648C41.9092 20.648 41.4612 20.664 41.0132 20.696C40.5972 20.696 40.1972 20.712 39.8132 20.744C39.4292 20.744 39.1412 20.76 38.9492 20.792C38.8212 20.792 38.6452 20.808 38.4212 20.84C38.2292 20.84 38.0372 20.856 37.8452 20.888C37.6532 20.888 37.4772 20.904 37.3172 20.936C37.1892 20.936 37.1412 20.936 37.1732 20.936C36.7252 20.936 36.2932 20.904 35.8772 20.84C35.4932 20.744 35.1892 20.52 34.9652 20.168C34.9012 20.104 34.8052 20.008 34.6772 19.88C34.5812 19.752 34.5332 19.624 34.5332 19.496V18.104C34.5332 17.912 34.5812 17.656 34.6772 17.336C34.8052 16.984 34.9492 16.696 35.1092 16.472H35.2052C35.6532 16.376 36.1012 16.312 36.5492 16.28C37.0292 16.216 37.4932 16.168 37.9412 16.136C38.1012 16.136 38.2452 16.136 38.3732 16.136C38.5012 16.104 38.6452 16.088 38.8052 16.088H39.3812C39.5732 16.088 39.8132 16.088 40.1012 16.088C40.4212 16.056 40.7412 16.04 41.0612 16.04C41.3812 16.008 41.6852 15.992 41.9732 15.992C42.2932 15.992 42.5332 15.992 42.6932 15.992H43.8452C44.0372 15.992 44.2132 15.992 44.3732 15.992C44.5652 15.96 44.7732 15.944 44.9972 15.944C45.0612 15.944 45.2052 15.944 45.4292 15.944C45.6852 15.944 45.9412 15.928 46.1972 15.896C46.8372 15.864 47.6052 15.832 48.5012 15.8C49.3972 15.768 50.2292 15.752 50.9972 15.752C51.4132 15.752 51.7812 15.768 52.1012 15.8C52.4212 15.8 52.6772 15.816 52.8692 15.848L55.0772 15.992C55.3012 16.024 55.5892 16.04 55.9412 16.04C56.2932 16.04 56.6772 16.056 57.0932 16.088C57.5092 16.12 57.9092 16.184 58.2932 16.28C58.7092 16.344 59.0932 16.456 59.4452 16.616C59.7972 16.776 60.0852 17 60.3092 17.288C60.5332 17.576 60.6132 17.928 60.5492 18.344C60.5172 18.568 60.4692 18.744 60.4052 18.872C60.3732 18.968 60.3252 19.064 60.2612 19.16C60.2292 19.256 60.1972 19.368 60.1652 19.496C60.1332 19.592 60.1172 19.736 60.1172 19.928C60.0212 20.248 59.8132 20.488 59.4932 20.648C59.1732 20.808 58.8532 20.888 58.5332 20.888C58.3092 20.888 58.1172 20.888 57.9572 20.888C57.8292 20.856 57.7012 20.84 57.5732 20.84H49.6532C50.3572 21.48 51.0132 22.04 51.6212 22.52C52.2292 22.968 52.6772 23.32 52.9652 23.576C53.9892 24.408 54.9492 25.176 55.8452 25.88C56.7412 26.552 57.6852 27.352 58.6772 28.28C59.0292 28.6 59.4772 29.048 60.0212 29.624C60.5972 30.168 61.0452 30.712 61.3652 31.256C61.7172 31.864 61.8932 32.328 61.8932 32.648C61.8932 32.968 61.8612 33.256 61.7972 33.512C61.6692 33.832 61.5092 34.104 61.3172 34.328C61.1572 34.52 60.9012 34.616 60.5492 34.616C60.4212 34.616 60.1492 34.52 59.7332 34.328C59.3172 34.136 58.9332 33.912 58.5812 33.656C58.2292 33.4 57.9092 33.16 57.6212 32.936C57.3652 32.712 57.0932 32.504 56.8052 32.312C55.8132 31.576 54.8212 30.808 53.8292 30.008C52.8372 29.176 51.9252 28.408 51.0932 27.704C50.3892 27.096 49.7012 26.536 49.0292 26.024C48.3892 25.48 47.7012 24.968 46.9652 24.488C46.0692 25.192 45.3652 25.848 44.8532 26.456C44.3732 27.032 43.8612 27.624 43.3172 28.232C42.9652 28.648 42.5812 29.08 42.1652 29.528C41.7812 29.976 41.3812 30.408 40.9652 30.824C40.5812 31.24 40.1652 31.72 39.7172 32.264C39.3012 32.808 38.9492 33.256 38.6612 33.608C38.4692 33.896 38.2132 34.216 37.8932 34.568C37.5732 34.92 37.3172 35.16 37.1252 35.288C36.9652 35.32 36.7572 35.336 36.5012 35.336C36.2452 35.336 36.0532 35.336 35.9252 35.336C35.4772 35.336 35.0932 35.24 34.7732 35.048V35.096ZM46.0532 49.256C46.0532 49.192 46.0532 48.936 46.0532 48.488C46.0852 48.072 46.1812 47.496 46.3412 46.76L46.2932 46.808C46.4532 45.208 46.4532 44.12 46.2932 43.544C46.1652 42.936 45.7812 42.632 45.1412 42.632C44.9172 42.632 44.4532 42.648 43.7492 42.68C43.0772 42.68 42.4372 42.712 41.8292 42.776C41.7332 42.776 41.4452 42.808 40.9652 42.872C40.4852 42.936 39.9572 43 39.3812 43.064C38.8052 43.096 38.2612 43.144 37.7492 43.208C37.2372 43.24 36.9332 43.24 36.8372 43.208C36.5172 43.208 36.1972 43.208 35.8772 43.208C35.5572 43.176 35.2692 43.128 35.0132 43.064V43.112C34.8212 43.048 34.6292 43 34.4372 42.968C34.2772 42.904 34.1332 42.856 34.0052 42.824C33.6852 42.76 33.3492 42.68 32.9972 42.584C32.6772 42.456 32.4372 42.296 32.2772 42.104C32.2132 42.008 32.1172 41.864 31.9892 41.672C31.8612 41.448 31.7972 41.176 31.7972 40.856C31.7972 40.6 31.7972 40.312 31.7972 39.992C31.8292 39.672 31.8772 39.384 31.9412 39.128H34.3412C34.5652 39.032 34.7892 38.984 35.0132 38.984C35.2372 38.952 35.4612 38.936 35.6852 38.936C35.8452 38.936 36.0052 38.936 36.1652 38.936C36.3572 38.936 36.5332 38.92 36.6932 38.888C36.8532 38.824 37.0612 38.792 37.3172 38.792C37.4452 38.792 37.5732 38.792 37.7012 38.792C37.8612 38.792 37.9892 38.776 38.0852 38.744H38.0372C38.6772 38.648 39.3652 38.584 40.1012 38.552C40.8692 38.488 41.5412 38.44 42.1172 38.408H42.3572C42.5492 38.408 42.7412 38.408 42.9332 38.408C43.1572 38.408 43.3812 38.376 43.6052 38.312C44.2772 38.344 44.9492 38.344 45.6212 38.312C46.2932 38.28 46.9492 38.232 47.5892 38.168C48.6452 38.072 49.7012 38.024 50.7572 38.024C50.8852 38.056 51.0452 38.072 51.2372 38.072C51.4292 38.072 51.6052 38.072 51.7652 38.072C51.8292 38.072 51.8932 38.088 51.9572 38.12C52.0532 38.12 52.1332 38.12 52.1972 38.12C52.4212 38.184 52.6932 38.216 53.0132 38.216C53.3332 38.216 53.6212 38.216 53.8772 38.216C54.2292 38.216 54.5492 38.216 54.8372 38.216C55.1572 38.216 55.3972 38.2 55.5572 38.168C55.8132 38.168 56.0052 38.168 56.1332 38.168C56.2932 38.136 56.4532 38.12 56.6132 38.12H57.5732C57.7332 38.12 57.9092 38.136 58.1012 38.168C58.2932 38.168 58.4692 38.168 58.6292 38.168H59.5892C59.7812 38.168 60.0372 38.184 60.3572 38.216C60.7092 38.248 61.0132 38.296 61.2692 38.36C61.3332 38.392 61.4772 38.408 61.7012 38.408C61.7972 38.408 61.9092 38.424 62.0372 38.456C62.0692 38.456 62.1332 38.472 62.2292 38.504C62.3252 38.536 62.4052 38.552 62.4692 38.552C62.7892 38.616 63.0932 38.696 63.3812 38.792C63.6692 38.856 63.9092 39.096 64.1012 39.512C64.1972 39.704 64.2132 40.008 64.1492 40.424C64.0852 40.808 64.0212 41.128 63.9572 41.384C63.9252 41.544 63.8612 41.72 63.7652 41.912C63.7012 42.104 63.6372 42.248 63.5732 42.344C63.4132 42.632 63.1732 42.792 62.8532 42.824C62.5332 42.856 62.2132 42.872 61.8932 42.872H59.2532C58.7412 42.872 58.2292 42.856 57.7172 42.824C57.2052 42.76 56.6772 42.696 56.1332 42.632C55.5572 42.568 54.9972 42.504 54.4532 42.44C53.9092 42.376 53.2852 42.344 52.5812 42.344H51.4292C51.2052 42.344 51.0612 42.344 50.9972 42.344C50.9332 42.312 50.7572 42.296 50.4692 42.296C50.2452 42.296 50.0052 42.312 49.7492 42.344C49.4932 42.376 49.3652 42.552 49.3652 42.872C49.3652 43.16 49.4452 43.512 49.6052 43.928C49.7652 44.312 49.9412 44.664 50.1332 44.984L50.2292 46.04C50.2292 46.2 50.2612 46.376 50.3252 46.568C50.4212 46.76 50.5012 46.904 50.5652 47C50.6292 47.16 50.6932 47.384 50.7572 47.672C50.8532 47.96 50.9012 48.136 50.9012 48.2C50.9012 48.296 50.9012 48.392 50.9012 48.488C50.9332 48.616 50.9492 48.728 50.9492 48.824C50.9812 49.112 50.9812 49.416 50.9492 49.736C50.9172 50.088 50.8212 50.376 50.6612 50.6C50.4372 50.824 50.2612 51.048 50.1332 51.272L50.2292 51.176L49.9412 51.56L48.9812 52.376C48.8212 52.312 48.6292 52.232 48.4052 52.136C48.1812 52.072 48.0052 52.024 47.8772 51.992H47.7332L47.3492 51.8C47.0932 51.672 46.9492 51.544 46.9172 51.416C46.8852 51.416 46.8692 51.4 46.8692 51.368V51.272C46.8372 51.176 46.8052 51.064 46.7732 50.936C46.7732 50.808 46.7252 50.664 46.6292 50.504C46.5972 50.408 46.5492 50.296 46.4852 50.168C46.4212 50.04 46.3572 49.944 46.2932 49.88C46.1332 49.624 46.0532 49.432 46.0532 49.304V49.256Z" fill="white"/>
<path d="M88.7514 55.976C88.6447 55.912 88.538 55.848 88.4314 55.784C88.346 55.7413 88.25 55.6987 88.1434 55.656L86.7994 55.912C86.3514 55.9973 86.0207 55.9227 85.8074 55.688C85.6154 55.4533 85.5727 55.1227 85.6794 54.696C85.786 54.2267 85.8714 53.8 85.9354 53.416C85.9994 53.0533 86.0634 52.6587 86.1274 52.232C86.17 51.9973 86.202 51.7307 86.2234 51.432C86.266 51.1333 86.298 50.8347 86.3194 50.536C86.3194 50.4507 86.3194 50.312 86.3194 50.12C86.3407 49.928 86.3514 49.7893 86.3514 49.704L85.0394 49.544C84.8687 49.5013 84.6874 49.48 84.4954 49.48C84.3034 49.4587 84.122 49.448 83.9514 49.448C83.482 49.4267 83.0447 49.416 82.6394 49.416C82.2554 49.3947 81.8714 49.384 81.4874 49.384C80.9754 49.384 80.442 49.3947 79.8874 49.416C79.354 49.4373 78.7887 49.4907 78.1914 49.576C77.9567 49.6187 77.7114 49.64 77.4554 49.64C77.2207 49.64 76.986 49.6293 76.7514 49.608C76.5167 49.5867 76.282 49.576 76.0474 49.576C75.834 49.5547 75.642 49.544 75.4714 49.544C74.8527 49.544 74.3087 49.5867 73.8394 49.672C73.37 49.7573 72.858 49.864 72.3034 49.992L71.1834 50.248C71.0127 50.2907 70.842 50.3227 70.6714 50.344C70.5007 50.3653 70.3407 50.376 70.1914 50.376C69.7647 50.4187 69.4234 50.28 69.1674 49.96H69.1994C69.0074 49.704 68.8047 49.3627 68.5914 48.936C68.3994 48.488 68.3354 48.0933 68.3994 47.752L68.3674 47.816C68.41 47.6453 68.4954 47.5493 68.6234 47.528L71.1194 47.208C71.4607 47.1653 71.802 47.1227 72.1434 47.08C72.4847 47.016 72.9327 46.9627 73.4874 46.92C73.594 46.8987 73.7114 46.8987 73.8394 46.92C73.9674 46.92 74.0954 46.9307 74.2234 46.952H74.1914C74.2767 46.9733 74.394 46.984 74.5434 46.984C74.714 46.984 74.842 46.984 74.9274 46.984C75.5034 47.0267 76.1007 47.0587 76.7194 47.08C77.338 47.1013 77.9567 47.112 78.5754 47.112H79.7274C79.962 47.112 80.2074 47.1227 80.4634 47.144C80.7194 47.144 80.986 47.144 81.2634 47.144C82.074 47.1653 82.906 47.1973 83.7594 47.24C84.6127 47.2613 85.4127 47.336 86.1594 47.464L86.8954 47.624C87.0874 47.6667 87.2687 47.7093 87.4394 47.752C87.6314 47.7733 87.8447 47.784 88.0794 47.784C88.3354 47.8053 88.506 47.9227 88.5914 48.136C88.6767 48.3493 88.7407 48.584 88.7834 48.84C88.826 49.16 88.9007 49.4373 89.0074 49.672C89.2634 50.312 89.3914 50.9627 89.3914 51.624C89.3914 51.9653 89.3594 52.328 89.2954 52.712L89.1994 53.672C89.1567 54.0987 89.114 54.504 89.0714 54.888C89.0287 55.272 88.922 55.6347 88.7514 55.976ZM70.6074 41.832C70.7994 41.7893 70.97 41.7573 71.1194 41.736C71.2687 41.6933 71.4074 41.6507 71.5354 41.608C71.77 41.544 71.9834 41.4907 72.1754 41.448C72.3674 41.4053 72.5807 41.3733 72.8154 41.352C73.0074 41.3307 73.146 41.3307 73.2314 41.352C73.3167 41.352 73.3807 41.3627 73.4234 41.384C73.53 41.4267 73.69 41.4693 73.9034 41.512C74.138 41.5547 74.4687 41.5973 74.8954 41.64C74.8314 41.32 74.778 41.064 74.7354 40.872C74.714 40.6587 74.6927 40.4773 74.6714 40.328C74.6714 40.1787 74.682 40.0507 74.7034 39.944C74.7247 39.816 74.746 39.6987 74.7674 39.592C74.7887 39.4853 74.8207 39.336 74.8634 39.144C74.906 38.9307 74.9594 38.568 75.0234 38.056C75.0874 37.6933 75.1407 37.4053 75.1834 37.192C75.226 36.9573 75.258 36.7333 75.2794 36.52C75.322 36.3067 75.3434 36.0613 75.3434 35.784C75.3434 35.5067 75.3434 35.1333 75.3434 34.664C75.3434 34.2373 75.258 33.9707 75.0874 33.864C74.938 33.7573 74.6927 33.6507 74.3514 33.544C73.9034 33.416 73.562 33.3307 73.3274 33.288C73.0927 33.224 72.8474 33.1813 72.5914 33.16C72.2074 33.1387 71.7914 33.1387 71.3434 33.16C70.9167 33.1813 70.5007 33.2133 70.0954 33.256C69.9887 33.256 69.8927 33.2667 69.8074 33.288C69.722 33.288 69.626 33.288 69.5194 33.288C69.4127 33.288 69.2527 33.2453 69.0394 33.16C68.8474 33.0533 68.73 33.0213 68.6874 33.064C68.6874 33.064 68.6767 33 68.6554 32.872C68.6554 32.744 68.666 32.6053 68.6874 32.456C68.7087 32.2853 68.7407 32.1253 68.7834 31.976C68.826 31.8267 68.8794 31.72 68.9434 31.656C69.5407 31.3147 70.1167 31.1333 70.6714 31.112C70.8634 31.0907 71.0554 31.08 71.2474 31.08C71.4394 31.08 71.6314 31.08 71.8234 31.08C72.0794 31.08 72.4207 31.0907 72.8474 31.112C73.2954 31.112 73.754 31.144 74.2234 31.208C74.6927 31.272 75.1407 31.368 75.5674 31.496C75.994 31.624 76.3354 31.816 76.5914 32.072C76.954 32.648 77.2527 33.3093 77.4874 34.056C77.7434 34.8027 77.882 35.5173 77.9034 36.2C77.8607 36.52 77.8394 36.84 77.8394 37.16C77.8394 37.48 77.8394 37.7573 77.8394 37.992C77.8394 38.3973 77.8287 38.792 77.8074 39.176C77.786 39.56 77.7007 40.0507 77.5514 40.648C77.53 40.8827 77.4767 41.1173 77.3914 41.352C77.3487 41.48 77.3167 41.5867 77.2954 41.672C77.2954 41.7573 77.274 41.896 77.2314 42.088C77.21 42.2587 77.1247 42.408 76.9754 42.536C76.826 42.6427 76.6554 42.7493 76.4634 42.856C76.4847 42.8347 76.4527 42.8347 76.3674 42.856C76.3034 42.856 76.2394 42.8667 76.1754 42.888C76.0047 42.9093 75.8234 42.952 75.6314 43.016C75.4394 43.08 75.2687 43.1973 75.1194 43.368L73.7114 43.432L72.6234 43.528L70.8634 43.656C70.6714 43.6987 70.394 43.7947 70.0314 43.944C69.69 44.0933 69.3914 44.2427 69.1354 44.392L68.8474 44.104H68.8794C68.73 43.9333 68.57 43.7627 68.3994 43.592C68.25 43.4213 68.1647 43.3147 68.1434 43.272C68.1007 43.1653 68.0474 43.0373 67.9834 42.888C67.9194 42.7173 67.8767 42.5787 67.8554 42.472C67.834 42.1733 67.8234 41.864 67.8234 41.544C67.8234 41.224 67.8234 40.904 67.8234 40.584C67.8234 40.3493 67.8234 40.1253 67.8234 39.912C67.8234 39.6773 67.834 39.4427 67.8554 39.208C67.898 38.7813 67.9407 38.4187 67.9834 38.12C68.026 37.8213 68.0687 37.5227 68.1114 37.224C68.154 36.9893 68.1967 36.7227 68.2394 36.424C68.282 36.1253 68.3247 35.752 68.3674 35.304C68.3887 34.92 68.6127 34.5467 69.0394 34.184C69.1247 34.0987 69.2314 34.0773 69.3594 34.12C69.4874 34.1413 69.5727 34.2267 69.6154 34.376L69.8714 34.888C70.042 35.2507 70.1807 35.5707 70.2874 35.848C70.394 36.104 70.4154 36.4453 70.3514 36.872C70.2874 37.2773 70.234 37.608 70.1914 37.864C70.17 38.0987 70.1487 38.3227 70.1274 38.536C70.106 38.728 70.0954 38.9413 70.0954 39.176C70.0954 39.3893 70.0954 39.6773 70.0954 40.04V40.552C70.0954 40.7227 70.106 40.8827 70.1274 41.032C70.17 41.1813 70.2127 41.3413 70.2554 41.512L70.6074 41.832ZM88.1114 43.752C88.09 43.8587 88.0687 43.9547 88.0474 44.04C88.026 44.1253 88.0047 44.2213 87.9834 44.328C87.7487 44.2853 87.5247 44.3173 87.3114 44.424C87.1194 44.5093 86.938 44.6373 86.7674 44.808C86.49 44.936 86.1594 44.9253 85.7754 44.776C85.3914 44.6267 85.114 44.4347 84.9434 44.2C84.5807 43.7093 84.346 43.1973 84.2394 42.664C84.154 42.1093 84.1114 41.5547 84.1114 41C84.1114 40.808 84.1114 40.616 84.1114 40.424C84.1114 40.232 84.122 40.0507 84.1434 39.88C84.1434 39.8373 84.1434 39.72 84.1434 39.528C84.1647 39.336 84.1754 39.208 84.1754 39.144L84.2714 37.704C84.2927 37.448 84.3034 37.2453 84.3034 37.096C84.3034 36.9253 84.3034 36.7547 84.3034 36.584C84.3034 36.3707 84.3034 36.1147 84.3034 35.816C84.3034 35.496 84.282 35.0373 84.2394 34.44C84.218 34.1627 84.2074 33.8747 84.2074 33.576C84.2074 33.256 84.2074 32.9573 84.2074 32.68V31.464C84.2074 31.2293 84.1647 31.016 84.0794 30.824C84.0154 30.632 84.0154 30.472 84.0794 30.344C84.186 30.1093 84.378 29.96 84.6554 29.896C84.954 29.832 85.21 29.7147 85.4234 29.544C85.53 29.4587 85.5834 29.4053 85.5834 29.384C85.6047 29.3413 85.7434 29.32 85.9994 29.32C86.234 29.32 86.458 29.3413 86.6714 29.384C86.8847 29.4053 87.034 29.4587 87.1194 29.544C87.2687 29.672 87.3967 29.8747 87.5034 30.152C87.61 30.4293 87.6847 30.6853 87.7274 30.92C87.8554 31.496 87.9407 32.072 87.9834 32.648C88.0474 33.224 88.1007 33.7787 88.1434 34.312C88.1434 34.4187 88.1434 34.5253 88.1434 34.632C88.1647 34.7387 88.1754 34.8453 88.1754 34.952C88.218 35.5707 88.2607 36.0187 88.3034 36.296C88.346 36.552 88.3887 36.7547 88.4314 36.904C88.474 37.0747 88.4954 37.224 88.4954 37.352C88.5167 37.48 88.5274 37.6613 88.5274 37.896C88.5274 38.024 88.5274 38.2053 88.5274 38.44C88.5274 38.6747 88.5167 38.9093 88.4954 39.144L88.1114 43.752ZM89.1354 36.712C89.6687 36.136 90.202 35.848 90.7354 35.848C90.9487 35.848 91.1834 35.8907 91.4394 35.976C91.7167 36.04 91.9727 36.1253 92.2074 36.232C92.698 36.4667 93.0714 36.776 93.3274 37.16C93.5834 37.5227 93.7114 37.9067 93.7114 38.312C93.7114 38.5253 93.6794 38.7387 93.6154 38.952L92.5594 39.496C92.3247 39.624 92.0794 39.624 91.8234 39.496C91.5674 39.3467 91.3434 39.1653 91.1514 38.952V38.984L89.1354 36.712Z" fill="white"/>
</svg>
