<svg width="153" height="123" viewBox="0 0 153 123" fill="none" xmlns="http://www.w3.org/2000/svg">
<path d="M45.7245 29.864C46.4925 30.0773 47.2818 30.2053 48.0925 30.248C48.9032 30.2907 49.7352 30.312 50.5885 30.312C51.6978 30.2693 52.5725 30.2693 53.2125 30.312C53.8525 30.3547 54.6632 30.4187 55.6445 30.504C56.9672 30.3333 58.1192 30.3973 59.1005 30.696C59.1858 29.8853 59.2285 29.1173 59.2285 28.392C59.2285 27.624 59.2285 26.7067 59.2285 25.64C59.7405 25.3413 60.3378 25.1067 61.0205 24.936C61.7458 24.7653 62.4285 24.7013 63.0685 24.744C63.7085 24.744 64.2632 24.8507 64.7325 25.064C65.2018 25.2773 65.4792 25.5973 65.5645 26.024C65.6498 26.7067 65.7138 27.6453 65.7565 28.84C65.7992 29.992 65.7992 30.952 65.7565 31.72C65.7138 32.744 65.6285 33.6827 65.5005 34.536C65.3725 35.3467 65.2445 36.1573 65.1165 36.968C64.9885 37.736 64.8392 38.5467 64.6685 39.4C64.5405 40.2107 64.4125 41.128 64.2845 42.152C64.2418 42.92 64.0925 43.5387 63.8365 44.008C63.5805 44.4773 63.2392 44.8613 62.8125 45.16C62.4285 45.4587 61.9378 45.6933 61.3405 45.864C60.7432 46.0347 60.0605 46.184 59.2925 46.312C58.7805 46.5253 58.3112 46.6747 57.8845 46.76C57.4578 46.8027 57.0098 46.824 56.5405 46.824C56.1138 46.824 55.6658 46.824 55.1965 46.824C54.7272 46.824 54.2152 46.8667 53.6605 46.952H42.4605C41.2658 46.952 40.3272 46.9307 39.6445 46.888C39.0045 46.8027 38.3432 46.4613 37.6605 45.864C37.5752 45.7787 37.4685 45.6507 37.3405 45.48C37.2125 45.3093 37.0845 45.224 36.9565 45.224C36.5725 45.1813 36.2312 45.0533 35.9325 44.84C35.6338 44.584 35.3778 44.3067 35.1645 44.008C34.9938 43.6667 34.8445 43.3253 34.7165 42.984C34.6312 42.6427 34.5672 42.344 34.5245 42.088C34.2685 40.296 34.0765 38.504 33.9485 36.712C33.8632 34.92 33.9485 33 34.2045 30.952C34.2472 30.6107 34.2898 30.184 34.3325 29.672C34.3752 29.16 34.3965 28.6267 34.3965 28.072C34.4392 27.4747 34.4818 26.92 34.5245 26.408C34.5672 25.896 34.6312 25.4693 34.7165 25.128C34.8445 24.9147 35.0792 24.8507 35.4205 24.936C35.8045 25.0213 36.0818 24.936 36.2525 24.68C36.9778 24.8507 37.6605 25.064 38.3005 25.32C38.9832 25.5333 39.3245 25.8107 39.3245 26.152C39.3672 26.4933 39.4312 26.8987 39.5165 27.368C39.6018 27.7947 39.6872 28.264 39.7725 28.776C39.9005 29.2453 39.9858 29.7147 40.0285 30.184C40.0712 30.6107 40.0925 31.016 40.0925 31.4C40.0925 31.7413 40.0498 31.9973 39.9645 32.168C39.9218 32.3387 39.9005 32.5093 39.9005 32.68C40.1992 32.2533 40.6898 31.8053 41.3725 31.336C42.0978 30.8667 42.6312 30.4613 42.9725 30.12C43.3992 29.9067 43.8045 29.8 44.1885 29.8C44.6152 29.7573 45.1272 29.7787 45.7245 29.864ZM74.5245 55.592C74.6098 55.7627 74.6738 56.1253 74.7165 56.68C74.7592 57.192 74.6312 57.64 74.3325 58.024C74.1192 58.1093 73.8205 58.1733 73.4365 58.216C73.0952 58.2587 72.8818 58.344 72.7965 58.472C72.6685 58.984 72.3698 59.368 71.9005 59.624C71.4738 59.88 70.9618 60.072 70.3645 60.2C69.8098 60.2853 69.2338 60.328 68.6365 60.328C68.0818 60.2853 67.6125 60.264 67.2285 60.264L62.3005 60.008L57.3725 60.648L53.9805 60.52H53.2765C53.3618 60.7333 53.4258 60.968 53.4685 61.224C53.5112 61.4373 53.5538 61.6933 53.5965 61.992C53.6392 62.504 53.7032 63.1227 53.7885 63.848C53.9165 64.5733 53.9805 65.192 53.9805 65.704C53.9805 66.1307 53.9592 66.5787 53.9165 67.048C53.8738 67.4747 53.8312 67.9227 53.7885 68.392C53.5752 68.392 53.2765 68.3707 52.8925 68.328C52.5085 68.2853 52.1245 68.2853 51.7405 68.328C51.3565 68.328 50.9938 68.3707 50.6525 68.456C50.3538 68.5413 50.1192 68.6907 49.9485 68.904C49.5218 69.3307 48.8178 69.352 47.8365 68.968C46.9405 68.4987 46.3005 68.0507 45.9165 67.624C45.5325 67.1973 45.3192 66.472 45.2765 65.448C45.2765 64.7227 45.3405 64.1467 45.4685 63.72C45.6392 63.2933 45.7885 62.7387 45.9165 62.056L46.3645 60.264C45.4258 60.264 44.5298 60.2853 43.6765 60.328C42.8658 60.328 42.3538 60.3707 42.1405 60.456L37.4045 60.584C36.8925 60.4987 36.3165 60.456 35.6765 60.456C35.0792 60.456 34.4605 60.456 33.8205 60.456C33.1805 60.456 32.5618 60.456 31.9645 60.456C31.3672 60.456 30.8552 60.392 30.4285 60.264C29.8312 60.1787 29.2765 60.136 28.7645 60.136C28.2952 60.136 27.8472 60.1147 27.4205 60.072C27.0365 59.9867 26.6738 59.816 26.3325 59.56C26.0338 59.304 25.7352 58.856 25.4365 58.216C24.9672 57.1067 24.6898 55.9547 24.6045 54.76C24.5618 53.5227 24.8605 52.3707 25.5005 51.304C25.7565 51.3467 26.0125 51.3893 26.2685 51.432C26.5672 51.4747 26.8872 51.6027 27.2285 51.816C27.9965 51.688 28.8712 51.56 29.8525 51.432C30.8338 51.304 31.8365 51.2187 32.8605 51.176C33.9272 51.0907 34.9512 51.0267 35.9325 50.984C36.9565 50.8987 37.8952 50.856 38.7485 50.856C40.3272 50.856 41.9912 50.8773 43.7405 50.92C45.5325 50.92 47.3245 50.9413 49.1165 50.984C50.9512 50.984 52.7432 50.984 54.4925 50.984C56.2418 50.984 57.9058 50.9627 59.4845 50.92C60.5512 50.92 61.3832 50.8987 61.9805 50.856C62.5778 50.8133 63.1325 50.792 63.6445 50.792C64.1992 50.7493 64.7965 50.7493 65.4365 50.792C66.0765 50.792 66.9725 50.8133 68.1245 50.856C69.3618 50.984 70.5992 51.304 71.8365 51.816C73.1165 52.2853 74.2898 53.0107 75.3565 53.992L74.5245 55.592ZM32.9885 63.912C33.2872 64.168 33.6285 64.424 34.0125 64.68C34.4392 64.936 34.8232 65.2133 35.1645 65.512C35.5058 65.768 35.7832 66.0667 35.9965 66.408C36.2098 66.7067 36.2738 67.048 36.1885 67.432C35.9325 68.1147 35.7405 68.7973 35.6125 69.48C35.4845 70.1627 35.3138 70.8027 35.1005 71.4C35.6978 71.8693 36.2952 72.1893 36.8925 72.36C37.5325 72.5307 38.1085 72.6373 38.6205 72.68C39.5165 72.68 40.2845 72.68 40.9245 72.68C41.6072 72.68 42.2472 72.68 42.8445 72.68C43.4845 72.6373 44.1032 72.5947 44.7005 72.552C45.3405 72.5093 46.0658 72.488 46.8765 72.488C47.4312 72.488 47.8792 72.4667 48.2205 72.424C48.6045 72.3813 48.9245 72.36 49.1805 72.36C49.4792 72.3173 49.7992 72.296 50.1405 72.296C50.4818 72.2533 50.9512 72.232 51.5485 72.232C53.7245 72.3173 55.8792 72.296 58.0125 72.168C60.1885 72.04 62.3432 72.0187 64.4765 72.104C65.0738 72.1893 65.7138 72.168 66.3965 72.04C67.0792 71.8693 67.7832 71.8693 68.5085 72.04C69.1058 72.2107 69.6818 72.3813 70.2365 72.552C70.7912 72.7227 71.2818 72.936 71.7085 73.192C72.1778 73.4907 72.5832 73.832 72.9245 74.216C73.2658 74.6427 73.5218 75.176 73.6925 75.816C73.3938 76.1147 73.2018 76.456 73.1165 76.84C73.0738 77.2667 72.9672 77.9707 72.7965 78.952C71.9432 78.952 71.0898 79.0587 70.2365 79.272C69.4258 79.528 68.5938 79.6133 67.7405 79.528C66.5885 79.656 65.4578 79.6773 64.3485 79.592C63.2392 79.5493 62.0872 79.5707 60.8925 79.656C60.3378 79.656 59.7832 79.72 59.2285 79.848C58.6738 79.976 58.0978 79.9973 57.5005 79.912L49.5645 79.592C49.3512 79.5493 49.1165 79.5493 48.8605 79.592C48.6472 79.6347 48.4552 79.656 48.2845 79.656L46.4285 80.168C45.9592 80.2533 45.4898 80.3173 45.0205 80.36C44.5938 80.4453 44.1672 80.5093 43.7405 80.552C43.5698 80.552 43.1858 80.552 42.5885 80.552C42.0338 80.552 41.4365 80.5307 40.7965 80.488C40.1565 80.4453 39.5592 80.4027 39.0045 80.36C38.4925 80.3173 38.1725 80.2747 38.0445 80.232C37.1912 80.1467 36.6152 80.04 36.3165 79.912C36.0178 79.8267 35.7618 79.6987 35.5485 79.528C35.3778 79.4 35.1432 79.208 34.8445 78.952C34.5885 78.7387 34.0552 78.4613 33.2445 78.12C32.8605 77.9067 32.4765 77.6507 32.0925 77.352C31.7085 77.0533 31.3032 76.776 30.8765 76.52C30.5778 76.1787 30.3858 75.9013 30.3005 75.688L29.2765 71.464C29.1912 71.3787 29.1698 71.272 29.2125 71.144C29.2552 71.016 29.2978 70.9093 29.3405 70.824L32.0925 64.424C32.1778 64.3387 32.2845 64.2533 32.4125 64.168C32.5832 64.0827 32.7752 63.9973 32.9885 63.912ZM40.5405 39.336C40.7965 40.5733 41.5432 41.1493 42.7805 41.064C43.8898 41.0213 44.8925 41.0213 45.7885 41.064C46.6845 41.1067 47.6872 41.0427 48.7965 40.872C49.5218 40.7867 50.1618 40.7227 50.7165 40.68C51.2712 40.6373 51.8045 40.616 52.3165 40.616C52.8712 40.5733 53.4258 40.5307 53.9805 40.488C54.5778 40.4453 55.2392 40.3813 55.9645 40.296C57.0738 40.2107 57.7565 39.7413 58.0125 38.888C58.2258 38.1627 58.3965 37.6507 58.5245 37.352C58.6952 37.0107 58.8018 36.5413 58.8445 35.944H57.3725L56.0925 36.392C55.1538 36.392 54.2792 36.4347 53.4685 36.52C52.7005 36.6053 51.9325 36.6693 51.1645 36.712C50.3965 36.7547 49.6285 36.776 48.8605 36.776C48.0925 36.7333 47.2818 36.6267 46.4285 36.456C45.2765 36.2 44.1672 36.008 43.1005 35.88C42.0338 35.752 40.9672 35.5813 39.9005 35.368C39.9005 35.7947 39.9005 36.1573 39.9005 36.456C39.9432 36.7547 39.9858 37.032 40.0285 37.288C40.1138 37.544 40.1992 37.8427 40.2845 38.184C40.3698 38.4827 40.4552 38.8667 40.5405 39.336Z" fill="black"/>
<path d="M118.184 95.76C117.672 95.28 117.256 94.976 116.936 94.848C116.744 94.912 116.376 94.976 115.832 95.04C115.32 95.104 114.936 95.168 114.68 95.232C113.752 95.424 113.064 95.28 112.616 94.8C112.2 94.32 112.088 93.616 112.28 92.688C112.44 91.952 112.52 91.312 112.52 90.768C112.552 90.256 112.616 89.664 112.712 88.992C112.808 88.48 112.872 87.84 112.904 87.072C112.936 86.272 112.984 85.584 113.048 85.008C112.568 84.944 112.104 84.896 111.656 84.864C111.24 84.8 110.84 84.768 110.456 84.768C109.656 84.768 108.936 84.752 108.296 84.72C107.656 84.656 107.032 84.608 106.424 84.576C105.816 84.544 105.192 84.528 104.552 84.528C103.912 84.528 103.192 84.576 102.392 84.672C102.008 84.736 101.528 84.752 100.952 84.72C100.376 84.688 99.8803 84.656 99.4643 84.624C98.5683 84.56 97.8003 84.528 97.1603 84.528C96.5523 84.528 95.9443 84.56 95.3363 84.624C94.7603 84.688 94.1523 84.784 93.5123 84.912C92.9043 85.04 92.1523 85.2 91.2563 85.392C91.0003 85.456 90.6963 85.504 90.3443 85.536C89.9923 85.568 89.6883 85.584 89.4323 85.584C89.0483 85.584 88.6643 85.536 88.2803 85.44C87.9283 85.312 87.6243 85.088 87.3683 84.768C87.0483 84.352 86.7603 83.776 86.5043 83.04C86.2483 82.304 86.1843 81.616 86.3123 80.976C86.3763 80.624 86.4723 80.4 86.6003 80.304C86.7603 80.208 86.9683 80.144 87.2243 80.112C88.0243 80.016 88.7123 79.952 89.2883 79.92C89.8643 79.888 90.4083 79.872 90.9203 79.872C91.4323 79.84 91.9603 79.808 92.5043 79.776C93.0803 79.744 93.7683 79.696 94.5683 79.632C94.9523 79.6 95.3683 79.6 95.8163 79.632C96.2963 79.664 96.7443 79.68 97.1603 79.68C98.3443 79.68 99.4963 79.696 100.616 79.728C101.736 79.728 102.904 79.728 104.12 79.728C105.624 79.728 107.224 79.728 108.92 79.728C110.616 79.728 112.184 79.856 113.624 80.112C114.136 80.176 114.616 80.272 115.064 80.4C115.544 80.528 116.008 80.592 116.456 80.592C116.904 80.592 117.24 80.736 117.464 81.024C117.72 81.28 117.912 81.6 118.04 81.984C118.168 82.368 118.264 82.768 118.328 83.184C118.392 83.568 118.488 83.904 118.616 84.192C118.936 84.96 119.112 85.888 119.144 86.976C119.176 88.032 119.16 88.992 119.096 89.856C119.064 90.432 119.048 91.088 119.048 91.824C119.08 92.592 119.048 93.264 118.952 93.84C118.92 94.096 118.824 94.368 118.664 94.656C118.504 94.976 118.344 95.344 118.184 95.76ZM84.5363 76.896C84.4403 76.832 84.3283 76.768 84.2003 76.704C84.1043 76.64 83.9763 76.544 83.8163 76.416L82.6643 75.552C82.4723 75.392 82.3283 75.216 82.2323 75.024C82.1683 74.832 82.0883 74.656 81.9923 74.496C81.8323 74.24 81.7683 74 81.8003 73.776C81.8323 73.52 81.8963 73.312 81.9923 73.152C82.1843 72.832 82.4083 72.528 82.6643 72.24C82.9523 71.92 83.2083 71.584 83.4323 71.232C83.7203 70.88 83.9923 70.512 84.2483 70.128C84.5043 69.712 84.7443 69.36 84.9683 69.072C85.0963 68.944 85.2723 68.704 85.4963 68.352C85.7203 68 85.9443 67.632 86.1683 67.248C86.4243 66.832 86.6643 66.448 86.8883 66.096C87.1443 65.712 87.3523 65.424 87.5123 65.232C87.7683 64.88 88.0083 64.464 88.2323 63.984C88.4883 63.472 88.7443 63.04 89.0003 62.688C89.1283 62.464 89.3683 62.096 89.7203 61.584C90.0723 61.04 90.4243 60.48 90.7763 59.904C91.1283 59.296 91.4483 58.752 91.7363 58.272C92.0243 57.76 92.1843 57.424 92.2163 57.264C92.3123 57.328 92.3923 57.264 92.4563 57.072C92.5523 56.848 92.6483 56.592 92.7443 56.304C92.8403 56.016 92.9363 55.76 93.0323 55.536C93.1283 55.28 93.2563 55.152 93.4163 55.152C93.6723 55.152 93.8803 55.2 94.0403 55.296C94.2323 55.36 94.4083 55.392 94.5683 55.392C94.8243 55.392 95.0643 55.392 95.2883 55.392C95.5123 55.36 95.7683 55.36 96.0563 55.392L96.1523 55.584C96.1523 55.712 96.2323 55.936 96.3923 56.256C96.5843 56.544 96.7603 56.736 96.9203 56.832C97.2723 57.312 97.5283 57.888 97.6883 58.56C97.8483 59.2 98.0723 59.792 98.3603 60.336C99.0963 61.424 99.8963 62.4 100.76 63.264C101.624 64.096 102.44 65.024 103.208 66.048C103.304 66.208 103.496 66.512 103.784 66.96C104.104 67.376 104.424 67.808 104.744 68.256C105.096 68.704 105.4 69.12 105.656 69.504C105.912 69.888 106.072 70.096 106.136 70.128C107.256 71.184 107.816 72.176 107.816 73.104C107.816 73.264 107.8 73.408 107.768 73.536C107.768 73.632 107.72 73.744 107.624 73.872C107.56 74 107.432 74.144 107.24 74.304C107.08 74.464 106.84 74.688 106.52 74.976C106.072 75.424 105.464 75.536 104.696 75.312C103.96 75.088 103.272 74.64 102.632 73.968C102.568 73.904 102.52 73.744 102.488 73.488C102.456 73.232 102.408 73.072 102.344 73.008C101.8 72.4 101.288 71.808 100.808 71.232C100.36 70.656 99.8643 70.08 99.3203 69.504C98.8083 68.96 98.3443 68.4 97.9283 67.824C97.5123 67.248 97.0003 66.688 96.3923 66.144C96.2003 65.952 95.9923 65.76 95.7683 65.568C95.5443 65.376 95.3523 65.12 95.1923 64.8C95.0963 64.8 94.9043 64.976 94.6163 65.328C94.3603 65.648 94.0243 66.064 93.6083 66.576C93.2243 67.056 92.8083 67.6 92.3603 68.208C91.9443 68.784 91.5443 69.344 91.1603 69.888C90.7763 70.4 90.4403 70.848 90.1523 71.232C89.8963 71.616 89.7363 71.856 89.6723 71.952C89.4483 72.272 89.2243 72.64 89.0003 73.056C88.7763 73.472 88.5203 73.888 88.2323 74.304C87.9763 74.72 87.7043 75.12 87.4163 75.504C87.1283 75.888 86.8083 76.192 86.4563 76.416C86.2003 76.608 85.8963 76.768 85.5443 76.896C85.1923 77.024 84.8563 77.024 84.5363 76.896ZM111.368 74.064C111.368 73.808 111.368 73.504 111.368 73.152C111.4 72.8 111.432 72.464 111.464 72.144C111.496 71.824 111.512 71.552 111.512 71.328C111.544 71.104 111.56 70.976 111.56 70.944C111.56 70.656 111.56 70.304 111.56 69.888C111.592 69.472 111.608 69.088 111.608 68.736L111.704 64.656C111.704 64.304 111.72 63.92 111.752 63.504C111.816 63.088 111.848 62.72 111.848 62.4C111.848 61.92 111.832 61.264 111.8 60.432C111.768 59.6 111.752 58.928 111.752 58.416C111.752 58.096 111.752 57.776 111.752 57.456C111.752 57.136 111.72 56.848 111.656 56.592C111.656 56.528 111.64 56.368 111.608 56.112C111.576 55.856 111.56 55.696 111.56 55.632V55.536C111.56 54.8 111.752 54.368 112.136 54.24C112.52 54.112 113 54.048 113.576 54.048C113.992 54.048 114.472 54.08 115.016 54.144C115.56 54.176 116.024 54.352 116.408 54.672C116.984 55.088 117.432 55.664 117.752 56.4C118.072 57.104 118.312 57.872 118.472 58.704C118.632 59.536 118.744 60.384 118.808 61.248C118.904 62.112 119 62.88 119.096 63.552C119.16 63.936 119.16 64.416 119.096 64.992C119.032 65.568 119 66.064 119 66.48C119 67.632 119 68.8 119 69.984C119.032 71.136 119.048 72.32 119.048 73.536C119.048 74.048 118.92 74.656 118.664 75.36C118.44 76.032 118.072 76.544 117.56 76.896C116.952 77.28 116.248 77.472 115.448 77.472C115.352 77.472 115.24 77.536 115.112 77.664L114.968 77.808C114.872 77.808 114.68 77.808 114.392 77.808C114.136 77.776 113.848 77.744 113.528 77.712C113.24 77.648 112.968 77.584 112.712 77.52C112.488 77.456 112.36 77.376 112.328 77.28C112.136 76.768 111.944 76.288 111.752 75.84C111.56 75.392 111.432 74.8 111.368 74.064Z" fill="black"/>
</svg>
