<svg width="153" height="123" viewBox="0 0 153 123" fill="none" xmlns="http://www.w3.org/2000/svg">
<path d="M68.4533 41.256C68.8799 41.512 69.2853 41.7893 69.6693 42.088C70.0959 42.344 70.4586 42.6213 70.7573 42.92C70.9706 43.1333 71.0346 43.4107 70.9493 43.752C70.9066 44.0933 70.5653 44.4347 69.9253 44.776C69.6693 44.904 69.3919 45.0747 69.0933 45.288C68.8373 45.5013 68.4746 45.7573 68.0053 46.056C67.7493 46.2267 67.4719 46.312 67.1733 46.312C66.9173 46.2693 66.6826 46.2053 66.4693 46.12C66.3839 46.0773 66.0639 45.9067 65.5093 45.608C64.9546 45.3093 64.4426 45.032 63.9733 44.776C63.2479 44.4347 62.4373 44.008 61.5413 43.496C60.6453 42.984 59.8559 42.5147 59.1733 42.088C58.2773 41.5333 57.4239 41.0213 56.6133 40.552C55.8453 40.0827 54.7999 39.5067 53.4773 38.824C52.9653 38.568 52.4319 38.2693 51.8773 37.928C51.3653 37.5867 50.5546 37.1173 49.4453 36.52C49.1039 36.7333 48.6559 37.032 48.1013 37.416C47.5466 37.8 47.0346 38.1413 46.5653 38.44C45.6266 38.9947 44.8159 39.4853 44.1333 39.912C43.4506 40.296 42.8319 40.6587 42.2773 41C41.7653 41.2987 41.2533 41.5973 40.7413 41.896C40.2719 42.1947 39.7599 42.5147 39.2053 42.856L33.2533 46.376C32.5279 46.8027 31.8453 46.696 31.2053 46.056C30.9493 45.8427 30.7359 45.672 30.5653 45.544C30.3946 45.416 30.2239 45.3093 30.0533 45.224L29.0933 44.904C28.8799 44.8187 28.8159 44.648 28.9013 44.392C28.9866 44.0933 29.0719 43.88 29.1573 43.752C29.1999 43.624 29.3919 43.4107 29.7333 43.112C30.1173 42.8133 30.5226 42.4933 30.9493 42.152C31.4186 41.8107 31.8453 41.512 32.2292 41.256C32.6559 41 32.9333 40.8293 33.0613 40.744C34.7253 39.8907 36.1973 39.0373 37.4773 38.184C38.7999 37.288 40.0799 36.3707 41.3173 35.432L46.8853 31.336C46.6293 31.2933 46.1173 31.272 45.3493 31.272C44.5813 31.2293 43.7493 31.208 42.8533 31.208C41.9573 31.208 41.1253 31.2293 40.3573 31.272C39.6319 31.272 39.1839 31.272 39.0133 31.272C38.0319 31.3573 37.0719 31.4213 36.1333 31.464C35.2373 31.5067 34.4693 31.528 33.8293 31.528H31.6533C31.4826 31.3147 31.3333 31.0373 31.2053 30.696C31.1199 30.312 31.0773 29.9493 31.0773 29.608C31.0773 29.224 31.0559 28.9467 31.0133 28.776C31.0133 28.6053 30.9919 28.4987 30.9493 28.456C30.9493 28.3707 30.9279 28.328 30.8853 28.328C30.8853 28.2853 30.8853 28.2 30.8853 28.072C30.7999 27.7307 30.7573 27.4533 30.7573 27.24C30.7999 26.984 30.9919 26.7707 31.3333 26.6C31.5893 26.472 31.8879 26.408 32.2292 26.408C32.6133 26.3653 33.0399 26.344 33.5093 26.344C33.8506 26.344 34.1706 26.344 34.4693 26.344C34.8106 26.344 35.1519 26.3227 35.4933 26.28C36.3039 26.1947 37.1786 26.152 38.1173 26.152C39.0559 26.1093 39.9306 26.0667 40.7413 26.024C40.9973 26.024 41.2533 26.024 41.5093 26.024C41.7653 25.9813 41.9999 25.96 42.2133 25.96L45.8613 25.704C46.5866 25.6187 47.3119 25.576 48.0373 25.576C48.7626 25.5333 49.4879 25.4907 50.2133 25.448H51.0453C52.4106 25.448 53.8399 25.4693 55.3333 25.512C56.8266 25.5547 58.2346 25.6827 59.5573 25.896C60.0266 25.9387 60.5813 25.9813 61.2213 26.024C61.9039 26.0667 62.6079 26.1307 63.3333 26.216C64.0586 26.2587 64.7626 26.3227 65.4453 26.408C66.1279 26.4507 66.7039 26.4933 67.1733 26.536C67.5999 26.6213 67.8346 26.92 67.8773 27.432C67.9626 27.9013 67.9839 28.4773 67.9413 29.16V30.12C67.9413 30.4613 67.6213 30.6747 66.9813 30.76C66.3413 30.8453 65.7866 30.9093 65.3173 30.952C64.4639 31.08 63.5039 31.1653 62.4373 31.208C61.4133 31.208 60.5173 31.208 59.7493 31.208L50.9813 31.272L55.5893 34.088C56.3999 34.6 57.1893 35.0907 57.9573 35.56C58.7679 35.9867 59.6426 36.456 60.5813 36.968C62.0746 37.7787 63.4613 38.5253 64.7413 39.208C66.0213 39.848 67.2586 40.5307 68.4533 41.256ZM52.1973 42.984C52.7093 43.1973 53.0506 43.7307 53.2213 44.584C53.4346 45.4373 53.5413 46.1627 53.5413 46.76C53.5413 47.016 53.5413 47.3573 53.5413 47.784C53.5413 48.2107 53.5413 48.6587 53.5413 49.128C53.5839 49.5973 53.6266 50.0453 53.6693 50.472C53.7546 50.856 53.8399 51.1333 53.9253 51.304C54.5226 51.304 55.2693 51.304 56.1653 51.304C57.0613 51.2613 57.8293 51.24 58.4693 51.24C59.0239 51.24 59.5573 51.24 60.0693 51.24C60.6239 51.1973 61.1786 51.176 61.7333 51.176C62.7999 51.176 63.8453 51.1973 64.8693 51.24C65.9359 51.2827 66.9173 51.3467 67.8133 51.432C68.6239 51.5173 69.3919 51.6027 70.1173 51.688C70.8853 51.7733 71.6319 51.9227 72.3573 52.136C72.6559 52.2213 72.8266 52.4347 72.8693 52.776C72.9546 53.1173 72.9973 53.4587 72.9973 53.8C72.9973 54.0987 72.9759 54.44 72.9333 54.824C72.9333 55.1653 72.8479 55.5067 72.6773 55.848C72.4639 56.232 72.2506 56.552 72.0373 56.808C71.8666 57.0213 71.5893 57.192 71.2053 57.32C70.8639 57.448 70.3733 57.5333 69.7333 57.576C69.0933 57.576 68.2399 57.576 67.1733 57.576C66.0639 57.576 64.9759 57.576 63.9093 57.576C62.8426 57.576 61.7546 57.5547 60.6453 57.512C59.5359 57.512 58.4266 57.512 57.3173 57.512C56.2506 57.4693 55.1839 57.448 54.1173 57.448H47.2693C46.2453 57.4907 45.1573 57.512 44.0053 57.512C42.8533 57.512 41.6799 57.512 40.4853 57.512C39.2906 57.512 38.1173 57.512 36.9653 57.512C35.8133 57.512 34.7253 57.4907 33.7013 57.448C33.4026 57.448 32.9759 57.448 32.4213 57.448C31.9093 57.4053 31.3546 57.3627 30.7573 57.32C30.2026 57.2347 29.6693 57.1493 29.1573 57.064C28.6879 56.936 28.3893 56.7653 28.2613 56.552C27.7919 55.912 27.4079 55.272 27.1093 54.632C26.8106 53.992 26.5759 53.288 26.4053 52.52C26.3199 52.136 26.5546 51.7947 27.1093 51.496C27.7066 51.1973 28.3039 51.0907 28.9013 51.176L30.6933 51.496C31.2906 51.624 31.9733 51.7093 32.7413 51.752C33.5519 51.752 34.3839 51.752 35.2373 51.752C36.0906 51.7093 36.9439 51.688 37.7973 51.688C38.6933 51.6453 39.5253 51.624 40.2933 51.624C41.0186 51.624 41.8719 51.624 42.8533 51.624C43.8773 51.5813 44.9653 51.5173 46.1173 51.432L46.3733 47.848C46.3733 47.5493 46.3733 47.1653 46.3733 46.696C46.4159 46.2267 46.4373 45.7573 46.4373 45.288C46.4799 44.776 46.5439 44.328 46.6293 43.944C46.7573 43.5173 46.9279 43.1973 47.1413 42.984C47.3973 42.7707 47.7173 42.6427 48.1013 42.6C48.5279 42.5147 48.9119 42.472 49.2533 42.472C49.9359 42.472 50.4479 42.4933 50.7893 42.536C51.1306 42.5787 51.5999 42.728 52.1973 42.984ZM67.4933 65.512C68.0053 66.7067 68.3679 68.1787 68.5813 69.928C68.7946 71.6773 68.9013 73.2987 68.9013 74.792C68.9013 75.9867 68.8586 77.032 68.7733 77.928C68.6879 78.8667 68.4959 79.6987 68.1973 80.424C67.9413 81.064 67.4933 81.384 66.8533 81.384C66.2133 81.4267 65.6159 81.448 65.0613 81.448C64.4639 81.448 63.9733 81.448 63.5893 81.448C63.2053 81.4907 62.9066 81.384 62.6933 81.128C62.5226 80.9147 62.4586 80.6373 62.5013 80.296C62.5866 79.9547 62.7146 79.5493 62.8853 79.08C63.0133 78.6107 63.0773 78.1413 63.0773 77.672C63.1199 77.2027 63.1413 76.7333 63.1413 76.264C63.1413 75.2827 63.0559 74.1733 62.8853 72.936C62.7146 71.656 62.4586 70.4613 62.1173 69.352C61.6479 69.1813 61.0079 69.032 60.1973 68.904C59.4293 68.776 58.6186 68.6907 57.7653 68.648C56.9119 68.6053 56.1013 68.584 55.3333 68.584C54.6079 68.584 54.0746 68.584 53.7333 68.584C52.3253 68.6267 50.9386 68.648 49.5733 68.648C48.2079 68.648 46.8426 68.7547 45.4773 68.968C44.7519 69.0533 44.0479 69.2027 43.3653 69.416C42.6826 69.5867 42.0213 69.736 41.3813 69.864C40.9546 69.9493 40.5279 69.992 40.1013 69.992C39.7173 69.9493 39.3119 69.928 38.8853 69.928C38.4586 70.0133 38.0533 70.12 37.6693 70.248C37.2853 70.376 36.9013 70.504 36.5173 70.632C35.8773 70.8453 35.2159 71.08 34.5333 71.336C33.8933 71.5493 33.3386 71.4853 32.8693 71.144C32.2719 70.7173 31.9093 70.2053 31.7812 69.608C31.6533 69.0107 31.5893 68.3493 31.5893 67.624C31.5893 67.0267 31.6746 66.5787 31.8453 66.28C32.0586 65.9387 32.2506 65.5333 32.4213 65.064C33.0186 65.2347 33.6799 65.256 34.4053 65.128C35.1306 65 35.7706 64.8507 36.3253 64.68C36.6666 64.5947 37.0293 64.5093 37.4133 64.424C37.7973 64.3387 38.1813 64.2747 38.5653 64.232C39.5466 64.0613 40.5066 63.9547 41.4453 63.912C42.3839 63.8267 43.3013 63.7627 44.1973 63.72C45.0933 63.6773 46.0106 63.6347 46.9493 63.592C47.8879 63.5493 48.7839 63.464 49.6373 63.336C50.1493 63.2507 50.7253 63.208 51.3653 63.208C52.0479 63.1653 52.7306 63.144 53.4133 63.144C54.6079 63.144 55.8239 63.1867 57.0613 63.272C58.3413 63.3573 59.4079 63.464 60.2613 63.592L65.1253 64.36C65.6373 64.4453 66.1279 64.5733 66.5973 64.744C67.0666 64.9147 67.3653 65.1707 67.4933 65.512Z" fill="black"/>
<path d="M94.8139 86.784L95.3419 88.56C95.4379 88.88 95.5659 89.264 95.7259 89.712C95.9179 90.128 96.1259 90.448 96.3499 90.672C96.7979 91.152 97.3419 91.44 97.9819 91.536C98.6539 91.664 99.2779 91.728 99.8539 91.728C100.942 91.728 102.19 91.712 103.598 91.68C105.006 91.68 106.846 91.648 109.118 91.584C109.79 91.552 110.334 91.504 110.75 91.44C111.166 91.408 111.55 91.36 111.902 91.296C112.222 91.232 112.558 91.168 112.91 91.104C113.262 91.04 113.646 91.008 114.062 91.008C114.35 91.008 114.606 90.992 114.83 90.96C115.054 90.96 115.278 90.96 115.502 90.96C115.886 90.96 116.222 90.976 116.51 91.008C116.83 91.04 117.134 91.088 117.422 91.152C117.71 91.248 118.014 91.36 118.334 91.488C118.654 91.616 119.022 91.776 119.438 91.968C119.438 92.896 119.31 93.552 119.054 93.936C118.83 94.352 118.302 94.608 117.47 94.704C117.118 94.736 116.814 94.768 116.558 94.8C116.302 94.832 116.046 94.864 115.79 94.896C115.246 94.96 114.718 94.992 114.206 94.992C113.726 95.024 113.102 95.072 112.334 95.136C110.99 95.232 109.534 95.296 107.966 95.328C106.43 95.36 105.022 95.392 103.742 95.424C102.622 95.424 101.662 95.376 100.862 95.28C100.062 95.184 99.2939 95.104 98.5579 95.04C97.8219 94.976 97.0859 94.88 96.3499 94.752C95.6459 94.656 95.0059 94.416 94.4299 94.032C94.0139 93.744 93.6299 93.376 93.2779 92.928C92.9259 92.48 92.6699 92.032 92.5099 91.584C92.1579 90.56 91.7899 89.648 91.4059 88.848C91.0219 88.016 90.7339 87.136 90.5419 86.208C90.4779 85.952 90.4459 85.664 90.4459 85.344C90.4459 84.992 90.4779 84.656 90.5419 84.336C90.6059 84.016 90.6859 83.76 90.7819 83.568C90.9099 83.344 91.0539 83.232 91.2139 83.232C91.4059 83.264 91.6139 83.312 91.8379 83.376C92.0939 83.44 92.3659 83.504 92.6539 83.568C92.9099 83.632 93.1659 83.712 93.4219 83.808C93.6779 83.872 93.9979 83.904 94.3819 83.904H101.822C103.198 83.872 104.414 83.856 105.47 83.856C106.558 83.824 107.726 83.808 108.974 83.808C109.39 83.808 109.79 83.744 110.174 83.616C110.59 83.488 110.83 83.168 110.894 82.656C110.894 82.592 110.894 82.368 110.894 81.984C110.926 81.568 110.942 81.232 110.942 80.976C110.942 80.56 110.766 80.304 110.414 80.208C110.062 80.112 109.23 80.096 107.918 80.16C107.438 80.192 106.878 80.208 106.238 80.208C105.63 80.176 104.878 80.16 103.982 80.16C103.342 80.16 102.654 80.16 101.918 80.16C101.182 80.128 100.51 80.112 99.9019 80.112C99.1339 80.112 98.4139 80.128 97.7419 80.16C97.1019 80.16 96.5739 80.192 96.1579 80.256C95.6459 80.32 95.2139 80.112 94.8619 79.632C94.5419 79.152 94.2219 78.72 93.9019 78.336C93.7739 78.208 93.7579 78.08 93.8539 77.952C93.9819 77.824 94.1739 77.744 94.4299 77.712C95.1659 77.584 95.9019 77.504 96.6379 77.472C97.3739 77.408 98.1259 77.344 98.8939 77.28C99.2139 77.28 99.6299 77.28 100.142 77.28C100.686 77.28 101.278 77.296 101.918 77.328C102.59 77.36 103.278 77.392 103.982 77.424C104.686 77.424 105.374 77.44 106.046 77.472C107.134 77.536 108.238 77.584 109.358 77.616C110.478 77.616 111.31 77.616 111.854 77.616C112.046 77.616 112.27 77.664 112.526 77.76C112.814 77.824 113.086 77.904 113.342 78C114.238 78.224 114.686 78.784 114.686 79.68L114.734 84.96C114.734 85.312 114.526 85.632 114.11 85.92C113.726 86.208 113.278 86.4 112.766 86.496C112.19 86.592 111.614 86.656 111.038 86.688C110.494 86.688 109.95 86.688 109.406 86.688C108.99 86.688 108.574 86.688 108.158 86.688C107.774 86.688 107.374 86.704 106.958 86.736C106.222 86.8 105.47 86.848 104.702 86.88C103.966 86.88 103.31 86.88 102.734 86.88C102.382 86.88 102.046 86.88 101.726 86.88C101.406 86.848 101.07 86.832 100.718 86.832C100.142 86.832 99.5499 86.832 98.9419 86.832C98.3339 86.8 97.6779 86.784 96.9739 86.784H94.8139ZM92.6539 59.904C93.0379 60.096 93.3419 60.24 93.5659 60.336C93.7899 60.4 94.1259 60.416 94.5739 60.384L95.9179 60.24C96.0139 60.24 96.1579 60.24 96.3499 60.24C96.5739 60.208 96.7819 60.176 96.9739 60.144C97.1979 60.112 97.4539 60.096 97.7419 60.096C97.9339 60.096 98.1899 60.112 98.5099 60.144C98.8299 60.176 99.1339 60.224 99.4219 60.288C99.4539 59.712 99.4699 59.104 99.4699 58.464C99.5019 57.792 99.5179 57.088 99.5179 56.352C99.5179 56.096 99.5499 55.872 99.6139 55.68C99.6779 55.456 99.7419 55.232 99.8059 55.008C99.9339 54.688 100.126 54.496 100.382 54.432C100.638 54.336 100.942 54.288 101.294 54.288C101.646 54.288 101.934 54.32 102.158 54.384C102.414 54.416 102.574 54.464 102.638 54.528C103.054 54.816 103.358 55.136 103.55 55.488C103.742 55.84 103.87 56.176 103.934 56.496C104.03 56.816 104.078 57.104 104.078 57.36C104.078 57.616 104.078 57.808 104.078 57.936C104.078 58.288 104.062 58.688 104.03 59.136C103.998 59.584 103.95 60 103.886 60.384L103.694 61.824C103.598 62.24 103.534 62.72 103.502 63.264C103.502 63.808 103.486 64.288 103.454 64.704C103.39 65.28 103.342 65.856 103.31 66.432C103.31 66.976 103.23 67.504 103.07 68.016L102.878 70.512L102.302 71.856C102.11 72.112 101.822 72.304 101.438 72.432C101.086 72.56 100.782 72.656 100.526 72.72C99.9179 72.944 99.2139 73.104 98.4139 73.2C97.6459 73.264 96.8779 73.328 96.1099 73.392L94.4779 73.488C93.8379 73.584 93.2299 73.648 92.6539 73.68C92.0779 73.68 91.4859 73.68 90.8779 73.68C90.4939 73.68 90.0619 73.696 89.5819 73.728C89.1339 73.728 88.7019 73.744 88.2859 73.776C87.6459 73.744 87.0219 73.584 86.4139 73.296C85.8059 72.976 85.3739 72.576 85.1179 72.096C84.9899 71.84 84.8939 71.552 84.8299 71.232C84.7659 70.912 84.7179 70.624 84.6859 70.368C84.5899 69.44 84.5259 68.512 84.4939 67.584C84.4939 66.624 84.4939 65.664 84.4939 64.704C84.4939 64.064 84.4779 63.424 84.4459 62.784C84.4459 62.144 84.4299 61.52 84.3979 60.912C84.3659 60.496 84.3339 60.048 84.3019 59.568C84.3019 59.088 84.3019 58.656 84.3019 58.272C84.3019 58.08 84.3179 57.776 84.3499 57.36C84.3819 56.944 84.4299 56.512 84.4939 56.064C84.5579 55.616 84.6379 55.216 84.7339 54.864C84.8299 54.512 84.9579 54.288 85.1179 54.192C85.2459 54.128 85.4379 54.096 85.6939 54.096C85.9499 54.064 86.2219 54.064 86.5099 54.096C86.7979 54.128 87.0539 54.176 87.2779 54.24C87.5019 54.272 87.6299 54.336 87.6619 54.432L87.9499 54.912C88.0139 55.072 88.0779 55.28 88.1419 55.536C88.2379 55.76 88.2859 55.952 88.2859 56.112C88.3179 56.656 88.3179 57.248 88.2859 57.888C88.2859 58.496 88.2379 59.056 88.1419 59.568C88.0779 60.016 88.0299 60.48 87.9979 60.96C87.9659 61.44 87.9499 61.92 87.9499 62.4C87.9499 62.752 87.9499 63.152 87.9499 63.6C87.9819 64.048 88.0139 64.464 88.0459 64.848C88.0459 64.912 88.0459 64.96 88.0459 64.992C88.0459 65.024 88.0459 65.12 88.0459 65.28C88.0779 65.408 88.0939 65.616 88.0939 65.904C88.0939 66.16 88.0939 66.544 88.0939 67.056C88.0939 67.664 88.1739 68.256 88.3339 68.832C88.4299 69.184 88.5739 69.472 88.7659 69.696C88.9899 69.92 89.3579 70.112 89.8699 70.272C90.1899 70.368 90.5419 70.432 90.9259 70.464C91.3419 70.496 91.6939 70.496 91.9819 70.464C92.1099 70.464 92.2219 70.464 92.3179 70.464C92.4459 70.432 92.5739 70.416 92.7019 70.416C93.0539 70.416 93.3579 70.416 93.6139 70.416C93.9019 70.384 94.1739 70.352 94.4299 70.32C94.6859 70.288 94.9579 70.272 95.2459 70.272C95.5339 70.24 95.8699 70.224 96.2539 70.224C96.9899 70.224 97.5499 70.128 97.9339 69.936C98.3179 69.744 98.5419 69.264 98.6059 68.496C98.7019 67.536 98.7819 66.576 98.8459 65.616C98.9099 64.656 99.0059 63.712 99.1339 62.784L97.5979 63.792C97.2459 64.048 96.7659 64.256 96.1579 64.416C95.5499 64.576 95.0699 64.656 94.7179 64.656C94.3979 64.656 93.9819 64.544 93.4699 64.32C92.9259 64.064 92.3819 63.776 91.8379 63.456C91.3259 63.104 90.7979 62.736 90.2539 62.352C90.0619 62.224 89.9339 62.16 89.8699 62.16C90.3819 61.872 90.7339 61.376 90.9259 60.672C90.9259 60.64 90.9739 60.624 91.0699 60.624C91.2619 60.592 91.4539 60.544 91.6459 60.48C91.8699 60.384 92.0619 60.224 92.2219 60C92.3179 59.904 92.4619 59.872 92.6539 59.904ZM116.558 62.208C116.814 62.176 117.182 62.144 117.662 62.112C118.174 62.048 118.558 61.968 118.814 61.872C119.166 61.744 119.486 61.664 119.774 61.632C120.094 61.6 120.462 61.712 120.878 61.968C121.326 62.256 121.822 62.544 122.366 62.832C122.942 63.088 123.39 63.36 123.71 63.648C123.998 63.904 124.11 64.208 124.046 64.56C123.982 64.88 123.854 65.168 123.662 65.424C123.47 65.68 123.246 65.888 122.99 66.048C122.734 66.176 122.494 66.24 122.27 66.24C122.014 66.272 121.742 66.288 121.454 66.288C121.198 66.288 120.878 66.224 120.494 66.096H120.542C120.286 66 120.014 65.92 119.726 65.856C119.47 65.76 119.182 65.632 118.862 65.472C118.542 65.28 118.19 65.04 117.806 64.752C117.422 64.464 116.99 64.064 116.51 63.552C116.51 63.872 116.494 64.32 116.462 64.896C116.43 65.44 116.398 65.904 116.366 66.288C116.302 66.64 116.254 67.024 116.222 67.44C116.19 67.856 116.174 68.256 116.174 68.64C116.11 69.184 116.094 69.824 116.126 70.56C116.158 71.264 116.19 71.792 116.222 72.144C116.286 72.592 116.286 72.976 116.222 73.296C116.19 73.584 116.126 73.904 116.03 74.256L115.166 73.968L114.542 74.448H112.766C112.35 74.448 111.902 74.288 111.422 73.968C110.974 73.648 110.718 73.264 110.654 72.816C110.558 71.856 110.51 71.04 110.51 70.368C110.51 70.112 110.51 69.744 110.51 69.264C110.51 68.752 110.526 68.304 110.558 67.92L110.894 62.208L111.038 59.808C111.038 59.648 111.054 59.488 111.086 59.328C111.118 59.168 111.15 59.008 111.182 58.848C111.246 58.656 111.278 58.4 111.278 58.08C111.31 57.76 111.342 57.472 111.374 57.216L111.614 54.384C111.614 54.288 111.806 54.208 112.19 54.144C112.574 54.048 112.846 53.856 113.006 53.568H114.11C114.494 53.568 114.846 53.6 115.166 53.664C115.486 53.728 115.758 53.888 115.982 54.144C116.142 54.592 116.254 55.088 116.318 55.632C116.414 56.144 116.478 56.656 116.51 57.168C116.51 57.264 116.51 57.392 116.51 57.552C116.542 57.68 116.558 57.792 116.558 57.888C116.622 58.176 116.638 58.608 116.606 59.184C116.606 59.728 116.606 60.208 116.606 60.624V61.632L116.558 62.208Z" fill="black"/>
</svg>
