<svg width="153" height="123" viewBox="0 0 153 123" fill="none" xmlns="http://www.w3.org/2000/svg">
<path d="M61.9883 41.128L61.8603 35.112L61.7323 32.552C61.6043 32.3813 61.5403 32.1253 61.5403 31.784C61.5403 31.4427 61.5829 31.1653 61.6683 30.952C61.7963 30.568 62.0096 30.3547 62.3083 30.312C62.6069 30.2267 62.9269 30.248 63.2683 30.376C63.4389 30.4613 63.8443 30.5253 64.4843 30.568C65.1243 30.568 65.7856 30.5893 66.4683 30.632C67.1936 30.632 67.8549 30.6533 68.4523 30.696C69.0923 30.7387 69.4763 30.8453 69.6043 31.016C70.3296 31.8693 70.8203 32.7653 71.0763 33.704C71.3323 34.6 71.5029 35.624 71.5883 36.776C71.6309 37.672 71.6949 38.504 71.7803 39.272C71.9083 40.04 72.0149 40.808 72.1003 41.576C72.2283 42.3013 72.3349 43.048 72.4203 43.816C72.5056 44.584 72.5696 45.416 72.6123 46.312C72.6549 47.1653 72.6763 47.9547 72.6763 48.68C72.7189 49.4053 72.7403 50.1093 72.7403 50.792C72.7403 51.432 72.7403 52.1147 72.7403 52.84C72.7403 53.5653 72.7403 54.3547 72.7403 55.208C72.7829 56.4453 72.7829 57.576 72.7403 58.6C72.7403 59.5813 72.7403 60.6907 72.7403 61.928C72.6976 63.2933 72.6123 64.6373 72.4843 65.96C72.3563 67.2827 72.1856 68.6267 71.9723 69.992C71.9296 70.248 71.8229 70.5253 71.6523 70.824C71.5243 71.08 71.4176 71.3147 71.3323 71.528C70.9056 71.7413 70.3083 71.8267 69.5403 71.784C68.8149 71.6987 68.0469 71.592 67.2363 71.464C66.4256 71.2933 65.6363 71.144 64.8683 71.016C64.1003 70.8453 63.5029 70.7813 63.0763 70.824C62.1803 69.5013 61.7109 68.2213 61.6683 66.984C61.6256 65.704 61.6469 64.3173 61.7323 62.824L62.0523 52.328C61.5403 52.3707 61.0709 52.4133 60.6443 52.456C60.2603 52.456 59.8763 52.456 59.4923 52.456C59.1509 52.456 58.7883 52.456 58.4043 52.456C58.0203 52.456 57.5723 52.4347 57.0603 52.392C56.3349 52.3493 55.8229 52.1787 55.5243 51.88C55.2256 51.5387 54.9056 51.112 54.5643 50.6C54.2229 50.1307 53.9456 49.6187 53.7323 49.064C53.5616 48.5093 53.3483 47.976 53.0923 47.464C52.7509 46.7387 52.6869 46.12 52.9003 45.608C53.1563 45.0533 53.6896 44.7333 54.5003 44.648C55.5243 44.5627 56.6549 44.5627 57.8923 44.648C59.1296 44.7333 60.4949 44.7973 61.9883 44.84V41.128ZM39.3963 44.904C39.6949 44.8613 39.9083 44.84 40.0363 44.84C40.2069 44.7973 40.3563 44.7547 40.4843 44.712C40.6549 44.6693 40.8043 44.648 40.9323 44.648C41.1029 44.6053 41.3376 44.584 41.6363 44.584C41.9776 44.584 42.3189 44.6267 42.6603 44.712C43.0443 44.7547 43.4069 44.84 43.7483 44.968C43.7909 44.6267 43.8123 44.3067 43.8123 44.008C43.8123 43.7093 43.8123 43.4107 43.8123 43.112C43.8123 42.088 43.8336 41.1493 43.8763 40.296C43.9189 39.4 43.9403 38.3973 43.9403 37.288C43.9403 36.8187 43.9616 36.3493 44.0043 35.88C44.0896 35.368 44.3029 34.984 44.6443 34.728C44.8149 34.5573 45.1563 34.3653 45.6683 34.152C46.1803 33.896 46.7136 33.6827 47.2683 33.512C47.8656 33.3413 48.3989 33.2133 48.8683 33.128C49.3376 33.0427 49.6363 33.0853 49.7643 33.256C49.9776 33.5973 50.2549 33.896 50.5963 34.152C50.9376 34.3653 51.2149 34.8347 51.4283 35.56C51.8549 37.0107 52.0683 38.504 52.0683 40.04C52.0683 41.576 51.9616 43.048 51.7483 44.456C51.6629 45.1813 51.5349 46.4613 51.3643 48.296C51.1936 50.088 50.9589 52.008 50.6603 54.056C50.3616 56.0613 49.9989 58.0027 49.5723 59.88C49.1456 61.7573 48.6549 63.1227 48.1003 63.976C47.7589 64.4453 47.2896 64.808 46.6923 65.064C46.0949 65.32 45.5829 65.512 45.1563 65.64C44.5589 65.8533 44.0469 66.024 43.6203 66.152C43.1936 66.2373 42.7669 66.3227 42.3403 66.408C41.9563 66.4507 41.5296 66.4933 41.0603 66.536C40.5909 66.5787 40.0149 66.6213 39.3323 66.664C37.9669 66.8773 36.5376 66.984 35.0443 66.984C33.5509 66.9413 32.0789 66.9627 30.6283 67.048C29.4336 67.0907 28.4523 66.8773 27.6843 66.408C26.9163 65.896 26.2976 65.2133 25.8283 64.36C25.6149 63.9333 25.4656 63.4853 25.3802 63.016C25.2949 62.5467 25.2309 62.12 25.1883 61.736C25.0603 60.712 24.9749 59.432 24.9323 57.896C24.8896 56.3173 24.8683 54.696 24.8683 53.032C24.8683 51.368 24.8469 49.768 24.8043 48.232C24.8043 46.696 24.7829 45.4373 24.7403 44.456C24.6549 43.048 24.6123 41.5547 24.6123 39.976C24.6549 38.3973 24.9109 36.968 25.3802 35.688C25.4656 35.304 25.5723 35.0267 25.7003 34.856C25.8283 34.6427 26.1269 34.4507 26.5963 34.28C26.8096 34.1947 27.1723 34.152 27.6843 34.152C28.2389 34.152 28.7936 34.1947 29.3483 34.28C29.9456 34.3227 30.4789 34.4293 30.9483 34.6C31.4603 34.728 31.7589 34.8773 31.8443 35.048C32.0576 35.4747 32.2496 35.9013 32.4203 36.328C32.5909 36.7547 32.6763 37.1813 32.6763 37.608C32.7189 38.3333 32.7189 39.1867 32.6763 40.168C32.6763 41.1067 32.6336 41.9387 32.5483 42.664C32.3349 43.944 32.2496 45.224 32.2923 46.504C32.3349 47.7413 32.3989 49.0213 32.4843 50.344V56.872C32.4843 57 32.5056 57.3413 32.5483 57.896C32.5909 58.408 32.6336 58.7493 32.6763 58.92C32.7616 59.304 32.8469 59.5813 32.9323 59.752C33.0603 59.9227 33.4869 60.136 34.2123 60.392C34.8096 60.6053 35.3216 60.6907 35.7483 60.648C36.1749 60.6053 36.6869 60.584 37.2843 60.584L40.3563 60.52C40.9963 60.52 41.4443 60.392 41.7003 60.136C41.9563 59.88 42.1696 59.3893 42.3403 58.664C42.5536 57.9813 42.7456 56.936 42.9163 55.528C43.0869 54.0773 43.2576 52.3707 43.4283 50.408C43.0016 50.8347 42.3829 51.176 41.5723 51.432C40.7616 51.688 39.9509 51.816 39.1403 51.816C38.3296 51.816 37.6256 51.7093 37.0283 51.496C36.6016 51.368 36.2603 51.24 36.0043 51.112C35.7909 50.984 35.5776 50.856 35.3643 50.728C35.1509 50.5573 34.9376 50.3867 34.7243 50.216C34.5109 50.0453 34.2336 49.832 33.8923 49.576C33.5509 49.2773 33.2523 48.9787 32.9963 48.68C32.7829 48.3813 32.9109 48.104 33.3803 47.848C33.6789 47.6773 33.8496 47.4427 33.8923 47.144C33.9776 46.8453 34.0629 46.504 34.1483 46.12C34.2336 45.6507 34.4469 45.352 34.7883 45.224C35.1723 45.096 35.5989 44.9893 36.0683 44.904C36.5803 44.8187 37.0923 44.8187 37.6042 44.904C38.1589 44.9893 38.7563 44.9893 39.3963 44.904Z" fill="black"/>
<path d="M111.176 67.2L111.032 62.016L110.936 60.096C110.84 59.968 110.792 59.792 110.792 59.568C110.792 59.312 110.824 59.088 110.888 58.896C111.112 58.416 111.528 58.288 112.136 58.512C112.264 58.576 112.552 58.624 113 58.656C113.48 58.656 113.976 58.656 114.488 58.656C115.032 58.656 115.512 58.688 115.928 58.752C116.376 58.784 116.648 58.848 116.744 58.944C117.288 59.584 117.656 60.256 117.848 60.96C118.072 61.664 118.216 62.448 118.28 63.312C118.312 63.984 118.36 64.608 118.424 65.184C118.488 65.76 118.552 66.32 118.616 66.864C118.712 67.408 118.776 67.984 118.808 68.592C118.872 69.168 118.936 69.792 119 70.464C119.064 71.744 119.048 73.024 118.952 74.304C118.888 75.552 118.872 76.816 118.904 78.096C118.904 78.544 118.92 78.928 118.952 79.248C119.016 79.536 119.064 79.824 119.096 80.112C119.16 80.4 119.208 80.704 119.24 81.024C119.272 81.312 119.288 81.68 119.288 82.128C119.256 83.152 119.176 84.16 119.048 85.152C118.952 86.144 118.84 87.152 118.712 88.176C118.68 88.4 118.6 88.608 118.472 88.8C118.376 88.992 118.296 89.168 118.232 89.328C117.912 89.488 117.48 89.504 116.936 89.376C116.392 89.216 115.832 89.056 115.256 88.896C114.68 88.704 114.12 88.576 113.576 88.512C113.064 88.448 112.648 88.56 112.328 88.848C111.656 87.824 111.272 86.768 111.176 85.68C111.08 84.592 111.064 83.488 111.128 82.368C111.16 81.536 111.176 80.848 111.176 80.304C111.208 79.728 111.24 79.184 111.272 78.672C111.304 78.16 111.32 77.632 111.32 77.088C111.352 76.544 111.368 75.856 111.368 75.024C110.344 75.216 109.416 75.28 108.584 75.216C107.784 75.152 107.016 75.088 106.28 75.024C105.736 74.992 105.336 74.832 105.08 74.544C104.856 74.224 104.616 73.888 104.36 73.536C104.104 73.184 103.864 72.72 103.64 72.144C103.416 71.568 103.224 71.088 103.064 70.704C102.808 70.16 102.76 69.696 102.92 69.312C103.08 68.928 103.48 68.688 104.12 68.592C104.792 68.464 105.368 68.352 105.848 68.256C106.36 68.128 106.84 68.064 107.288 68.064C107.736 68.032 108.216 68.064 108.728 68.16C109.272 68.224 109.912 68.4 110.648 68.688H111.176V67.2ZM100.088 62.16C99.8321 62.704 99.6881 63.296 99.6561 63.936C99.6241 64.576 99.4961 65.152 99.2721 65.664C99.7201 66.272 99.9121 66.976 99.8481 67.776C99.7841 68.544 99.7841 69.328 99.8481 70.128C99.9761 71.568 100.04 73.008 100.04 74.448C100.072 75.888 100.12 77.328 100.184 78.768C100.184 79.44 100.152 80.032 100.088 80.544C100.056 81.056 99.9921 81.552 99.8961 82.032C99.8001 82.512 99.6721 83.008 99.5121 83.52C99.3841 84 99.2401 84.576 99.0801 85.248C98.9841 85.504 98.8721 85.76 98.7441 86.016C98.6161 86.272 98.5041 86.576 98.4081 86.928C98.2161 86.832 98.0241 86.752 97.8321 86.688C97.6721 86.624 97.5121 86.528 97.3521 86.4C97.2561 86.464 97.1121 86.544 96.9201 86.64C96.7281 86.704 96.5201 86.784 96.2961 86.88C96.0721 86.944 95.8481 87.04 95.6241 87.168C95.4001 87.264 95.2241 87.376 95.0961 87.504C94.3601 86.928 93.8641 86.592 93.6081 86.496C93.3841 86.368 93.1921 86.304 93.0321 86.304C92.8721 86.08 92.6801 85.792 92.4561 85.44C92.2641 85.088 92.0721 84.736 91.8801 84.384C91.6881 84 91.5281 83.632 91.4001 83.28C91.3041 82.928 91.2721 82.624 91.3041 82.368C91.5281 81.344 91.7201 80.4 91.8801 79.536C92.0401 78.64 92.1681 77.76 92.2641 76.896C92.3921 76.032 92.4881 75.152 92.5521 74.256C92.6481 73.328 92.7281 72.32 92.7921 71.232C92.8241 70.56 92.9041 69.872 93.0321 69.168C93.1921 68.432 93.3361 67.696 93.4641 66.96L93.6081 65.712C92.8081 65.616 91.9921 65.632 91.1601 65.76C90.3601 65.888 89.5601 65.952 88.7601 65.952C88.2161 65.952 87.8481 65.936 87.6561 65.904C87.4641 65.872 87.3041 65.84 87.1761 65.808C87.0801 65.776 86.9201 65.744 86.6961 65.712C86.5041 65.648 86.1361 65.616 85.5921 65.616C85.3361 65.616 85.0641 65.52 84.7761 65.328C84.5201 65.104 84.2641 64.848 84.0081 64.56C83.7521 64.272 83.5281 63.968 83.3361 63.648C83.1441 63.328 83.0161 63.056 82.9521 62.832C82.7281 62.288 82.8081 61.76 83.1921 61.248C83.5761 60.736 84.1201 60.48 84.8241 60.48C85.6241 60.48 86.3761 60.448 87.0801 60.384C87.7841 60.288 88.4721 60.224 89.1441 60.192C89.8161 60.16 90.5041 60.176 91.2081 60.24C91.9121 60.272 92.6481 60.4 93.4161 60.624C93.6721 60.688 93.9761 60.752 94.3281 60.816C94.7121 60.88 95.0961 60.944 95.4801 61.008C95.8641 61.04 96.2321 61.056 96.5841 61.056C96.9681 61.024 97.3041 60.976 97.5921 60.912C97.8481 60.848 98.0721 60.848 98.2641 60.912C98.4881 60.976 98.6961 61.088 98.8881 61.248C99.0801 61.376 99.2721 61.536 99.4641 61.728C99.6561 61.888 99.8641 62.032 100.088 62.16Z" fill="black"/>
</svg>
