<svg width="153" height="123" viewBox="0 0 153 123" fill="none" xmlns="http://www.w3.org/2000/svg">
<path d="M49.901 82.152C48.2797 82.024 46.701 81.704 45.165 81.192C43.6717 80.7227 42.4343 79.8053 41.453 78.44C40.5997 77.0747 40.0877 75.6667 39.917 74.216C39.789 72.808 40.1303 71.3787 40.941 69.928C41.4103 69.2453 41.8157 68.6053 42.157 68.008C42.4983 67.4107 42.925 66.8133 43.437 66.216C43.821 65.7893 44.269 65.448 44.781 65.192C45.293 64.8933 45.8477 64.6587 46.445 64.488C46.3597 64.232 46.2743 63.9333 46.189 63.592C46.1463 63.208 46.1037 62.8453 46.061 62.504C46.0183 62.12 45.9757 61.8 45.933 61.544C45.8903 61.2453 45.869 61.0533 45.869 60.968L45.613 58.152C44.9303 58.152 44.1623 58.1733 43.309 58.216C42.4557 58.2587 41.581 58.3227 40.685 58.408C39.789 58.4933 38.893 58.5787 37.997 58.664C37.1437 58.7493 36.397 58.8347 35.757 58.92C35.2877 59.0053 34.6477 59.048 33.837 59.048C33.0263 59.048 32.429 59.048 32.045 59.048H29.293C29.0797 59.048 28.8663 58.9413 28.653 58.728C28.4823 58.472 28.2903 58.1947 28.077 57.896C27.9063 57.5973 27.7357 57.2987 27.565 57C27.3943 56.7013 27.2237 56.488 27.053 56.36C26.7543 56.1467 26.3703 55.8907 25.901 55.592C25.4743 55.2933 25.133 55.016 24.877 54.76C24.2797 54.2907 24.0023 53.864 24.045 53.48C24.1303 53.0533 24.2797 52.4773 24.493 51.752C24.7917 51.752 24.9837 51.6027 25.069 51.304C25.1543 50.9627 25.2823 50.6853 25.453 50.472L28.781 50.344C30.2743 50.344 31.853 50.216 33.517 49.96C35.437 49.6613 37.293 49.512 39.085 49.512C40.877 49.512 42.7117 49.4267 44.589 49.256C45.5703 49.1707 46.573 49.0853 47.597 49C48.6637 48.872 49.7303 48.808 50.797 48.808C53.101 48.808 55.405 48.9147 57.709 49.128C60.013 49.2987 62.317 49.4907 64.621 49.704C65.6877 49.7893 66.7757 49.832 67.885 49.832C68.9943 49.832 70.061 49.9387 71.085 50.152C71.5543 50.2373 71.981 50.344 72.365 50.472C72.7917 50.6 73.1543 50.8347 73.453 51.176L74.157 51.88C74.3277 52.0933 74.541 52.2427 74.797 52.328C75.0957 52.4133 75.309 52.6053 75.437 52.904C75.5223 53.1173 75.5223 53.3947 75.437 53.736C75.3517 54.0347 75.245 54.2907 75.117 54.504C75.0317 54.7173 74.8397 55.144 74.541 55.784C74.285 56.3813 74.0077 56.7867 73.709 57C73.3677 57.3413 73.005 57.5973 72.621 57.768C72.237 57.9387 71.8743 58.0667 71.533 58.152C70.9357 58.2373 70.253 58.3013 69.485 58.344C68.717 58.3867 68.013 58.408 67.373 58.408C66.6477 58.408 65.837 58.3867 64.941 58.344C64.0877 58.2587 63.3197 58.216 62.637 58.216C62.253 58.216 61.8263 58.216 61.357 58.216C60.9303 58.1733 60.4823 58.1307 60.013 58.088C59.5437 58.0453 59.1597 58.0027 58.861 57.96C58.5623 57.8747 58.285 57.8107 58.029 57.768C57.773 57.7253 57.4957 57.704 57.197 57.704C56.941 57.6613 56.5997 57.64 56.173 57.64C55.6183 57.64 55.1917 57.6613 54.893 57.704C54.5943 57.704 54.4023 57.8107 54.317 58.024C54.2317 58.1947 54.2103 58.4933 54.253 58.92C54.2957 59.3467 54.3597 59.9653 54.445 60.776C54.5303 61.4587 54.5303 62.0987 54.445 62.696C54.4023 63.2933 54.3597 63.912 54.317 64.552C54.9997 64.7653 55.6823 65.064 56.365 65.448C57.0477 65.832 57.6663 66.3227 58.221 66.92C58.7757 67.4747 59.181 68.136 59.437 68.904C59.7357 69.672 59.821 70.568 59.693 71.592C59.565 72.4453 59.437 73.2987 59.309 74.152C59.181 75.048 58.9677 75.8587 58.669 76.584C58.285 77.9493 57.6023 78.9947 56.621 79.72C55.6397 80.4453 54.5943 81.0427 53.485 81.512C52.8877 81.7253 52.2903 81.8533 51.693 81.896C51.1383 81.9813 50.541 82.0667 49.901 82.152ZM66.989 39.656C67.4583 39.912 67.9917 40.232 68.589 40.616C69.1863 41 69.677 41.3413 70.061 41.64C70.4023 41.896 70.6583 42.3227 70.829 42.92C70.9997 43.4747 70.829 44.1787 70.317 45.032C70.1463 45.3307 69.7623 45.6293 69.165 45.928C68.5677 46.184 68.1623 46.3547 67.949 46.44C67.7357 46.5253 67.4583 46.6107 67.117 46.696C66.7757 46.7813 66.4343 46.8667 66.093 46.952C65.7517 46.9947 65.4103 47.0373 65.069 47.08C64.7703 47.08 64.5357 47.0373 64.365 46.952L60.845 44.968C59.9917 44.4987 59.245 44.072 58.605 43.688C57.965 43.304 57.325 42.9413 56.685 42.6C56.0877 42.2587 55.469 41.9387 54.829 41.64C54.2317 41.2987 53.5277 40.9573 52.717 40.616C52.3757 40.488 51.9703 40.296 51.501 40.04C51.0743 39.784 50.221 39.3573 48.941 38.76C48.3863 39.1867 47.789 39.528 47.149 39.784C46.5517 40.04 45.8263 40.4027 44.973 40.872C44.2477 41.2987 43.437 41.7893 42.541 42.344C41.6877 42.8987 41.0477 43.3253 40.621 43.624C40.1943 43.9227 39.661 44.264 39.021 44.648C38.4237 45.032 37.805 45.416 37.165 45.8C36.5677 46.1413 35.9917 46.4613 35.437 46.76C34.925 47.0587 34.541 47.272 34.285 47.4C33.6023 47.6987 33.0263 47.8053 32.557 47.72C32.429 47.72 32.173 47.6133 31.789 47.4C31.4477 47.1867 31.0637 46.952 30.637 46.696C30.2103 46.3973 29.805 46.1413 29.421 45.928C29.0797 45.672 28.845 45.5227 28.717 45.48L27.693 44.968C27.3943 44.84 27.245 44.584 27.245 44.2C27.245 43.7733 27.309 43.432 27.437 43.176C27.565 42.9627 27.7997 42.7067 28.141 42.408C28.653 42.0667 29.3143 41.6827 30.125 41.256C30.9783 40.7867 31.8103 40.3173 32.621 39.848C33.3037 39.5067 33.9863 39.144 34.669 38.76C35.3517 38.3333 35.9917 37.928 36.589 37.544C37.357 36.9467 37.997 36.4773 38.509 36.136C39.0637 35.7947 39.7677 35.3893 40.621 34.92L44.013 32.808C44.0557 32.7653 43.821 32.744 43.309 32.744C42.8397 32.744 42.285 32.744 41.645 32.744C41.005 32.744 40.4077 32.7653 39.853 32.808C39.2983 32.808 38.9783 32.808 38.893 32.808C37.1863 32.8933 35.6503 32.9147 34.285 32.872C32.9197 32.7867 32.0023 32.6587 31.533 32.488C31.405 32.4453 31.2557 32.3173 31.085 32.104C30.9143 31.8907 30.7437 31.6347 30.573 31.336C30.445 31.0373 30.317 30.76 30.189 30.504C30.1037 30.2053 30.061 29.9707 30.061 29.8C30.061 29.416 30.0183 29.0747 29.933 28.776C29.8903 28.4347 29.8903 28.136 29.933 27.88C29.9757 27.5813 30.061 27.3253 30.189 27.112C30.3597 26.856 30.6797 26.6213 31.149 26.408C31.6183 26.152 32.237 26.0453 33.005 26.088C33.773 26.1307 34.5623 26.1093 35.373 26.024C35.885 25.9813 36.4397 25.96 37.037 25.96C37.677 25.9173 38.2957 25.896 38.893 25.896C39.4903 25.8533 40.045 25.832 40.557 25.832C41.069 25.7893 41.517 25.768 41.901 25.768C43.2237 25.7253 44.5037 25.6613 45.741 25.576C46.9783 25.448 48.2157 25.3627 49.453 25.32C50.9037 25.32 52.4397 25.32 54.061 25.32C55.725 25.32 57.261 25.448 58.669 25.704C59.1383 25.7467 59.693 25.7893 60.333 25.832C60.973 25.8747 61.613 25.9173 62.253 25.96C62.9357 26.0027 63.597 26.0667 64.237 26.152C64.9197 26.1947 65.4957 26.2373 65.965 26.28C66.3917 26.3653 66.7117 26.5573 66.925 26.856C67.1383 27.1547 67.2663 27.5387 67.309 28.008C67.3943 28.4347 67.4157 28.9253 67.373 29.48C67.373 29.992 67.373 30.504 67.373 31.016C67.373 31.3573 67.245 31.6347 66.989 31.848C66.7757 32.0187 66.4983 32.1467 66.157 32.232C65.8583 32.3173 65.517 32.3813 65.133 32.424C64.7917 32.4667 64.4717 32.5093 64.173 32.552C63.3197 32.6373 62.381 32.7013 61.357 32.744C60.333 32.744 59.437 32.744 58.669 32.744L53.037 32.68C54.2743 33.3627 55.3837 33.9387 56.365 34.408C57.3463 34.8773 58.4557 35.3893 59.693 35.944C60.461 36.328 61.1437 36.6693 61.741 36.968C62.3383 37.2667 62.893 37.5653 63.405 37.864C63.9597 38.12 64.5143 38.3973 65.069 38.696C65.6237 38.952 66.2637 39.272 66.989 39.656ZM53.677 71.848C53.6343 71.592 53.5703 71.2507 53.485 70.824C53.3997 70.3973 53.2503 70.12 53.037 69.992C52.5677 69.6507 52.1197 69.416 51.693 69.288C51.2663 69.16 50.8823 69.0747 50.541 69.032C50.157 69.032 49.7517 69.0747 49.325 69.16C48.941 69.2453 48.4717 69.4373 47.917 69.736C47.1917 70.2053 46.701 70.952 46.445 71.976C46.2317 73 46.2317 73.8533 46.445 74.536C46.6583 75.1333 47.1063 75.5813 47.789 75.88C48.5143 76.2213 49.2183 76.3493 49.901 76.264C51.2663 76.0933 52.205 75.6667 52.717 74.984C53.229 74.3013 53.549 73.256 53.677 71.848Z" fill="black"/>
<path d="M118.184 95.76C117.672 95.28 117.256 94.976 116.936 94.848C116.744 94.912 116.376 94.976 115.832 95.04C115.32 95.104 114.936 95.168 114.68 95.232C113.752 95.424 113.064 95.28 112.616 94.8C112.2 94.32 112.088 93.616 112.28 92.688C112.44 91.952 112.52 91.312 112.52 90.768C112.552 90.256 112.616 89.664 112.712 88.992C112.808 88.48 112.872 87.84 112.904 87.072C112.936 86.272 112.984 85.584 113.048 85.008C112.568 84.944 112.104 84.896 111.656 84.864C111.24 84.8 110.84 84.768 110.456 84.768C109.656 84.768 108.936 84.752 108.296 84.72C107.656 84.656 107.032 84.608 106.424 84.576C105.816 84.544 105.192 84.528 104.552 84.528C103.912 84.528 103.192 84.576 102.392 84.672C102.008 84.736 101.528 84.752 100.952 84.72C100.376 84.688 99.8803 84.656 99.4643 84.624C98.5683 84.56 97.8003 84.528 97.1603 84.528C96.5523 84.528 95.9443 84.56 95.3363 84.624C94.7603 84.688 94.1523 84.784 93.5123 84.912C92.9043 85.04 92.1523 85.2 91.2563 85.392C91.0003 85.456 90.6963 85.504 90.3443 85.536C89.9923 85.568 89.6883 85.584 89.4323 85.584C89.0483 85.584 88.6643 85.536 88.2803 85.44C87.9283 85.312 87.6243 85.088 87.3683 84.768C87.0483 84.352 86.7603 83.776 86.5043 83.04C86.2483 82.304 86.1843 81.616 86.3123 80.976C86.3763 80.624 86.4723 80.4 86.6003 80.304C86.7603 80.208 86.9683 80.144 87.2243 80.112C88.0243 80.016 88.7123 79.952 89.2883 79.92C89.8643 79.888 90.4083 79.872 90.9203 79.872C91.4323 79.84 91.9603 79.808 92.5043 79.776C93.0803 79.744 93.7683 79.696 94.5683 79.632C94.9523 79.6 95.3683 79.6 95.8163 79.632C96.2963 79.664 96.7443 79.68 97.1603 79.68C98.3443 79.68 99.4963 79.696 100.616 79.728C101.736 79.728 102.904 79.728 104.12 79.728C105.624 79.728 107.224 79.728 108.92 79.728C110.616 79.728 112.184 79.856 113.624 80.112C114.136 80.176 114.616 80.272 115.064 80.4C115.544 80.528 116.008 80.592 116.456 80.592C116.904 80.592 117.24 80.736 117.464 81.024C117.72 81.28 117.912 81.6 118.04 81.984C118.168 82.368 118.264 82.768 118.328 83.184C118.392 83.568 118.488 83.904 118.616 84.192C118.936 84.96 119.112 85.888 119.144 86.976C119.176 88.032 119.16 88.992 119.096 89.856C119.064 90.432 119.048 91.088 119.048 91.824C119.08 92.592 119.048 93.264 118.952 93.84C118.92 94.096 118.824 94.368 118.664 94.656C118.504 94.976 118.344 95.344 118.184 95.76ZM84.5363 76.896C84.4403 76.832 84.3283 76.768 84.2003 76.704C84.1043 76.64 83.9763 76.544 83.8163 76.416L82.6643 75.552C82.4723 75.392 82.3283 75.216 82.2323 75.024C82.1683 74.832 82.0883 74.656 81.9923 74.496C81.8323 74.24 81.7683 74 81.8003 73.776C81.8323 73.52 81.8963 73.312 81.9923 73.152C82.1843 72.832 82.4083 72.528 82.6643 72.24C82.9523 71.92 83.2083 71.584 83.4323 71.232C83.7203 70.88 83.9923 70.512 84.2483 70.128C84.5043 69.712 84.7443 69.36 84.9683 69.072C85.0963 68.944 85.2723 68.704 85.4963 68.352C85.7203 68 85.9443 67.632 86.1683 67.248C86.4243 66.832 86.6643 66.448 86.8883 66.096C87.1443 65.712 87.3523 65.424 87.5123 65.232C87.7683 64.88 88.0083 64.464 88.2323 63.984C88.4883 63.472 88.7443 63.04 89.0003 62.688C89.1283 62.464 89.3683 62.096 89.7203 61.584C90.0723 61.04 90.4243 60.48 90.7763 59.904C91.1283 59.296 91.4483 58.752 91.7363 58.272C92.0243 57.76 92.1843 57.424 92.2163 57.264C92.3123 57.328 92.3923 57.264 92.4563 57.072C92.5523 56.848 92.6483 56.592 92.7443 56.304C92.8403 56.016 92.9363 55.76 93.0323 55.536C93.1283 55.28 93.2563 55.152 93.4163 55.152C93.6723 55.152 93.8803 55.2 94.0403 55.296C94.2323 55.36 94.4083 55.392 94.5683 55.392C94.8243 55.392 95.0643 55.392 95.2883 55.392C95.5123 55.36 95.7683 55.36 96.0563 55.392L96.1523 55.584C96.1523 55.712 96.2323 55.936 96.3923 56.256C96.5843 56.544 96.7603 56.736 96.9203 56.832C97.2723 57.312 97.5283 57.888 97.6883 58.56C97.8483 59.2 98.0723 59.792 98.3603 60.336C99.0963 61.424 99.8963 62.4 100.76 63.264C101.624 64.096 102.44 65.024 103.208 66.048C103.304 66.208 103.496 66.512 103.784 66.96C104.104 67.376 104.424 67.808 104.744 68.256C105.096 68.704 105.4 69.12 105.656 69.504C105.912 69.888 106.072 70.096 106.136 70.128C107.256 71.184 107.816 72.176 107.816 73.104C107.816 73.264 107.8 73.408 107.768 73.536C107.768 73.632 107.72 73.744 107.624 73.872C107.56 74 107.432 74.144 107.24 74.304C107.08 74.464 106.84 74.688 106.52 74.976C106.072 75.424 105.464 75.536 104.696 75.312C103.96 75.088 103.272 74.64 102.632 73.968C102.568 73.904 102.52 73.744 102.488 73.488C102.456 73.232 102.408 73.072 102.344 73.008C101.8 72.4 101.288 71.808 100.808 71.232C100.36 70.656 99.8643 70.08 99.3203 69.504C98.8083 68.96 98.3443 68.4 97.9283 67.824C97.5123 67.248 97.0003 66.688 96.3923 66.144C96.2003 65.952 95.9923 65.76 95.7683 65.568C95.5443 65.376 95.3523 65.12 95.1923 64.8C95.0963 64.8 94.9043 64.976 94.6163 65.328C94.3603 65.648 94.0243 66.064 93.6083 66.576C93.2243 67.056 92.8083 67.6 92.3603 68.208C91.9443 68.784 91.5443 69.344 91.1603 69.888C90.7763 70.4 90.4403 70.848 90.1523 71.232C89.8963 71.616 89.7363 71.856 89.6723 71.952C89.4483 72.272 89.2243 72.64 89.0003 73.056C88.7763 73.472 88.5203 73.888 88.2323 74.304C87.9763 74.72 87.7043 75.12 87.4163 75.504C87.1283 75.888 86.8083 76.192 86.4563 76.416C86.2003 76.608 85.8963 76.768 85.5443 76.896C85.1923 77.024 84.8563 77.024 84.5363 76.896ZM111.368 74.064C111.368 73.808 111.368 73.504 111.368 73.152C111.4 72.8 111.432 72.464 111.464 72.144C111.496 71.824 111.512 71.552 111.512 71.328C111.544 71.104 111.56 70.976 111.56 70.944C111.56 70.656 111.56 70.304 111.56 69.888C111.592 69.472 111.608 69.088 111.608 68.736L111.704 64.656C111.704 64.304 111.72 63.92 111.752 63.504C111.816 63.088 111.848 62.72 111.848 62.4C111.848 61.92 111.832 61.264 111.8 60.432C111.768 59.6 111.752 58.928 111.752 58.416C111.752 58.096 111.752 57.776 111.752 57.456C111.752 57.136 111.72 56.848 111.656 56.592C111.656 56.528 111.64 56.368 111.608 56.112C111.576 55.856 111.56 55.696 111.56 55.632V55.536C111.56 54.8 111.752 54.368 112.136 54.24C112.52 54.112 113 54.048 113.576 54.048C113.992 54.048 114.472 54.08 115.016 54.144C115.56 54.176 116.024 54.352 116.408 54.672C116.984 55.088 117.432 55.664 117.752 56.4C118.072 57.104 118.312 57.872 118.472 58.704C118.632 59.536 118.744 60.384 118.808 61.248C118.904 62.112 119 62.88 119.096 63.552C119.16 63.936 119.16 64.416 119.096 64.992C119.032 65.568 119 66.064 119 66.48C119 67.632 119 68.8 119 69.984C119.032 71.136 119.048 72.32 119.048 73.536C119.048 74.048 118.92 74.656 118.664 75.36C118.44 76.032 118.072 76.544 117.56 76.896C116.952 77.28 116.248 77.472 115.448 77.472C115.352 77.472 115.24 77.536 115.112 77.664L114.968 77.808C114.872 77.808 114.68 77.808 114.392 77.808C114.136 77.776 113.848 77.744 113.528 77.712C113.24 77.648 112.968 77.584 112.712 77.52C112.488 77.456 112.36 77.376 112.328 77.28C112.136 76.768 111.944 76.288 111.752 75.84C111.56 75.392 111.432 74.8 111.368 74.064Z" fill="black"/>
</svg>
