<svg width="153" height="123" viewBox="0 0 153 123" fill="none" xmlns="http://www.w3.org/2000/svg">
<path d="M24.1493 47.016C23.9359 46.8027 23.7653 46.5467 23.6373 46.248C23.5093 45.9067 23.3599 45.5653 23.1893 45.224C23.1039 45.0533 23.0399 44.7973 22.9973 44.456C22.9973 44.1147 23.0186 43.7733 23.0613 43.432C23.1039 43.048 23.1679 42.7067 23.2533 42.408C23.3813 42.0667 23.5093 41.8107 23.6373 41.64C24.0213 41.128 24.3626 40.6373 24.6613 40.168C24.9599 39.6987 25.5146 39.3147 26.3253 39.016C26.7093 38.888 27.1999 38.8027 27.7973 38.76C28.4373 38.6747 29.0986 38.632 29.7812 38.632C30.4639 38.5893 31.1039 38.5467 31.7013 38.504C32.3413 38.4613 32.8319 38.376 33.1733 38.248C33.6426 38.0347 33.9839 37.7573 34.1973 37.416C34.4106 37.032 34.3893 36.648 34.1333 36.264C33.7066 35.624 33.4719 35.0693 33.4293 34.6C33.3866 34.088 33.4293 33.5973 33.5573 33.128C33.6853 32.616 33.8346 32.1253 34.0053 31.656C34.2186 31.1867 34.3466 30.6747 34.3893 30.12C34.3893 29.992 34.4959 29.864 34.7093 29.736C34.9653 29.5653 35.2426 29.416 35.5413 29.288C35.8399 29.16 36.1386 29.0533 36.4373 28.968C36.7359 28.84 36.9493 28.7547 37.0773 28.712C37.2906 28.584 37.5679 28.5413 37.9093 28.584C38.2933 28.6267 38.5279 28.5627 38.6133 28.392C38.9119 27.88 39.2959 27.5813 39.7653 27.496C40.2773 27.4107 40.8106 27.4747 41.3653 27.688C42.0906 27.9867 42.7306 28.4133 43.2853 28.968C43.8826 29.48 44.2453 29.9707 44.3733 30.44C44.5439 31.1653 44.7359 31.7627 44.9493 32.232C45.2053 32.6587 45.2906 33.1707 45.2053 33.768C45.1199 34.1947 45.0773 34.792 45.0773 35.56C45.0773 36.2853 45.1839 36.8187 45.3973 37.16C45.6106 37.3307 46.3359 37.4587 47.5733 37.544C48.8533 37.5867 50.4319 37.7573 52.3093 38.056C53.0773 38.184 53.8026 38.2907 54.4853 38.376C55.2106 38.4613 55.8719 38.6747 56.4693 39.016C56.8533 39.2293 57.0452 39.6347 57.0452 40.232C57.0879 40.8293 56.9599 41.2987 56.6613 41.64C56.5333 41.768 56.4693 41.9813 56.4693 42.28C56.4693 42.536 56.4479 42.8347 56.4053 43.176C56.3626 43.4747 56.2986 43.7733 56.2133 44.072C56.1706 44.3707 56.0213 44.6053 55.7653 44.776C55.5946 44.8613 55.4026 45.032 55.1893 45.288C55.0186 45.5013 54.8266 45.7147 54.6133 45.928C54.3999 46.1413 54.1866 46.3333 53.9733 46.504C53.7599 46.6747 53.5679 46.7387 53.3973 46.696L49.8773 46.312C49.1519 46.2267 48.4693 46.2053 47.8293 46.248C47.1893 46.248 46.6773 46.3333 46.2933 46.504C46.5493 46.8027 46.7199 47.0587 46.8053 47.272C46.9333 47.4853 47.0399 47.6987 47.1253 47.912C47.2533 48.1253 47.3599 48.3387 47.4453 48.552C47.5733 48.7653 47.7439 49.0213 47.9573 49.32C48.6826 50.4293 49.2586 51.5173 49.6853 52.584C50.1546 53.6507 50.6026 54.8027 51.0293 56.04C51.3706 57.0213 51.7119 57.896 52.0533 58.664C52.4373 59.3893 52.7999 60.1787 53.1413 61.032C53.3119 61.5867 53.4186 61.9707 53.4613 62.184C53.5039 62.3973 53.5466 62.568 53.5893 62.696C53.6319 62.824 53.6746 62.9947 53.7173 63.208C53.7599 63.3787 53.8879 63.6987 54.1012 64.168C54.1866 64.3813 54.2719 64.6587 54.3573 65C54.4426 65.2987 54.4853 65.6187 54.4853 65.96C54.5279 66.3013 54.5066 66.6427 54.4213 66.984C54.3359 67.2827 54.1653 67.496 53.9093 67.624C53.8666 67.6667 53.7599 67.752 53.5893 67.88C53.4186 67.9653 53.2266 68.072 53.0133 68.2C52.7999 68.328 52.5866 68.456 52.3733 68.584C52.2026 68.712 52.0959 68.7973 52.0533 68.84C51.9253 68.968 51.7333 69.096 51.4773 69.224C51.2213 69.352 50.9439 69.4373 50.6453 69.48C50.3466 69.5227 50.0479 69.5227 49.7493 69.48C49.4933 69.3947 49.3013 69.2453 49.1733 69.032C48.9599 68.8187 48.7466 68.52 48.5333 68.136C48.3626 67.7093 48.1919 67.3467 48.0213 67.048C47.6373 66.3653 47.3386 65.7893 47.1253 65.32C46.9119 64.808 46.7199 64.3387 46.5493 63.912C46.3786 63.4427 46.1866 62.952 45.9733 62.44C45.7599 61.928 45.4613 61.3093 45.0773 60.584C44.7359 59.944 44.4586 59.3893 44.2453 58.92C44.0319 58.408 43.8186 57.9173 43.6053 57.448C43.4346 56.936 43.2426 56.4453 43.0293 55.976C42.8159 55.464 42.5386 54.9093 42.1973 54.312C41.7706 53.5867 41.3866 52.904 41.0453 52.264C40.7039 51.624 40.3626 51.048 40.0213 50.536L39.1893 49.192C39.0186 49.448 38.8479 49.768 38.6772 50.152C38.5066 50.536 38.3786 50.8347 38.2933 51.048L37.1413 55.016C36.9279 55.7413 36.6293 56.5947 36.2453 57.576C35.9039 58.5147 35.6266 59.368 35.4133 60.136L32.1493 69.864L31.6373 70.376L27.5413 70.312C27.2853 70.056 27.0933 69.864 26.9653 69.736C26.8373 69.608 26.7519 69.48 26.7093 69.352C26.6666 69.224 26.6453 69.096 26.6453 68.968C26.6879 68.7973 26.7093 68.584 26.7093 68.328C26.7093 67.2187 26.9226 66.1733 27.3493 65.192C27.7759 64.168 28.0959 63.208 28.3093 62.312C28.5653 61.288 28.8213 60.328 29.0773 59.432C29.3759 58.536 29.6533 57.6613 29.9093 56.808C30.1653 55.912 30.4213 55.016 30.6773 54.12C30.9333 53.224 31.1679 52.2213 31.3813 51.112C31.5519 50.3867 31.6586 49.7893 31.7013 49.32C31.7866 48.8507 31.9359 48.1893 32.1493 47.336C31.7653 47.3787 31.0399 47.4427 29.9733 47.528C28.9493 47.6133 27.9466 47.6987 26.9653 47.784C26.4959 47.8693 26.0053 47.848 25.4933 47.72C24.9813 47.592 24.5333 47.3573 24.1493 47.016ZM72.4693 49C72.5973 50.2373 72.6613 51.368 72.6613 52.392C72.7039 53.416 72.6826 54.3973 72.5973 55.336C72.5546 56.232 72.4906 57.1067 72.4053 57.96C72.3199 58.8133 72.2773 59.688 72.2773 60.584C72.2773 60.8827 72.2986 61.2667 72.3413 61.736C72.3839 62.1627 72.4053 62.6107 72.4053 63.08C72.4479 63.5067 72.4693 63.9333 72.4693 64.36C72.4693 64.744 72.4479 65.064 72.4053 65.32C72.2346 66.0453 72.1706 66.728 72.2133 67.368C72.2559 68.008 72.2559 68.648 72.2133 69.288C72.2133 69.6293 72.0426 69.9707 71.7013 70.312C71.3599 70.6107 71.0613 70.8027 70.8053 70.888C70.1226 71.1013 69.3973 71.1867 68.6293 71.144C67.9039 71.1013 67.2426 71.0587 66.6453 71.016C66.0053 70.9307 65.3866 70.696 64.7893 70.312C64.2346 69.8853 63.7439 69.3733 63.3173 68.776C63.1039 68.392 62.9546 67.9867 62.8693 67.56C62.8266 67.0907 62.7839 66.6213 62.7413 66.152C62.6986 65.4267 62.6559 64.616 62.6133 63.72C62.6133 62.824 62.6559 62.0133 62.7413 61.288C62.9973 58.6853 63.0826 56.104 62.9973 53.544C62.9119 50.9413 62.6986 48.3387 62.3573 45.736C62.0586 43.816 61.9306 42.1093 61.9733 40.616C62.0586 39.1227 61.9093 37.736 61.5253 36.456C61.3119 35.6453 61.2053 34.856 61.2053 34.088C61.2053 33.2773 61.0773 32.4667 60.8213 31.656C60.7359 31.3573 60.7999 31.08 61.0133 30.824C61.2693 30.568 61.6319 30.3547 62.1013 30.184C62.7413 29.9707 63.4453 29.8427 64.2133 29.8C65.0239 29.7573 65.5573 29.8 65.8133 29.928C66.5813 30.3973 67.3706 30.76 68.1813 31.016C68.9919 31.2293 69.6106 31.656 70.0373 32.296C70.3786 32.7227 70.7199 33.32 71.0613 34.088C71.4026 34.8133 71.5733 35.5173 71.5733 36.2C71.6159 37.1387 71.6586 38.0347 71.7013 38.888C71.7439 39.6987 71.7866 40.5947 71.8293 41.576C71.9146 42.5147 71.9999 43.5813 72.0853 44.776C72.2133 45.9707 72.3413 47.3787 72.4693 49Z" fill="black"/>
<path d="M96.1154 80.592C95.7634 80.592 95.5394 80.4 95.4434 80.016C95.3794 79.6 95.3634 79.088 95.3954 78.48C95.4274 77.872 95.4754 77.232 95.5394 76.56C95.6354 75.888 95.6834 75.296 95.6834 74.784C95.6834 74.464 95.6834 74.08 95.6834 73.632C95.6834 73.152 95.7154 72.64 95.7794 72.096C95.2034 72.096 94.5634 72.112 93.8594 72.144C93.1554 72.176 92.4834 72.208 91.8434 72.24C91.2034 72.272 90.6274 72.304 90.1154 72.336C89.6354 72.368 89.3314 72.4 89.2034 72.432C88.7874 72.496 88.2914 72.48 87.7154 72.384C87.1394 72.288 86.5954 72.24 86.0834 72.24H84.4514C84.2914 72.24 84.0834 72.144 83.8274 71.952C83.6034 71.76 83.4594 71.632 83.3954 71.568C83.1074 71.248 82.9154 70.768 82.8194 70.128C82.7554 69.456 82.8994 68.816 83.2514 68.208C83.3794 68.016 83.5394 67.76 83.7314 67.44C83.9234 67.12 84.1314 66.944 84.3554 66.912L86.6114 66.816C86.8354 66.816 87.1714 66.832 87.6194 66.864C88.0994 66.864 88.6114 66.88 89.1554 66.912C89.6994 66.912 90.2274 66.928 90.7394 66.96C91.2834 66.96 91.7154 66.976 92.0354 67.008C92.1314 67.008 92.3234 67.024 92.6114 67.056C92.8994 67.056 93.2354 67.072 93.6194 67.104C94.0354 67.104 94.4674 67.12 94.9154 67.152C95.3634 67.184 95.7794 67.216 96.1634 67.248L96.3074 66.144C96.3714 65.504 96.3714 64.848 96.3074 64.176C96.2754 63.472 96.2434 62.768 96.2114 62.064C96.0194 62.032 95.7314 62.016 95.3474 62.016C94.9634 61.984 94.5634 61.984 94.1474 62.016C93.7314 62.016 93.3314 62.016 92.9474 62.016C92.5634 62.016 92.2754 62.016 92.0834 62.016C91.0914 61.952 90.1954 61.92 89.3954 61.92C88.6274 61.92 87.8594 61.904 87.0914 61.872C86.8354 61.872 86.5634 61.744 86.2754 61.488C85.9874 61.232 85.7154 60.928 85.4594 60.576C85.2354 60.192 85.0274 59.824 84.8354 59.472C84.6434 59.088 84.4994 58.768 84.4034 58.512C84.3074 58.288 84.1954 58.064 84.0674 57.84C83.9394 57.616 83.8434 57.424 83.7794 57.264C83.7154 57.072 83.6994 56.912 83.7314 56.784C83.7634 56.624 83.8754 56.496 84.0674 56.4C84.1954 56.336 84.3394 56.288 84.4994 56.256C84.6594 56.192 84.8194 56.192 84.9794 56.256C85.3954 56.288 85.9074 56.304 86.5154 56.304C87.1234 56.272 87.7474 56.256 88.3874 56.256C89.0274 56.224 89.6514 56.208 90.2594 56.208C90.8674 56.208 91.3794 56.24 91.7954 56.304L94.9154 56.592C95.7154 56.688 96.6434 56.816 97.6994 56.976C98.7874 57.104 99.7314 57.264 100.531 57.456C101.043 57.584 101.363 57.904 101.491 58.416C101.651 58.896 101.859 59.392 102.115 59.904C102.371 60.544 102.547 61.36 102.643 62.352C102.739 63.312 102.787 64.304 102.787 65.328C102.787 66.352 102.739 67.36 102.643 68.352C102.579 69.312 102.499 70.128 102.403 70.8C102.243 71.76 102.115 72.768 102.019 73.824C101.955 74.88 101.763 75.888 101.443 76.848C101.283 77.392 101.155 78 101.059 78.672C100.995 79.312 100.739 79.808 100.291 80.16C100.163 80.288 99.9074 80.368 99.5234 80.4C99.1394 80.432 98.7234 80.448 98.2754 80.448C97.8274 80.448 97.3954 80.448 96.9794 80.448C96.5634 80.448 96.2754 80.496 96.1154 80.592ZM88.6754 81.936C88.9314 81.936 89.2354 82.032 89.5874 82.224C89.9394 82.384 90.2754 82.592 90.5954 82.848C90.9154 83.072 91.1714 83.344 91.3634 83.664C91.5554 83.984 91.6034 84.288 91.5074 84.576L90.6434 87.984C91.0914 88.336 91.3794 88.576 91.5074 88.704C91.6354 88.832 91.8914 88.912 92.2754 88.944C93.6194 88.976 94.9314 88.976 96.2114 88.944C97.4914 88.912 98.7394 88.88 99.9554 88.848C100.371 88.848 100.707 88.848 100.963 88.848C101.251 88.816 101.491 88.8 101.683 88.8C101.907 88.768 102.147 88.752 102.403 88.752C102.659 88.752 103.011 88.752 103.459 88.752C105.091 88.816 106.803 88.816 108.595 88.752C110.387 88.688 112.083 88.688 113.683 88.752C114.131 88.816 114.611 88.8 115.123 88.704C115.635 88.576 116.163 88.592 116.707 88.752C117.603 88.944 118.403 89.296 119.107 89.808C119.843 90.32 120.339 91.072 120.595 92.064C120.339 92.224 120.179 92.464 120.115 92.784C120.051 93.104 119.971 93.632 119.875 94.368C119.235 94.4 118.595 94.496 117.955 94.656C117.315 94.816 116.675 94.864 116.035 94.8C115.203 94.896 114.291 94.912 113.299 94.848C112.307 94.816 111.347 94.832 110.419 94.896C110.003 94.864 109.587 94.88 109.171 94.944C108.755 95.04 108.323 95.056 107.875 94.992L101.923 94.704C101.763 94.704 101.603 94.72 101.443 94.752C101.283 94.784 101.123 94.8 100.963 94.8L99.5714 95.136C99.2194 95.2 98.8834 95.248 98.5634 95.28C98.2434 95.344 97.9074 95.376 97.5554 95.376C97.4594 95.376 97.1394 95.376 96.5954 95.376C96.0514 95.376 95.4754 95.36 94.8674 95.328C94.2594 95.296 93.6994 95.264 93.1874 95.232C92.6754 95.2 92.3714 95.184 92.2754 95.184C91.6354 95.088 91.2034 94.96 90.9794 94.8C90.7554 94.672 90.5794 94.512 90.4514 94.32C90.3234 94.16 90.1474 93.968 89.9234 93.744C89.7314 93.52 89.3314 93.28 88.7234 93.024C88.4354 92.864 88.1314 92.656 87.8114 92.4C87.5234 92.176 87.2514 91.968 86.9954 91.776C86.8674 91.68 86.7714 91.568 86.7074 91.44C86.6434 91.344 86.5794 91.264 86.5154 91.2L85.7474 87.984C85.6834 87.92 85.6674 87.856 85.6994 87.792C85.7634 87.728 85.8114 87.664 85.8434 87.6L87.9554 82.272C88.0514 82.048 88.2914 81.936 88.6754 81.936ZM110.755 65.712L110.659 58.608C110.627 58.192 110.595 57.776 110.563 57.36C110.563 56.944 110.595 56.528 110.659 56.112C110.659 55.888 110.707 55.616 110.803 55.296C110.899 54.944 111.059 54.704 111.283 54.576C111.475 54.448 111.747 54.352 112.099 54.288C112.451 54.192 112.803 54.144 113.155 54.144C113.539 54.112 113.891 54.128 114.211 54.192C114.531 54.256 114.771 54.352 114.931 54.48C115.379 54.928 115.779 55.296 116.131 55.584C116.483 55.872 116.787 56.24 117.043 56.688C117.587 57.424 117.971 58.304 118.195 59.328C118.419 60.32 118.531 61.36 118.531 62.448C118.531 63.088 118.531 63.856 118.531 64.752C118.531 65.648 118.547 66.576 118.579 67.536C118.611 68.496 118.627 69.424 118.627 70.32C118.627 71.216 118.627 72 118.627 72.672C118.627 73.12 118.611 73.744 118.579 74.544C118.579 75.344 118.563 76.192 118.531 77.088C118.531 77.952 118.515 78.8 118.483 79.632C118.451 80.432 118.419 81.04 118.387 81.456C118.355 81.648 118.195 81.872 117.907 82.128C117.651 82.352 117.475 82.608 117.379 82.896L116.803 82.08C116.451 82.368 116.019 82.576 115.507 82.704C115.027 82.832 114.499 82.912 113.923 82.944C113.379 82.976 112.835 82.992 112.291 82.992C111.779 82.96 111.331 82.96 110.947 82.992C110.819 82.576 110.691 82.208 110.563 81.888C110.467 81.536 110.387 81.216 110.323 80.928C110.259 80.608 110.211 80.288 110.179 79.968C110.179 79.616 110.211 79.232 110.275 78.816C110.307 78.432 110.339 77.968 110.371 77.424C110.403 76.848 110.435 76.256 110.467 75.648C110.499 75.04 110.515 74.464 110.515 73.92C110.547 73.344 110.563 72.864 110.563 72.48C110.563 72.384 110.579 72.096 110.611 71.616C110.643 71.104 110.675 70.512 110.707 69.84C110.739 69.136 110.755 68.416 110.755 67.68C110.787 66.944 110.787 66.288 110.755 65.712Z" fill="black"/>
</svg>
