<svg width="155" height="207" viewBox="0 0 155 207" fill="none" xmlns="http://www.w3.org/2000/svg">
<path d="M60.9658 34.536C60.9658 34.4507 60.9444 34.2373 60.9018 33.896C60.9018 33.5547 60.8804 33.192 60.8378 32.808C60.8378 32.3813 60.8378 31.9973 60.8378 31.656C60.8378 31.3147 60.8591 31.08 60.9018 30.952C61.0724 30.568 61.3071 30.4187 61.6058 30.504C61.9044 30.5893 62.2244 30.5467 62.5658 30.376C63.0778 30.1627 63.6964 30.056 64.4218 30.056C65.1471 30.0133 65.8298 30.0347 66.4698 30.12C67.1524 30.2053 67.7498 30.3333 68.2618 30.504C68.7738 30.6747 69.0938 30.8453 69.2218 31.016C69.9471 31.8693 70.4378 32.7653 70.6938 33.704C70.9498 34.6 71.1204 35.624 71.2058 36.776C71.2484 37.672 71.3124 38.504 71.3978 39.272C71.5258 40.04 71.6324 40.808 71.7178 41.576C71.8458 42.3013 71.9524 43.048 72.0378 43.816C72.1231 44.584 72.1871 45.416 72.2298 46.312C72.2724 47.1653 72.2938 47.976 72.2938 48.744C72.2938 49.4693 72.2724 50.1947 72.2298 50.92C72.2298 51.6453 72.2298 52.392 72.2298 53.16C72.2298 53.8853 72.2298 54.6747 72.2298 55.528C72.2724 56.7653 72.2938 57.832 72.2938 58.728C72.3364 59.5813 72.3578 60.6267 72.3578 61.864C72.3151 63.2293 72.2298 64.5733 72.1018 65.896C71.9738 67.2187 71.8031 68.5627 71.5898 69.928C71.5471 70.184 71.4404 70.4613 71.2698 70.76C71.1418 71.016 71.0351 71.2507 70.9498 71.464C70.5231 71.6773 69.9258 71.6773 69.1578 71.464C68.3898 71.2507 67.5791 71.0373 66.7258 70.824C65.8724 70.6107 65.0618 70.4613 64.2938 70.376C63.5258 70.2907 62.9284 70.44 62.5018 70.824C61.6058 69.4587 61.0724 68.072 60.9018 66.664C60.7738 65.2133 60.7524 63.7413 60.8378 62.248C60.8804 61.6507 60.9231 61.0533 60.9658 60.456C61.0511 59.8587 61.1364 59.2187 61.2218 58.536C61.3071 57.8107 61.3711 57.0213 61.4138 56.168C61.4991 55.3147 61.5418 54.3333 61.5418 53.224C61.1151 53.4373 60.4751 53.544 59.6218 53.544C58.8111 53.5013 57.8938 53.4373 56.8698 53.352C56.1444 53.3093 55.4618 53.1387 54.8218 52.84C54.2244 52.4987 53.7551 52.072 53.4137 51.56C53.0724 51.0907 52.7524 50.472 52.4538 49.704C52.1978 48.936 51.9204 48.296 51.6218 47.784C51.0244 46.1627 51.5151 45.224 53.0938 44.968C54.9284 44.6693 56.4858 44.4987 57.7658 44.456C59.0458 44.4133 59.9844 44.6267 60.5818 45.096H61.2858L60.9658 34.536ZM46.8218 35.496C46.9924 35.8373 47.1631 36.136 47.3338 36.392C47.5471 36.648 47.7604 36.9253 47.9738 37.224C48.8698 38.9733 49.3178 40.9147 49.3178 43.048C49.3178 45.224 49.2751 47.0587 49.1898 48.552C49.1044 50.0027 48.9764 51.2613 48.8058 52.328C48.6778 53.4373 48.5924 54.376 48.5498 55.144C48.5498 55.8693 48.4858 56.7013 48.3578 57.64C48.2724 58.0667 48.2298 58.5147 48.2298 58.984C48.2724 59.4107 48.2511 59.8587 48.1658 60.328C48.0804 60.7973 47.9951 61.288 47.9098 61.8C47.8671 62.2693 47.8458 62.696 47.8458 63.08C47.8458 63.336 47.7818 63.656 47.6538 64.04C47.5684 64.424 47.4831 64.7867 47.3978 65.128C47.3551 65.2133 47.2911 65.2773 47.2058 65.32C47.1204 65.3627 47.0351 65.4267 46.9498 65.512L45.3498 66.536C45.0938 66.7067 44.7311 66.8347 44.2618 66.92C43.8351 66.9627 43.3871 67.0053 42.9178 67.048C42.4484 67.0907 42.0004 67.112 41.5738 67.112C41.1471 67.112 40.8271 67.112 40.6138 67.112C40.2724 67.1547 40.0591 67.048 39.9738 66.792C39.8884 66.536 39.8031 66.1947 39.7178 65.768L39.5258 62.568C39.4831 62.3973 39.4618 62.0773 39.4618 61.608C39.5044 61.1387 39.5258 60.648 39.5258 60.136C39.5684 59.624 39.6111 59.1333 39.6538 58.664C39.6964 58.1947 39.7391 57.896 39.7818 57.768C39.9098 57.1707 39.9951 56.488 40.0378 55.72C40.1231 54.9093 40.1871 53.8 40.2298 52.392C40.2724 51.9227 40.2724 51.368 40.2298 50.728C40.1871 50.088 40.1871 49.5333 40.2298 49.064L40.4858 44.008V39.656C40.0164 39.7413 39.5258 39.784 39.0138 39.784C38.5444 39.784 38.0751 39.8267 37.6058 39.912C36.7951 40.0827 35.8991 40.1893 34.9178 40.232C33.9364 40.232 32.9338 40.232 31.9098 40.232C31.0138 40.232 30.2671 40.2533 29.6698 40.296C29.1151 40.3387 28.5178 40.4027 27.8778 40.488C27.1524 40.5733 26.6191 40.5307 26.2778 40.36C25.9791 40.1893 25.7018 39.8693 25.4458 39.4C25.2324 39.1013 25.0831 38.8027 24.9978 38.504C24.9124 38.1627 24.7844 37.8213 24.6138 37.48C24.4431 37.0533 24.3791 36.52 24.4218 35.88C24.5071 35.24 24.6564 34.7067 24.8698 34.28C24.9978 33.8533 25.1684 33.448 25.3818 33.064C25.5951 32.6373 26.1498 32.4667 27.0458 32.552L30.5017 32.808C31.1418 32.8507 31.9524 32.8293 32.9338 32.744C33.9151 32.6587 34.7684 32.616 35.4938 32.616C36.0484 32.616 36.5178 32.6373 36.9018 32.68C37.3284 32.68 37.7338 32.7013 38.1178 32.744C38.5018 32.7867 38.8858 32.8507 39.2698 32.936C39.6964 33.0213 40.1871 33.1067 40.7418 33.192C41.2111 33.32 41.7444 33.4907 42.3418 33.704C42.9391 33.8747 43.5151 34.0027 44.0698 34.088C44.5818 34.216 45.0938 34.3867 45.6058 34.6C46.1178 34.8133 46.5231 35.112 46.8218 35.496ZM37.2858 49.128C37.4991 49.384 37.6698 49.8533 37.7978 50.536C37.9684 51.176 38.0538 51.8587 38.0538 52.584C38.0964 53.2667 38.0538 53.8853 37.9258 54.44C37.7978 54.952 37.5844 55.208 37.2858 55.208H36.1338C35.6644 55.208 35.1098 55.2507 34.4698 55.336C33.8298 55.4213 33.2324 55.5067 32.6778 55.592C32.0378 55.72 31.4404 55.8053 30.8858 55.848C30.3738 55.848 29.8618 55.848 29.3498 55.848C29.1364 55.848 28.8378 55.8267 28.4538 55.784C28.1124 55.7413 27.8778 55.6133 27.7498 55.4H24.1018L22.6938 54.44C22.3098 54.056 22.0538 53.3733 21.9258 52.392C21.8404 51.368 22.0324 50.472 22.5018 49.704C22.6724 49.4053 22.8644 49.0853 23.0778 48.744C23.3338 48.4027 23.6111 48.1467 23.9098 47.976L24.7418 47.784H27.0458C27.9844 47.784 29.0938 47.8053 30.3738 47.848C31.6964 47.8907 33.1044 48.0187 34.5978 48.232C34.9391 48.2747 35.3231 48.3813 35.7498 48.552C36.2191 48.7227 36.7311 48.9147 37.2858 49.128Z" fill="black"/>
<path d="M90.8599 85.056C90.3159 85.056 89.8199 85.04 89.3719 85.008C88.9239 84.944 88.4759 84.88 88.0279 84.816C87.5799 84.784 87.0999 84.768 86.5879 84.768C86.0759 84.736 85.6279 84.688 85.2439 84.624C84.9559 84.592 84.6999 84.416 84.4759 84.096C84.2519 83.744 84.0599 83.344 83.8999 82.896C83.7399 82.448 83.6119 82 83.5159 81.552C83.4199 81.104 83.3719 80.768 83.3719 80.544C83.3719 80.448 83.3719 80.368 83.3719 80.304C83.4039 80.24 83.4519 80.144 83.5159 80.016C83.7399 79.824 83.9159 79.584 84.0439 79.296C84.1719 79.008 84.4279 78.864 84.8119 78.864C85.1639 78.864 85.4039 78.912 85.5319 79.008C85.6919 79.104 85.8999 79.184 86.1559 79.248C86.5399 79.408 86.7959 79.504 86.9239 79.536C87.0839 79.536 87.3559 79.536 87.7399 79.536C87.7719 79.536 87.8199 79.456 87.8839 79.296C87.8839 79.232 87.8999 79.152 87.9319 79.056C87.9319 78.736 87.8999 78.368 87.8359 77.952C87.7719 77.504 87.7399 77.12 87.7399 76.8C87.7399 75.776 87.7559 74.832 87.7879 73.968C87.8519 73.072 87.9159 72.16 87.9799 71.232C88.0439 70.688 88.0919 70.08 88.1239 69.408C88.1559 68.736 88.3319 68.16 88.6519 67.68C88.6519 67.648 88.7319 67.6 88.8919 67.536C89.0519 67.44 89.2119 67.36 89.3719 67.296C89.5639 67.2 89.7399 67.136 89.8999 67.104C90.0599 67.04 90.1719 67.008 90.2359 67.008C90.5879 67.008 90.8599 67.008 91.0519 67.008C91.2439 67.008 91.4519 67.088 91.6759 67.248C91.7719 67.344 91.9159 67.44 92.1079 67.536C92.3319 67.632 92.5399 67.728 92.7319 67.824C92.9559 67.888 93.1479 67.968 93.3079 68.064C93.4679 68.16 93.5639 68.272 93.5959 68.4C93.7559 68.944 93.8199 69.904 93.7879 71.28C93.7559 72.624 93.7399 74.4 93.7399 76.608C93.8999 76.832 94.0119 77.12 94.0759 77.472C94.1719 77.824 94.2199 78.16 94.2199 78.48C94.2199 78.64 94.1879 78.8 94.1239 78.96C94.0919 79.12 94.0759 79.312 94.0759 79.536H97.2439C97.4359 79.536 97.5959 79.52 97.7239 79.488C97.8519 79.456 97.9479 79.36 98.0119 79.2C98.0119 78.912 98.0119 78.544 98.0119 78.096C98.0119 77.648 98.0119 77.184 98.0119 76.704C98.0439 76.224 98.0759 75.76 98.1079 75.312C98.1399 74.864 98.1879 74.496 98.2519 74.208C98.5079 73.312 98.6199 72.352 98.5879 71.328C98.5559 70.272 98.6679 69.28 98.9239 68.352C99.1799 67.2 99.8679 66.624 100.988 66.624C101.308 66.624 101.788 66.64 102.428 66.672C103.1 66.704 103.596 66.864 103.916 67.152C104.076 67.376 104.204 67.664 104.3 68.016C104.396 68.336 104.444 68.608 104.444 68.832C104.444 69.664 104.444 70.544 104.444 71.472C104.476 72.4 104.476 73.28 104.444 74.112C104.444 74.176 104.444 74.288 104.444 74.448C104.476 74.608 104.492 74.72 104.492 74.784C104.46 74.976 104.444 75.232 104.444 75.552C104.444 75.872 104.444 76.208 104.444 76.56C104.444 76.88 104.428 77.2 104.396 77.52C104.364 77.84 104.332 78.096 104.3 78.288C104.268 78.352 104.236 78.528 104.204 78.816C104.172 79.104 104.22 79.248 104.348 79.248C104.604 79.248 104.94 79.216 105.356 79.152C105.804 79.056 106.284 79.008 106.796 79.008C107.628 79.008 108.188 79.12 108.476 79.344C108.764 79.568 108.908 80.144 108.908 81.072C108.908 81.488 108.908 81.856 108.908 82.176C108.908 82.496 108.892 82.784 108.86 83.04C108.828 83.36 108.588 83.632 108.14 83.856C107.692 84.08 106.78 84.304 105.404 84.528C104.828 84.592 104.284 84.656 103.772 84.72C103.26 84.784 102.7 84.848 102.092 84.912C101.516 84.944 100.844 84.976 100.076 85.008C99.3079 85.04 98.3799 85.056 97.2919 85.056C97.1639 85.056 96.9079 85.072 96.5239 85.104C96.1719 85.104 95.7879 85.12 95.3719 85.152C94.9559 85.184 94.5719 85.2 94.2199 85.2C93.8999 85.2 93.6919 85.168 93.5959 85.104C93.4679 85.104 93.2919 85.104 93.0679 85.104C92.8439 85.104 92.5879 85.104 92.2999 85.104C92.0439 85.072 91.7879 85.056 91.5319 85.056C91.2759 85.056 91.0519 85.056 90.8599 85.056ZM116.012 88.224C115.884 88.224 115.772 88.256 115.676 88.32C115.612 88.352 115.5 88.368 115.34 88.368C115.148 88.368 114.94 88.32 114.716 88.224C114.492 88.096 114.3 87.984 114.14 87.888C113.596 87.664 113.18 87.392 112.892 87.072C112.636 86.72 112.444 86.352 112.316 85.968C112.188 85.552 112.108 85.104 112.076 84.624C112.076 84.144 112.076 83.632 112.076 83.088C112.076 82.672 112.092 82.224 112.124 81.744C112.188 81.264 112.188 80.608 112.124 79.776C112.124 78.752 112.156 77.712 112.22 76.656C112.284 75.568 112.348 74.48 112.412 73.392V71.52C112.412 70.528 112.396 69.52 112.364 68.496C112.364 67.44 112.364 66.448 112.364 65.52C112.364 64.592 112.348 63.76 112.316 63.024C112.316 62.288 112.316 61.744 112.316 61.392C112.316 61.04 112.284 60.64 112.22 60.192C112.156 59.744 112.124 59.344 112.124 58.992C112.124 58.928 112.14 58.8 112.172 58.608C112.204 58.384 112.252 58.176 112.316 57.984C112.38 57.76 112.46 57.568 112.556 57.408C112.652 57.216 112.748 57.12 112.844 57.12C113.324 57.056 113.836 57.04 114.38 57.072C114.924 57.104 115.468 57.2 116.012 57.36C116.044 57.36 116.172 57.376 116.396 57.408C116.62 57.44 116.86 57.488 117.116 57.552C117.372 57.584 117.612 57.632 117.836 57.696C118.092 57.76 118.268 57.824 118.364 57.888C118.556 58.08 118.684 58.352 118.748 58.704C118.844 59.024 118.908 59.312 118.94 59.568L119.132 62.736C119.164 63.088 119.18 63.44 119.18 63.792C119.212 64.112 119.228 64.4 119.228 64.656C119.228 64.784 119.244 65.008 119.276 65.328C119.308 65.616 119.324 65.84 119.324 66C119.324 66.192 119.324 66.464 119.324 66.816C119.356 67.136 119.372 67.52 119.372 67.968C119.404 68.384 119.42 68.832 119.42 69.312C119.42 69.792 119.42 70.256 119.42 70.704C119.42 71.312 119.404 71.904 119.372 72.48C119.34 73.024 119.324 73.616 119.324 74.256C119.324 74.512 119.34 74.736 119.372 74.928C119.404 75.12 119.42 75.328 119.42 75.552C119.42 75.712 119.42 75.856 119.42 75.984C119.42 76.112 119.388 76.256 119.324 76.416C119.324 76.48 119.324 76.608 119.324 76.8C119.356 76.992 119.388 77.2 119.42 77.424C119.452 77.648 119.468 77.872 119.468 78.096C119.5 78.288 119.516 78.432 119.516 78.528C119.516 78.592 119.532 78.72 119.564 78.912C119.596 79.072 119.612 79.168 119.612 79.2V83.472C119.548 83.632 119.484 83.888 119.42 84.24C119.356 84.592 119.324 84.832 119.324 84.96C119.292 85.152 119.244 85.456 119.18 85.872C119.148 86.256 119.068 86.656 118.94 87.072C118.844 87.456 118.716 87.792 118.556 88.08C118.396 88.368 118.188 88.512 117.932 88.512C117.74 88.512 117.404 88.464 116.924 88.368C116.476 88.272 116.172 88.224 116.012 88.224ZM90.0439 64.416C89.9159 64.416 89.6919 64.416 89.3719 64.416C89.0519 64.384 88.6999 64.368 88.3159 64.368C87.9639 64.368 87.6279 64.368 87.3079 64.368C87.0199 64.336 86.8439 64.32 86.7799 64.32C86.4599 64.32 86.1399 64.208 85.8199 63.984C85.4999 63.728 85.1959 63.408 84.9079 63.024C84.7159 62.8 84.5559 62.416 84.4279 61.872C84.2999 61.328 84.2359 60.928 84.2359 60.672C84.2359 60.032 84.3159 59.552 84.4759 59.232C84.6679 58.88 85.0679 58.704 85.6759 58.704C86.3479 58.704 87.0359 58.736 87.7399 58.8C88.4759 58.864 89.1799 58.896 89.8519 58.896C90.6839 58.896 91.5639 58.912 92.4919 58.944C93.4519 58.976 94.6679 58.992 96.1399 58.992C96.2359 58.992 96.4439 58.992 96.7639 58.992C97.0839 58.992 97.4199 58.992 97.7719 58.992C98.1559 58.96 98.5079 58.944 98.8279 58.944C99.1799 58.944 99.4359 58.944 99.5959 58.944C99.6279 58.912 99.7079 58.896 99.8359 58.896C99.9639 58.864 100.092 58.848 100.22 58.848C100.38 58.848 100.524 58.848 100.652 58.848C100.78 58.848 100.86 58.848 100.892 58.848C101.468 58.848 102.028 58.848 102.572 58.848C103.116 58.848 103.708 58.88 104.348 58.944C104.572 58.976 104.844 58.992 105.164 58.992C105.484 58.992 105.772 59.088 106.028 59.28C106.252 59.44 106.428 59.552 106.556 59.616C106.716 59.68 106.828 59.808 106.892 60C106.988 60.288 107.036 60.64 107.036 61.056C107.068 61.44 107.084 61.664 107.084 61.728C107.084 61.888 107.084 62.128 107.084 62.448C107.116 62.736 107.084 63.104 106.988 63.552C106.956 63.616 106.892 63.76 106.796 63.984C106.7 64.208 106.492 64.32 106.172 64.32L102.476 64.464C102.284 64.464 101.98 64.48 101.564 64.512C101.18 64.512 100.764 64.528 100.316 64.56C99.8999 64.56 99.5159 64.56 99.1639 64.56C98.8119 64.56 98.5719 64.56 98.4439 64.56C97.8999 64.56 97.3559 64.544 96.8119 64.512C96.2999 64.48 95.7719 64.432 95.2279 64.368C94.7479 64.336 94.2999 64.32 93.8839 64.32C93.4679 64.288 93.0679 64.288 92.6839 64.32C92.2999 64.352 91.8839 64.384 91.4359 64.416C91.0199 64.416 90.5559 64.416 90.0439 64.416Z" fill="black"/>
<path d="M62.7936 139.672C62.7936 139.512 62.7616 139.32 62.6976 139.096C62.6656 138.84 62.6816 138.632 62.7456 138.472C62.8416 138.184 63.0016 137.992 63.2256 137.896C63.4496 137.8 63.6896 137.72 63.9456 137.656C64.1696 137.592 64.4896 137.56 64.9056 137.56C65.3536 137.56 65.8176 137.592 66.2976 137.656C66.7776 137.72 67.2256 137.832 67.6416 137.992C68.0576 138.12 68.3456 138.296 68.5056 138.52C68.9856 139.192 69.3376 139.864 69.5616 140.536C69.7856 141.208 69.9296 141.976 69.9936 142.84C70.0256 143.512 70.0736 144.136 70.1376 144.712C70.2016 145.288 70.2656 145.864 70.3296 146.44C70.3936 146.984 70.4416 147.544 70.4736 148.12C70.5376 148.696 70.5856 149.32 70.6176 149.992C70.6496 150.632 70.6656 151.224 70.6656 151.768C70.6976 152.312 70.7136 152.84 70.7136 153.352C70.7136 153.832 70.7136 154.344 70.7136 154.888C70.7456 155.432 70.7616 156.024 70.7616 156.664C70.7616 157.112 70.7776 157.496 70.8096 157.816C70.8736 158.104 70.9216 158.392 70.9536 158.68C70.9856 158.968 71.0176 159.272 71.0496 159.592C71.0816 159.88 71.0976 160.248 71.0976 160.696C71.0656 161.72 71.0016 162.728 70.9056 163.72C70.8096 164.712 70.6976 165.72 70.5696 166.744C70.5376 166.936 70.4576 167.144 70.3296 167.368C70.2016 167.56 70.1056 167.736 70.0416 167.896C69.7216 168.056 69.2896 168.072 68.7456 167.944C68.2016 167.784 67.6256 167.608 67.0176 167.416C66.4416 167.224 65.8816 167.096 65.3376 167.032C64.7936 166.968 64.3616 167.08 64.0416 167.368C63.4016 166.344 63.0176 165.304 62.8896 164.248C62.7936 163.16 62.7776 162.056 62.8416 160.936C62.8736 160.104 62.8896 159.4 62.8896 158.824C62.9216 158.216 62.9376 157.672 62.9376 157.192C62.9696 156.712 62.9856 156.28 62.9856 155.896C62.9856 155.48 62.9856 155.064 62.9856 154.648C62.9856 153.816 63.0016 152.808 63.0336 151.624C63.0656 150.44 63.0496 148.824 62.9856 146.776L62.7936 139.672ZM42.2496 145.72C42.2816 145.976 42.3136 146.312 42.3456 146.728C42.3776 147.112 42.3776 147.4 42.3456 147.592C42.2496 148.232 42.1856 148.872 42.1536 149.512C42.1216 150.152 42.0896 150.792 42.0576 151.432C42.0256 152.04 41.9776 152.744 41.9136 153.544C41.8816 154.312 41.8656 154.984 41.8656 155.56C41.8656 155.88 41.8656 156.088 41.8656 156.184C41.8656 156.248 41.8656 156.296 41.8656 156.328C41.8656 156.36 41.8496 156.424 41.8176 156.52C41.8176 156.584 41.8016 156.776 41.7696 157.096C41.7696 157.224 41.7696 157.384 41.7696 157.576C41.7696 157.736 41.8016 157.896 41.8656 158.056C41.9616 158.216 42.1056 158.344 42.2976 158.44C42.4896 158.536 42.7616 158.568 43.1136 158.536C43.5936 158.536 44.1216 158.536 44.6976 158.536C45.2736 158.504 45.8656 158.488 46.4736 158.488C47.0816 158.488 47.6736 158.488 48.2496 158.488C48.8256 158.488 49.3376 158.472 49.7856 158.44C50.7456 158.28 51.7856 158.184 52.9056 158.152C54.0576 158.088 55.1136 157.976 56.0736 157.816C56.1696 157.816 56.2656 157.912 56.3616 158.104C56.4896 158.264 56.6016 158.472 56.6976 158.728C56.8256 158.952 56.9216 159.176 56.9856 159.4C57.0816 159.624 57.1456 159.768 57.1776 159.832C57.2416 159.896 57.2736 160.088 57.2736 160.408C57.2736 160.728 57.2416 161.08 57.1776 161.464C57.1456 161.816 57.0976 162.152 57.0336 162.472C56.9696 162.76 56.9056 162.92 56.8416 162.952C56.7136 163.144 56.5216 163.4 56.2656 163.72C56.0096 164.04 55.7536 164.232 55.4976 164.296C55.1456 164.36 54.6976 164.392 54.1536 164.392C53.6416 164.36 53.0976 164.344 52.5216 164.344C51.9776 164.344 51.4336 164.36 50.8896 164.392C50.3456 164.392 49.9136 164.424 49.5936 164.488L41.5296 164.584C41.0496 164.744 40.5856 164.824 40.1376 164.824C38.6656 164.824 37.5776 164.504 36.8736 163.864C36.2016 163.192 35.8816 162.136 35.9136 160.696C35.9136 160.152 35.9136 159.592 35.9136 159.016C35.9456 158.44 35.9776 157.864 36.0096 157.288C36.0096 157 36.0096 156.616 36.0096 156.136C36.0096 155.656 36.0096 155.16 36.0096 154.648C36.0416 154.104 36.0576 153.592 36.0576 153.112C36.0896 152.632 36.1376 152.248 36.2016 151.96C36.2656 151.352 36.3616 150.584 36.4896 149.656C36.6496 148.728 36.8256 147.976 37.0176 147.4C37.1456 147.08 37.4656 146.792 37.9776 146.536C38.5216 146.248 38.9696 146.072 39.3216 146.008C39.3856 146.008 39.5456 146.008 39.8016 146.008C40.0896 145.976 40.3936 145.944 40.7136 145.912C41.0336 145.88 41.3376 145.848 41.6256 145.816C41.9136 145.784 42.1216 145.752 42.2496 145.72ZM36.0096 144.04L35.7696 143.56C35.1936 142.376 35.4816 141.432 36.6336 140.728C36.9536 140.568 37.2576 140.408 37.5456 140.248C37.8336 140.088 38.1536 139.976 38.5056 139.912C39.6576 139.624 40.9536 139.416 42.3936 139.288C43.8656 139.128 45.3536 139.048 46.8576 139.048C48.3936 139.048 49.8816 139.128 51.3216 139.288C52.7616 139.448 54.0576 139.688 55.2096 140.008C55.7536 140.232 56.0896 140.376 56.2176 140.44C56.3776 140.504 56.2976 140.744 55.9776 141.16C55.7856 141.448 55.6736 141.624 55.6416 141.688C55.6416 141.752 55.4976 141.864 55.2096 142.024C54.8896 142.248 54.5536 142.52 54.2016 142.84C53.8496 143.16 53.4976 143.48 53.1456 143.8C52.7936 144.12 52.4256 144.392 52.0416 144.616C51.6896 144.84 51.3216 144.952 50.9376 144.952L42.2976 144.184L36.0096 144.04Z" fill="black"/>
<path d="M92.6584 171.418C92.4064 172.398 92.1124 173.35 91.7764 174.274C91.4684 175.198 91.2024 176.192 90.9784 177.256C90.9224 177.48 90.8524 177.802 90.7684 178.222C90.6844 178.642 90.5864 179.09 90.4744 179.566C90.3904 180.014 90.2924 180.448 90.1804 180.868C90.0964 181.26 89.9984 181.526 89.8864 181.666C89.8864 182.03 89.8444 182.394 89.7604 182.758C89.6764 183.094 89.6344 183.43 89.6344 183.766C89.6344 183.822 89.5924 183.906 89.5084 184.018C89.4244 184.13 89.3824 184.214 89.3824 184.27C89.3264 184.438 89.2984 184.578 89.2984 184.69C89.2984 184.774 89.2984 184.844 89.2984 184.9C89.2984 184.956 89.2704 185.012 89.2144 185.068C89.1584 185.124 89.0464 185.18 88.8784 185.236C88.8224 185.236 88.6404 185.278 88.3324 185.362C88.0524 185.418 87.8704 185.446 87.7864 185.446C87.6464 185.446 87.5064 185.348 87.3664 185.152L85.6444 185.32C85.6444 185.376 85.6024 185.418 85.5184 185.446C85.4344 185.446 85.3644 185.446 85.3084 185.446C85.0004 185.446 84.7764 185.39 84.6364 185.278C84.4964 185.138 84.3844 184.984 84.3004 184.816C84.2444 184.62 84.2164 184.41 84.2164 184.186C84.2164 183.962 84.2164 183.752 84.2164 183.556C84.2164 182.604 84.3284 181.694 84.5524 180.826C84.8044 179.93 85.0004 179.034 85.1404 178.138C85.2804 177.41 85.4344 176.682 85.6024 175.954C85.7704 175.226 85.9104 174.512 86.0224 173.812C86.1064 173.084 86.2604 172.384 86.4844 171.712C86.7084 171.012 86.8624 170.298 86.9464 169.57C87.0304 169.094 87.1424 168.632 87.2824 168.184C87.4224 167.736 87.5624 167.302 87.7024 166.882C87.8704 166.462 88.0104 166.028 88.1224 165.58C88.2344 165.132 88.2904 164.67 88.2904 164.194V163.9C87.6184 163.76 86.9184 163.676 86.1904 163.648C85.4904 163.592 84.8044 163.592 84.1324 163.648C83.9924 163.536 83.9224 163.452 83.9224 163.396C83.9224 163.34 83.8524 163.242 83.7124 163.102C83.4884 162.794 83.2784 162.528 83.0824 162.304C82.9144 162.08 82.8304 161.73 82.8304 161.254C82.8304 161.114 82.8304 160.918 82.8304 160.666C82.8304 160.414 82.9144 160.246 83.0824 160.162L83.9644 159.238H84.1324C84.2444 159.238 84.3424 159.266 84.4264 159.322C84.5384 159.378 84.6784 159.406 84.8464 159.406C84.9304 159.406 85.0704 159.406 85.2664 159.406C85.4904 159.378 85.7144 159.35 85.9384 159.322C86.1904 159.294 86.4284 159.266 86.6524 159.238C86.8764 159.182 87.0444 159.14 87.1564 159.112C87.4644 159.084 87.8424 159.056 88.2904 159.028C88.7384 159 89.5364 158.874 90.6844 158.65L90.9784 158.734C91.3424 158.734 91.6364 158.748 91.8604 158.776C92.0844 158.804 92.2804 158.846 92.4484 158.902C92.6164 158.93 92.7984 158.958 92.9944 158.986C93.2184 159.014 93.4984 159.028 93.8344 159.028C93.9184 159.028 94.0304 159.042 94.1704 159.07C94.3384 159.07 94.5064 159.07 94.6744 159.07C94.8424 159.07 94.9964 159.084 95.1364 159.112C95.2764 159.112 95.3744 159.112 95.4304 159.112C95.8224 159.168 96.3264 159.224 96.9424 159.28C97.5584 159.308 98.1744 159.35 98.7904 159.406C99.4344 159.462 100.036 159.532 100.596 159.616C101.156 159.7 101.576 159.812 101.856 159.952C101.912 159.952 102.024 160.036 102.192 160.204C102.36 160.344 102.472 160.414 102.528 160.414C102.612 160.47 102.696 160.512 102.78 160.54C102.892 160.568 102.948 160.68 102.948 160.876C102.948 160.932 102.962 161.044 102.99 161.212C103.046 161.352 103.088 161.534 103.116 161.758C103.144 161.954 103.13 162.164 103.074 162.388C103.046 162.612 102.948 162.808 102.78 162.976C102.696 163.06 102.612 163.13 102.528 163.186L102.276 163.354C101.94 163.41 101.66 163.438 101.436 163.438C101.24 163.438 101.002 163.438 100.722 163.438C99.9384 163.438 99.2244 163.396 98.5804 163.312C97.9644 163.228 97.2504 163.186 96.4384 163.186H96.3544C95.8784 163.41 95.5424 163.704 95.3464 164.068C95.1504 164.404 95.0524 164.81 95.0524 165.286C95.0524 165.678 95.1504 166.154 95.3464 166.714C95.5424 167.274 95.7804 167.848 96.0604 168.436C96.3404 168.996 96.6204 169.542 96.9004 170.074C97.1804 170.578 97.4044 170.984 97.5724 171.292C97.5724 171.32 97.5864 171.348 97.6144 171.376V171.46C97.6144 171.488 97.6284 171.502 97.6564 171.502C97.8244 171.978 98.0064 172.426 98.2024 172.846C98.3984 173.238 98.5804 173.658 98.7484 174.106C98.9164 174.582 99.1124 175.128 99.3364 175.744C99.5604 176.332 99.7704 176.948 99.9664 177.592C100.19 178.208 100.372 178.824 100.512 179.44C100.68 180.028 100.806 180.574 100.89 181.078C100.946 181.554 101.1 182.086 101.352 182.674C101.604 183.234 101.73 183.794 101.73 184.354V184.606C101.73 184.802 101.702 184.914 101.646 184.942C101.506 184.998 101.366 185.054 101.226 185.11C101.086 185.138 100.96 185.194 100.848 185.278C100.82 185.306 100.736 185.348 100.596 185.404C100.456 185.432 100.302 185.46 100.134 185.488C99.9944 185.488 99.8404 185.474 99.6724 185.446C99.5324 185.39 99.4344 185.292 99.3784 185.152C99.0704 185.32 98.8044 185.404 98.5804 185.404C98.4404 185.404 98.2584 185.292 98.0344 185.068C97.8104 184.844 97.6704 184.662 97.6144 184.522C97.5304 184.298 97.4884 184.06 97.4884 183.808C97.4884 183.556 97.4184 183.332 97.2784 183.136C97.0544 182.408 96.8444 181.792 96.6484 181.288C96.4524 180.784 96.2704 180.21 96.1024 179.566C95.9904 179.09 95.8504 178.6 95.6824 178.096C95.5144 177.592 95.3464 177.088 95.1784 176.584C95.0384 176.164 94.8704 175.744 94.6744 175.324C94.5064 174.876 94.2964 174.456 94.0444 174.064C93.9324 173.924 93.8344 173.784 93.7504 173.644C93.6944 173.504 93.6104 173.336 93.4984 173.14C93.4144 172.944 93.3024 172.706 93.1624 172.426C93.0504 172.146 92.8824 171.81 92.6584 171.418ZM107.358 180.868C107.358 179.972 107.428 179.132 107.568 178.348C107.708 177.564 107.778 176.724 107.778 175.828C107.806 175.744 107.834 175.59 107.862 175.366C107.89 175.114 107.918 174.848 107.946 174.568C107.974 174.288 107.988 174.022 107.988 173.77C107.988 173.49 107.988 173.266 107.988 173.098L108.03 172.132L104.67 172.174C104.026 172.174 103.48 172.118 103.032 172.006C102.612 171.866 102.248 171.726 101.94 171.586C101.464 171.362 101.114 171.152 100.89 170.956C100.666 170.76 100.428 170.508 100.176 170.2C100.036 170.032 99.9944 169.822 100.05 169.57C100.05 169.458 100.078 169.332 100.134 169.192C100.134 168.604 100.386 168.31 100.89 168.31C101.618 168.31 102.346 168.254 103.074 168.142C103.802 168.03 104.53 167.946 105.258 167.89C105.37 167.89 105.566 167.89 105.846 167.89C106.126 167.89 106.42 167.876 106.728 167.848C107.064 167.848 107.442 167.834 107.862 167.806L107.988 167.722C108.044 167.526 108.044 167.4 107.988 167.344C107.96 167.26 107.96 167.106 107.988 166.882C108.016 166.406 108.016 165.888 107.988 165.328C107.988 164.768 107.96 164.208 107.904 163.648C107.876 163.088 107.848 162.556 107.82 162.052C107.792 161.52 107.778 161.058 107.778 160.666C107.778 160.274 107.778 159.966 107.778 159.742C107.778 159.49 107.806 159.154 107.862 158.734C108.17 158.678 108.394 158.636 108.534 158.608C108.702 158.58 108.828 158.552 108.912 158.524C109.024 158.496 109.122 158.482 109.206 158.482C109.318 158.482 109.472 158.482 109.668 158.482C109.724 158.482 109.85 158.51 110.046 158.566C110.27 158.622 110.41 158.664 110.466 158.692C110.914 158.832 111.334 158.944 111.726 159.028C112.118 159.112 112.454 159.35 112.734 159.742C112.902 159.994 113.014 160.246 113.07 160.498C113.126 160.75 113.182 161.016 113.238 161.296C113.434 162.024 113.588 162.766 113.7 163.522C113.812 164.278 113.882 165.09 113.91 165.958C113.966 166.798 113.994 167.722 113.994 168.73C114.022 169.71 114.036 170.802 114.036 172.006C114.036 173.322 114.008 174.624 113.952 175.912C113.896 177.2 113.868 178.558 113.868 179.986V183.22C113.868 183.528 113.84 183.78 113.784 183.976C113.756 184.172 113.7 184.354 113.616 184.522C113.532 184.69 113.434 184.858 113.322 185.026C113.21 185.166 113.098 185.362 112.986 185.614C112.93 185.754 112.902 185.838 112.902 185.866C112.902 185.894 112.818 185.908 112.65 185.908C112.594 185.908 112.524 185.908 112.44 185.908C112.356 185.88 112.342 185.824 112.398 185.74L111.81 186.16H109.248C109.164 186.16 109.066 186.104 108.954 185.992C108.87 185.852 108.772 185.698 108.66 185.53C108.548 185.362 108.436 185.208 108.324 185.068C108.212 184.9 108.114 184.788 108.03 184.732C107.946 184.676 107.862 184.564 107.778 184.396C107.694 184.228 107.624 184.046 107.568 183.85C107.512 183.626 107.456 183.416 107.4 183.22C107.372 183.024 107.358 182.87 107.358 182.758V180.868Z" fill="black"/>
<path d="M142.387 192.732C142.243 192.804 142.063 192.888 141.847 192.984C141.655 193.08 141.583 193.236 141.631 193.452C141.679 193.572 141.655 193.656 141.559 193.704C141.463 193.752 141.355 193.788 141.235 193.812C141.115 193.86 140.995 193.908 140.875 193.956C140.779 193.98 140.683 193.992 140.587 193.992C140.347 193.992 139.963 194.016 139.435 194.064C138.907 194.112 138.343 194.172 137.743 194.244C137.167 194.292 136.615 194.34 136.087 194.388C135.559 194.436 135.187 194.472 134.971 194.496C134.803 194.544 134.359 194.568 133.639 194.568C132.919 194.568 132.127 194.568 131.263 194.568C130.423 194.544 129.619 194.532 128.851 194.532C128.107 194.508 127.603 194.508 127.339 194.532C127.219 194.556 126.955 194.58 126.547 194.604C126.139 194.604 125.647 194.604 125.071 194.604C124.519 194.604 123.907 194.604 123.235 194.604C122.587 194.58 121.963 194.556 121.363 194.532C120.787 194.508 120.271 194.472 119.815 194.424C119.359 194.376 119.047 194.328 118.879 194.28C118.231 194.136 117.835 193.788 117.691 193.236C117.571 192.9 117.475 192.456 117.403 191.904C117.331 191.328 117.319 190.872 117.367 190.536C117.439 190.176 117.571 189.9 117.763 189.708C117.955 189.492 118.207 189.3 118.519 189.132L118.915 188.916L121.759 189.168C122.143 189.216 122.587 189.252 123.091 189.276C123.595 189.3 124.135 189.312 124.711 189.312C125.287 189.312 125.863 189.324 126.439 189.348C127.039 189.348 127.615 189.36 128.167 189.384H132.415C132.511 189.384 132.667 189.396 132.883 189.42C133.123 189.42 133.363 189.42 133.603 189.42C133.843 189.42 134.071 189.42 134.287 189.42C134.503 189.42 134.659 189.42 134.755 189.42C135.427 189.42 136.171 189.42 136.987 189.42C137.803 189.42 138.535 189.36 139.183 189.24C139.807 189.12 140.383 189.072 140.911 189.096C141.439 189.096 141.823 189.264 142.063 189.6C142.111 189.672 142.171 189.816 142.243 190.032C142.315 190.224 142.375 190.464 142.423 190.752C142.471 191.04 142.495 191.364 142.495 191.724C142.495 192.06 142.459 192.396 142.387 192.732ZM124.171 185.928C123.475 185.928 122.947 185.76 122.587 185.424C122.227 185.088 121.879 184.572 121.543 183.876C121.423 183.588 121.327 183.264 121.255 182.904C121.183 182.544 121.123 182.172 121.075 181.788C121.051 181.38 121.027 180.984 121.003 180.6C121.003 180.216 121.003 179.88 121.003 179.592C121.003 178.848 121.015 178.14 121.039 177.468C121.063 176.796 121.135 176.112 121.255 175.416L121.651 173.58C121.363 173.604 121.111 173.652 120.895 173.724C120.679 173.772 120.451 173.736 120.211 173.616C119.731 173.256 119.563 172.752 119.707 172.104C119.803 171.84 120.007 171.552 120.319 171.24C120.631 170.928 120.943 170.772 121.255 170.772C121.471 170.772 121.663 170.724 121.831 170.628C122.023 170.532 122.251 170.508 122.515 170.556L123.775 170.448C123.991 170.424 124.147 170.412 124.243 170.412C124.363 170.388 124.471 170.364 124.567 170.34C124.663 170.316 124.783 170.304 124.927 170.304C125.071 170.28 125.287 170.268 125.575 170.268C125.575 170.268 125.647 170.268 125.791 170.268C125.935 170.244 126.091 170.232 126.259 170.232C126.451 170.208 126.619 170.196 126.763 170.196C126.907 170.196 126.979 170.196 126.979 170.196C128.779 169.932 130.591 169.848 132.415 169.944C134.239 170.016 135.991 170.352 137.671 170.952C138.079 171.096 138.307 171.264 138.355 171.456C138.427 171.648 138.367 171.912 138.175 172.248C138.055 172.416 137.971 172.584 137.923 172.752C137.899 172.92 137.851 173.088 137.779 173.256C137.659 173.52 137.491 173.784 137.275 174.048C137.083 174.288 136.783 174.408 136.375 174.408H134.719L132.523 174.156C132.211 174.132 131.947 174.12 131.731 174.12C131.539 174.096 131.323 174.084 131.083 174.084C130.843 174.06 130.531 174.048 130.147 174.048C129.787 174.048 129.271 174.036 128.599 174.012H125.035C124.963 174.276 124.903 174.492 124.855 174.66C124.831 174.804 124.807 174.948 124.783 175.092C124.783 175.236 124.783 175.38 124.783 175.524C124.783 175.668 124.783 175.848 124.783 176.064C125.551 176.112 126.367 176.16 127.231 176.208C128.095 176.232 128.959 176.268 129.823 176.316C130.711 176.34 131.575 176.376 132.415 176.424C133.255 176.448 134.035 176.484 134.755 176.532C134.923 176.532 135.091 176.544 135.259 176.568C135.451 176.568 135.607 176.58 135.727 176.604C136.207 176.676 136.531 176.772 136.699 176.892C136.867 176.988 137.059 177.132 137.275 177.324C137.611 177.564 137.755 177.9 137.707 178.332C137.659 178.764 137.455 179.052 137.095 179.196C136.879 179.292 136.651 179.424 136.411 179.592C136.195 179.736 135.991 179.796 135.799 179.772C134.503 179.652 133.315 179.568 132.235 179.52C131.155 179.472 130.171 179.472 129.283 179.52C129.067 179.52 128.743 179.508 128.311 179.484C127.903 179.46 127.459 179.448 126.979 179.448C126.523 179.424 126.079 179.4 125.647 179.376C125.215 179.352 124.903 179.34 124.711 179.34C124.687 179.46 124.663 179.616 124.639 179.808C124.639 180 124.639 180.204 124.639 180.42C124.639 180.612 124.639 180.804 124.639 180.996C124.663 181.164 124.699 181.284 124.747 181.356C124.843 181.524 125.083 181.656 125.467 181.752C125.851 181.848 126.271 181.92 126.727 181.968C127.183 182.016 127.627 182.052 128.059 182.076C128.515 182.076 128.851 182.076 129.067 182.076C130.507 182.148 131.875 182.148 133.171 182.076C134.467 181.98 135.823 181.932 137.239 181.932C137.503 181.932 137.767 181.98 138.031 182.076C138.295 182.172 138.535 182.28 138.751 182.4C138.799 182.448 138.835 182.556 138.859 182.724C138.907 182.892 138.931 183.072 138.931 183.264C138.955 183.456 138.967 183.648 138.967 183.84C138.991 184.032 139.003 184.176 139.003 184.272C139.003 184.488 138.895 184.764 138.679 185.1C138.487 185.436 138.259 185.616 137.995 185.64C137.251 185.712 136.339 185.76 135.259 185.784C134.203 185.808 133.051 185.832 131.803 185.856C130.579 185.856 129.307 185.868 127.987 185.892C126.667 185.892 125.395 185.904 124.171 185.928Z" fill="black"/>
<path d="M51.0702 116.176C51.1982 116.208 51.3182 116.24 51.4302 116.272C51.5422 116.304 51.6382 116.344 51.7182 116.392C52.2142 116.568 52.7022 116.688 53.1822 116.752C53.6622 116.816 54.1422 116.848 54.6222 116.848C55.3902 116.896 56.1422 116.936 56.8782 116.968C57.6302 117 58.3902 117.024 59.1582 117.04C59.6382 117.056 60.1742 117.064 60.7662 117.064C61.3582 117.064 61.9582 117.064 62.5662 117.064C63.1742 117.048 63.7742 117.04 64.3662 117.04C64.9582 117.04 65.4942 117.04 65.9742 117.04C66.3902 117.072 66.7582 117.192 67.0782 117.4C67.3982 117.608 67.7422 117.872 68.1102 118.192C68.0302 118.272 67.9582 118.344 67.8942 118.408C67.8302 118.456 67.7582 118.512 67.6782 118.576C67.6942 118.704 67.7182 118.824 67.7502 118.936C67.7822 119.032 67.7982 119.12 67.7982 119.2C67.8142 119.28 67.8222 119.336 67.8222 119.368C67.7102 119.512 67.5902 119.672 67.4622 119.848C67.3342 120.024 67.1902 120.184 67.0302 120.328C66.9342 120.392 66.8142 120.432 66.6702 120.448C66.5262 120.448 66.3902 120.448 66.2622 120.448C65.9742 120.448 65.6382 120.44 65.2542 120.424C64.8862 120.408 64.5022 120.392 64.1022 120.376C63.7022 120.36 63.3102 120.352 62.9262 120.352C62.5422 120.336 62.2062 120.328 61.9182 120.328C60.9582 120.312 60.0062 120.304 59.0622 120.304C58.1342 120.304 57.1902 120.304 56.2302 120.304C55.8302 120.32 55.4222 120.352 55.0062 120.4C54.6062 120.432 54.2062 120.448 53.8062 120.448C53.3262 120.48 52.8542 120.456 52.3902 120.376C51.9422 120.296 51.5102 120.152 51.0942 119.944C50.8862 119.848 50.7182 119.72 50.5902 119.56C50.4622 119.384 50.3582 119.192 50.2782 118.984C50.2142 118.776 50.1822 118.56 50.1822 118.336C50.1822 118.096 50.2142 117.872 50.2782 117.664C50.3102 117.584 50.3422 117.496 50.3742 117.4C50.4222 117.304 50.4702 117.208 50.5182 117.112C50.5822 116.968 50.6542 116.824 50.7342 116.68C50.8302 116.52 50.9422 116.352 51.0702 116.176ZM62.2062 115.384C61.9182 115.16 61.7502 114.952 61.7022 114.76C61.6702 114.552 61.6542 114.384 61.6542 114.256C61.6542 114.032 61.6542 113.84 61.6542 113.68C61.6542 113.504 61.6542 113.32 61.6542 113.128C61.6542 112.936 61.6542 112.712 61.6542 112.456C61.6542 112.184 61.6622 111.84 61.6782 111.424C61.6942 111.216 61.6942 111.032 61.6782 110.872C61.6782 110.712 61.6622 110.544 61.6302 110.368C61.6142 110.176 61.5742 109.96 61.5102 109.72C61.4622 109.48 61.4062 109.192 61.3422 108.856L55.1262 109.24C54.7742 109.224 54.4142 109.12 54.0462 108.928C53.6782 108.72 53.3342 108.504 53.0142 108.28C52.9342 108.232 52.8622 108.136 52.7982 107.992C52.7342 107.832 52.6622 107.664 52.5822 107.488C52.5182 107.296 52.4542 107.12 52.3902 106.96C52.3262 106.8 52.2702 106.68 52.2222 106.6C52.0782 106.392 52.0222 106.232 52.0542 106.12C52.1022 105.992 52.2622 105.888 52.5342 105.808C52.9182 105.696 53.3902 105.608 53.9502 105.544C54.5262 105.464 55.1422 105.408 55.7982 105.376C56.4542 105.328 57.1342 105.312 57.8382 105.328C58.5582 105.328 59.2542 105.344 59.9262 105.376C60.5982 105.408 61.2142 105.456 61.7742 105.52C62.3502 105.584 62.8382 105.664 63.2382 105.76C63.4142 105.792 63.6142 105.848 63.8382 105.928C64.0622 105.992 64.2462 106.064 64.3902 106.144C64.6782 106.32 64.8622 106.512 64.9422 106.72C65.0222 106.928 65.0702 107.2 65.0862 107.536L65.1342 108.544C65.1982 108.832 65.2302 109.12 65.2302 109.408C65.2462 109.68 65.2382 109.952 65.2062 110.224C65.1902 110.48 65.1662 110.744 65.1342 111.016C65.1022 111.288 65.0942 111.56 65.1102 111.832C65.1102 111.912 65.0942 112.016 65.0622 112.144C65.0462 112.256 65.0222 112.384 64.9902 112.528C64.9582 112.656 64.9262 112.784 64.8942 112.912C64.8622 113.04 64.8462 113.144 64.8462 113.224L64.6782 114.568C64.5502 114.648 64.3982 114.744 64.2222 114.856C64.0622 114.968 63.8782 115.072 63.6702 115.168C63.4622 115.248 63.2302 115.312 62.9742 115.36C62.7342 115.408 62.4782 115.416 62.2062 115.384ZM83.5503 120.664C83.3583 120.536 83.2063 120.352 83.0943 120.112C82.9823 119.872 82.9023 119.616 82.8543 119.344C82.8063 119.072 82.7743 118.8 82.7583 118.528C82.7583 118.256 82.7583 118.024 82.7583 117.832C82.7423 117.08 82.7663 116.32 82.8303 115.552C82.8783 114.976 82.9023 114.432 82.9023 113.92C82.9183 113.392 82.9183 112.88 82.9023 112.384C82.9023 111.872 82.9023 111.36 82.9023 110.848C82.9023 110.32 82.9183 109.768 82.9503 109.192C82.9823 108.52 82.9823 107.912 82.9503 107.368C82.9343 106.824 82.9103 106.232 82.8783 105.592C82.8783 105.096 83.1023 104.736 83.5503 104.512C83.7743 104.416 83.9983 104.376 84.2223 104.392C84.4463 104.392 84.6543 104.48 84.8463 104.656C85.0063 104.8 85.1903 104.944 85.3983 105.088C85.6223 105.232 85.8303 105.392 86.0223 105.568C86.2303 105.728 86.4063 105.896 86.5503 106.072C86.6943 106.248 86.7823 106.44 86.8143 106.648C86.8943 107.208 86.9663 107.72 87.0303 108.184C87.0943 108.632 87.1503 109.136 87.1983 109.696C87.2623 110.592 87.3183 111.48 87.3663 112.36C87.4303 113.224 87.4223 114.096 87.3423 114.976C87.3103 115.296 87.2863 115.592 87.2703 115.864C87.2703 116.12 87.2623 116.376 87.2463 116.632C87.2463 116.872 87.2383 117.128 87.2223 117.4C87.2063 117.656 87.1903 117.936 87.1743 118.24C87.1583 118.528 87.1423 118.816 87.1263 119.104C87.1263 119.376 87.1263 119.672 87.1263 119.992C87.1263 120.344 87.0623 120.576 86.9343 120.688C86.8063 120.784 86.5583 120.816 86.1903 120.784C86.0143 120.752 85.8543 120.768 85.7103 120.832C85.6783 120.832 85.6063 120.84 85.4943 120.856C85.3823 120.856 85.2543 120.856 85.1103 120.856C84.9823 120.856 84.8543 120.856 84.7263 120.856C84.6143 120.856 84.5263 120.848 84.4623 120.832L83.5503 120.664ZM80.1423 118.744C79.7743 118.872 79.4223 118.96 79.0863 119.008C78.7503 119.04 78.4223 119.096 78.1023 119.176C77.9423 119.208 77.7423 119.24 77.5023 119.272C77.2783 119.288 77.0383 119.304 76.7823 119.32C76.5423 119.336 76.3023 119.344 76.0623 119.344C75.8383 119.344 75.6543 119.344 75.5103 119.344C75.3183 119.344 75.0703 119.352 74.7663 119.368C74.4783 119.368 74.1743 119.368 73.8543 119.368C73.5503 119.368 73.2543 119.36 72.9663 119.344C72.6783 119.328 72.4383 119.304 72.2463 119.272C71.8143 119.176 71.3903 119.048 70.9743 118.888C70.5743 118.712 70.2623 118.424 70.0383 118.024C69.8943 117.8 69.7823 117.592 69.7023 117.4C69.6383 117.208 69.5903 117.024 69.5583 116.848C69.5263 116.656 69.5023 116.464 69.4863 116.272C69.4863 116.064 69.4783 115.84 69.4623 115.6C69.4303 115.184 69.4303 114.8 69.4623 114.448C69.4943 114.096 69.5343 113.712 69.5823 113.296C69.6303 112.64 69.8223 112.064 70.1583 111.568C70.5103 111.072 71.0063 110.736 71.6463 110.56C71.8543 110.512 72.1103 110.472 72.4143 110.44C72.7183 110.408 73.0223 110.376 73.3263 110.344C73.6463 110.312 73.9583 110.28 74.2623 110.248C74.5663 110.2 74.8303 110.144 75.0543 110.08C75.2143 110.048 75.3183 110.016 75.3663 109.984C75.4303 109.952 75.4622 109.912 75.4622 109.864C75.4783 109.816 75.4863 109.76 75.4863 109.696C75.4863 109.632 75.5103 109.552 75.5583 109.456C75.5903 109.376 75.6623 109.256 75.7743 109.096C75.8863 108.92 75.9583 108.76 75.9903 108.616L76.1583 107.848C76.2063 107.576 76.1583 107.4 76.0143 107.32C75.8863 107.224 75.7103 107.168 75.4863 107.152C75.1023 107.104 74.7503 107.088 74.4303 107.104C74.1103 107.12 73.7903 107.152 73.4703 107.2C73.1663 107.248 72.8543 107.296 72.5343 107.344C72.2303 107.376 71.8943 107.376 71.5263 107.344C71.3023 107.312 71.1103 107.272 70.9503 107.224C70.8063 107.176 70.6943 107.08 70.6143 106.936C70.5983 106.904 70.5823 106.832 70.5663 106.72C70.5663 106.608 70.5583 106.488 70.5423 106.36C70.5263 106.216 70.5103 106.088 70.4943 105.976C70.4943 105.848 70.4863 105.76 70.4703 105.712L70.5423 105.4C70.6223 105.32 70.7343 105.264 70.8783 105.232C71.0223 105.2 71.1503 105.2 71.2623 105.232C71.6303 105.264 72.0303 105.288 72.4623 105.304C72.9103 105.32 73.2943 105.36 73.6143 105.424L78.0543 105.736C78.1503 105.784 78.2703 105.872 78.4143 106C78.5583 106.128 78.5823 106.36 78.4863 106.696C78.4543 107.016 78.4303 107.312 78.4143 107.584C78.4143 107.856 78.3983 108.24 78.3663 108.736C78.3503 108.944 78.3343 109.176 78.3183 109.432C78.3023 109.672 78.2783 109.92 78.2463 110.176C78.2143 110.416 78.1663 110.648 78.1023 110.872C78.0383 111.096 77.9503 111.288 77.8383 111.448C77.7423 111.592 77.6303 111.776 77.5023 112C77.3903 112.208 77.2623 112.376 77.1183 112.504C76.9423 112.632 76.7103 112.696 76.4223 112.696C76.1343 112.696 75.8543 112.68 75.5823 112.648C75.0383 112.632 74.5663 112.696 74.1663 112.84C73.7823 112.984 73.3583 113.136 72.8943 113.296C72.6703 113.36 72.5023 113.496 72.3903 113.704C72.2943 113.912 72.2383 114.152 72.2223 114.424C72.2223 114.536 72.2143 114.624 72.1983 114.688C72.1983 114.752 72.1983 114.808 72.1983 114.856C72.1983 114.904 72.1983 114.968 72.1983 115.048C72.1983 115.112 72.1983 115.2 72.1983 115.312C72.1983 115.52 72.1983 115.64 72.1983 115.672C72.1983 115.688 72.1983 115.696 72.1983 115.696C72.1983 115.68 72.1983 115.688 72.1983 115.72C72.2143 115.752 72.2303 115.864 72.2463 116.056C72.3103 116.408 72.4943 116.624 72.7983 116.704C73.1023 116.784 73.4623 116.864 73.8783 116.944C74.0703 116.976 74.2463 117 74.4062 117.016C74.5663 117.032 74.7663 117.04 75.0063 117.04C75.2143 117.04 75.4383 117.024 75.6783 116.992C75.9183 116.944 76.1343 116.904 76.3263 116.872C76.4703 116.856 76.6463 116.84 76.8543 116.824C77.0623 116.808 77.2703 116.8 77.4783 116.8C77.6863 116.784 77.8863 116.776 78.0783 116.776C78.2703 116.76 78.4383 116.744 78.5823 116.728C78.8543 116.68 79.0783 116.648 79.2543 116.632C79.4303 116.6 79.5823 116.648 79.7103 116.776C79.7423 116.808 79.7743 116.92 79.8063 117.112C79.8543 117.288 79.8943 117.488 79.9263 117.712C79.9583 117.92 79.9903 118.128 80.0223 118.336C80.0703 118.544 80.1103 118.68 80.1423 118.744ZM95.9537 117.16L95.9297 114.376L96.0017 112.864L96.0738 112.432C96.1537 112.16 96.2897 111.976 96.4817 111.88C96.6897 111.784 96.9137 111.848 97.1537 112.072C97.2657 112.168 97.4017 112.224 97.5617 112.24C97.7217 112.24 97.8817 112.24 98.0417 112.24C98.2017 112.24 98.3537 112.256 98.4977 112.288C98.6417 112.304 98.7537 112.384 98.8337 112.528C98.9457 112.752 99.0497 113.016 99.1457 113.32C99.2577 113.624 99.3457 113.944 99.4097 114.28C99.4738 114.6 99.5058 114.928 99.5058 115.264C99.5058 115.584 99.4738 115.872 99.4097 116.128C99.3618 116.256 99.3298 116.408 99.3137 116.584C99.3137 116.76 99.3057 116.936 99.2898 117.112C99.4018 117.128 99.5698 117.136 99.7938 117.136C100.018 117.136 100.17 117.136 100.25 117.136C100.858 117.136 101.474 117.136 102.098 117.136C102.722 117.136 103.33 117.144 103.922 117.16C104.29 117.16 104.658 117.144 105.026 117.112C105.41 117.064 105.786 117.072 106.154 117.136C106.938 117.344 107.586 117.808 108.098 118.528C107.954 118.72 107.794 118.92 107.618 119.128C107.458 119.32 107.33 119.504 107.234 119.68C107.186 119.808 107.114 119.904 107.018 119.968C106.938 120.016 106.85 120.056 106.754 120.088C106.658 120.104 106.554 120.12 106.442 120.136C106.346 120.136 106.25 120.16 106.154 120.208C106.026 120.256 105.906 120.288 105.794 120.304C105.682 120.304 105.562 120.304 105.434 120.304L98.1858 120.352C97.8017 120.336 97.4257 120.32 97.0577 120.304C96.7057 120.272 96.3617 120.24 96.0257 120.208C95.7377 120.16 95.4577 120.16 95.1857 120.208C94.9297 120.24 94.6817 120.24 94.4417 120.208C94.2657 120.208 94.0497 120.216 93.7937 120.232C93.5377 120.232 93.2737 120.24 93.0017 120.256C92.7297 120.272 92.4657 120.288 92.2097 120.304C91.9537 120.304 91.7377 120.296 91.5617 120.28C91.3057 120.264 91.0977 120.248 90.9377 120.232C90.7937 120.216 90.6737 120.184 90.5777 120.136C90.4977 120.072 90.4337 119.984 90.3857 119.872C90.3537 119.744 90.3137 119.568 90.2657 119.344C90.2497 119.152 90.2177 118.976 90.1697 118.816C90.1217 118.656 90.0577 118.488 89.9777 118.312C89.9457 118.2 89.9537 118.056 90.0017 117.88C90.0657 117.688 90.1457 117.504 90.2417 117.328C90.3537 117.152 90.4737 117 90.6017 116.872C90.7457 116.744 90.8897 116.68 91.0337 116.68C91.0977 116.68 91.1537 116.704 91.2017 116.752C91.3457 116.832 91.5297 116.888 91.7537 116.92C91.9777 116.952 92.2097 116.976 92.4497 116.992C92.6897 117.008 92.9217 117.024 93.1457 117.04C93.3857 117.04 93.5857 117.048 93.7457 117.064C94.0817 117.096 94.4497 117.112 94.8497 117.112C95.2657 117.096 95.6337 117.112 95.9537 117.16ZM102.074 114.472C101.786 114.264 101.618 114.056 101.57 113.848C101.538 113.64 101.522 113.472 101.522 113.344C101.538 112.912 101.546 112.432 101.546 111.904C101.546 111.376 101.546 110.848 101.546 110.32C101.546 110.048 101.53 109.8 101.498 109.576C101.482 109.336 101.442 109.016 101.378 108.616L101.234 107.32C100.194 107.32 99.1218 107.352 98.0178 107.416C96.9297 107.48 95.8417 107.576 94.7537 107.704C94.4017 107.688 94.0417 107.536 93.6737 107.248C93.3057 106.96 92.9617 106.712 92.6417 106.504C92.4977 106.424 92.3537 106.288 92.2097 106.096C92.0817 105.888 91.9617 105.712 91.8497 105.568C91.7057 105.376 91.6497 105.224 91.6817 105.112C91.7297 104.984 91.8897 104.872 92.1617 104.776C92.5457 104.664 93.0177 104.568 93.5777 104.488C94.1537 104.408 94.7697 104.344 95.4257 104.296C96.0817 104.232 96.7617 104.192 97.4657 104.176C98.1857 104.144 98.8817 104.136 99.5537 104.152C100.226 104.168 100.842 104.2 101.402 104.248C101.978 104.296 102.466 104.368 102.866 104.464C103.042 104.496 103.242 104.552 103.466 104.632C103.69 104.712 103.874 104.792 104.018 104.872C104.306 105.048 104.49 105.24 104.57 105.448C104.65 105.64 104.698 105.912 104.714 106.264L104.498 107.992C104.546 108.344 104.57 108.68 104.57 109C104.57 109.304 104.578 109.616 104.594 109.936L104.69 111.496C104.69 111.576 104.682 111.696 104.666 111.856C104.65 112 104.626 112.152 104.594 112.312C104.578 112.472 104.554 112.632 104.522 112.792C104.506 112.936 104.498 113.04 104.498 113.104L104.306 114.424C104.194 114.504 104.026 114.584 103.802 114.664C103.578 114.744 103.402 114.776 103.274 114.76L102.074 114.472Z" fill="black"/>
</svg>
