<svg width="153" height="123" viewBox="0 0 153 123" fill="none" xmlns="http://www.w3.org/2000/svg">
<path d="M76.5498 42.408C77.2751 42.8773 77.7658 43.2827 78.0218 43.624C78.2778 43.9227 78.5124 44.3067 78.7258 44.776C78.9818 45.3733 79.0244 46.2053 78.8538 47.272C78.6831 48.296 78.4058 49.0427 78.0218 49.512C77.5098 50.1093 76.9551 50.6 76.3578 50.984C75.7604 51.368 74.9711 51.5173 73.9898 51.432C73.5204 51.3893 73.0938 51.3253 72.7098 51.24C72.3258 51.112 71.9844 50.792 71.6858 50.28C71.4724 49.896 71.0244 49.448 70.3418 48.936C69.7018 48.424 69.1471 48.104 68.6778 47.976C68.6351 48.2747 68.6138 48.6587 68.6138 49.128C68.6138 49.5973 68.5924 49.9387 68.5498 50.152C68.4644 51.2613 68.3364 52.2427 68.1658 53.096C68.0378 53.9067 67.9311 54.8667 67.8458 55.976C67.8031 56.4027 67.7818 56.936 67.7818 57.576C67.8244 58.1733 67.8458 58.7067 67.8458 59.176C67.8458 59.9013 67.8458 60.648 67.8458 61.416C67.8458 62.184 67.8244 62.9307 67.7818 63.656C67.7818 63.8693 67.7604 64.0613 67.7178 64.232C67.6751 64.4027 67.6324 64.552 67.5898 64.68C67.2484 64.8933 66.8858 64.9573 66.5018 64.872C66.1178 64.7867 65.7551 64.8933 65.4138 65.192C65.1151 64.9787 64.8378 64.9147 64.5818 65C64.3684 65.0853 64.1124 65.2133 63.8138 65.384C63.5151 65.512 63.1951 65.6613 62.8538 65.832C62.5124 65.96 62.0858 65.96 61.5737 65.832L59.6538 66.472C59.3124 66.1733 59.0138 65.7893 58.7578 65.32C58.5444 64.8507 58.3738 64.36 58.2458 63.848C58.1178 63.2933 58.0324 62.76 57.9897 62.248C57.9897 61.6933 58.0111 61.1813 58.0538 60.712C58.0538 60.5413 58.0538 60.2 58.0538 59.688C58.0538 59.1333 58.0538 58.5573 58.0538 57.96C58.0538 57.3627 58.0538 56.808 58.0538 56.296C58.0538 55.7413 58.0538 55.3787 58.0538 55.208C58.0538 54.0987 58.0538 53.032 58.0538 52.008C58.0964 50.984 58.0538 49.9173 57.9258 48.808C57.9258 47.144 57.9684 45.4587 58.0538 43.752C58.1391 42.0453 58.2458 40.296 58.3738 38.504C58.4164 37.736 58.4591 36.9893 58.5018 36.264C58.5871 35.496 58.6298 34.728 58.6298 33.96C58.6298 32.936 58.7364 31.7413 58.9498 30.376C59.2058 28.968 59.5898 27.7733 60.1018 26.792C60.2724 26.792 60.5498 26.792 60.9338 26.792C61.3178 26.7493 61.7018 26.728 62.0858 26.728C62.4698 26.728 62.8324 26.7493 63.1738 26.792C63.5578 26.792 63.8351 26.792 64.0058 26.792C64.4751 26.8347 65.0298 26.92 65.6698 27.048C66.3524 27.176 66.8858 27.6453 67.2698 28.456C67.6538 29.1813 67.9311 30.1413 68.1018 31.336C68.2724 32.488 68.3791 33.704 68.4218 34.984C68.5071 36.264 68.5711 37.5013 68.6138 38.696C68.6564 39.8907 68.7418 40.8933 68.8698 41.704C68.8698 41.7893 68.9124 42.0027 68.9978 42.344C69.0404 42.344 69.0618 42.344 69.0618 42.344C69.1044 42.3013 69.1471 42.28 69.1898 42.28H69.2538C69.5951 41.9813 70.0004 41.7253 70.4698 41.512C70.9818 41.2987 71.6004 41.2133 72.3258 41.256C73.3071 41.256 74.0751 41.3413 74.6298 41.512C75.2271 41.6827 75.8671 41.9813 76.5498 42.408ZM74.3098 72.168C74.3951 72.2107 74.4378 72.3173 74.4378 72.488C74.4378 72.616 74.4591 72.7227 74.5018 72.808L74.7578 74.024C74.5018 74.1947 74.2458 74.472 73.9898 74.856C73.7338 75.2827 73.4778 75.752 73.2218 76.264C73.0084 76.776 72.8164 77.3093 72.6458 77.864C72.5178 78.4187 72.4538 78.9093 72.4538 79.336C71.1311 79.8053 69.7871 80.104 68.4218 80.232C67.0991 80.4027 65.7551 80.5307 64.3898 80.616L59.2698 80.68L52.2938 80.552C51.2271 80.552 50.1818 80.5733 49.1578 80.616C48.1338 80.7013 47.0884 80.744 46.0218 80.744C45.8084 80.744 45.4671 80.7653 44.9978 80.808C44.5711 80.8507 44.2724 80.872 44.1018 80.872C42.9498 80.8293 41.9044 80.8507 40.9657 80.936C40.0697 81.0213 39.0671 81.0213 37.9578 80.936C37.1471 80.8933 36.3578 80.8507 35.5898 80.808C34.8218 80.808 34.0324 80.744 33.2218 80.616C32.5391 80.5307 31.8991 80.36 31.3018 80.104C30.7044 79.848 30.1071 79.5707 29.5097 79.272C29.2538 79.0587 29.0191 78.824 28.8057 78.568C28.6351 78.3547 28.5497 78.0773 28.5497 77.736C28.4644 77.0533 28.4004 76.2427 28.3577 75.304C28.3151 74.408 28.2937 73.4907 28.2937 72.552C28.3364 71.6133 28.4004 70.696 28.4857 69.8C28.6137 68.904 28.8271 68.136 29.1258 67.496C29.2538 67.1547 29.4244 66.984 29.6377 66.984C29.8937 66.9413 30.1071 66.7493 30.2778 66.408L31.1737 66.344C31.3018 66.344 31.5151 66.344 31.8138 66.344C32.1551 66.344 32.4751 66.3653 32.7738 66.408C33.1151 66.408 33.4138 66.4293 33.6698 66.472C33.9258 66.5147 34.0751 66.5787 34.1178 66.664C34.2884 67.1333 34.4591 67.5173 34.6298 67.816C34.8004 68.1147 34.9497 68.4133 35.0778 68.712C35.2058 68.968 35.3124 69.2667 35.3977 69.608C35.4831 69.9067 35.5044 70.2907 35.4618 70.76C35.3764 71.5707 35.3764 72.1467 35.4618 72.488C35.5471 72.8293 36.1444 73.0427 37.2537 73.128C37.6377 73.1707 37.9364 73.192 38.1497 73.192C38.4058 73.192 38.6191 73.192 38.7898 73.192C39.0031 73.192 39.2164 73.1707 39.4298 73.128C39.6858 73.128 40.0058 73.1493 40.3897 73.192C41.4991 73.2773 42.5871 73.2987 43.6538 73.256C44.7631 73.256 45.8724 73.2133 46.9818 73.128C48.3044 72.9573 49.6271 72.8507 50.9498 72.808C52.2724 72.7653 53.6164 72.7013 54.9818 72.616L64.5818 72.232C65.5631 72.1467 66.5018 72.104 67.3978 72.104C68.2938 72.104 69.2111 72.104 70.1498 72.104C70.9604 71.8907 71.5151 71.72 71.8138 71.592C72.1124 71.464 72.3471 71.4 72.5178 71.4C72.6884 71.4 72.8591 71.464 73.0298 71.592C73.2431 71.6773 73.6698 71.8693 74.3098 72.168ZM42.7578 44.2C43.0991 44.1573 43.4191 44.3493 43.7178 44.776C44.0591 45.16 44.2724 45.5867 44.3577 46.056L45.1898 48.168C45.2751 48.7653 45.4031 49.4053 45.5738 50.088C45.7871 50.7707 45.7871 51.4747 45.5738 52.2C45.3178 53.3093 45.0618 54.2693 44.8057 55.08C44.5498 55.848 44.0591 56.7227 43.3337 57.704C42.9498 58.1733 42.5231 58.6427 42.0538 59.112C41.5844 59.5387 41.1364 59.9867 40.7098 60.456C40.3258 60.7973 39.7284 61.224 38.9178 61.736C38.1071 62.2053 37.4671 62.5253 36.9978 62.696C36.1018 63.1227 34.9924 63.336 33.6698 63.336C32.3471 63.336 31.1951 63.272 30.2137 63.144C29.6164 63.1013 29.1257 62.824 28.7417 62.312C28.4004 61.7573 28.2084 61.1173 28.1658 60.392C28.1231 59.6667 28.0591 59.0053 27.9737 58.408C27.9311 57.8107 28.0164 57.1493 28.2297 56.424C28.5284 55.4427 28.8058 54.568 29.0617 53.8C29.3604 53.032 29.6804 52.3067 30.0217 51.624C30.4057 50.8987 30.8324 50.216 31.3018 49.576C31.7711 48.8933 32.3684 48.168 33.0938 47.4C33.5204 47.016 33.8831 46.632 34.1818 46.248C34.4804 45.8213 34.6938 45.3307 34.8218 44.776L35.0138 44.328C35.3551 43.6027 35.9311 43.1547 36.7418 42.984C37.5951 42.8133 38.3844 42.92 39.1098 43.304C39.7071 43.56 40.2831 43.7947 40.8378 44.008C41.4351 44.2213 42.0751 44.2853 42.7578 44.2ZM28.2297 43.944C27.7604 44.1573 27.3124 44.3067 26.8857 44.392C26.5017 44.4347 26.0751 44.4987 25.6057 44.584C24.8804 44.712 24.2831 44.4773 23.8137 43.88C23.3444 43.4107 22.9817 42.92 22.7257 42.408C22.4697 41.8533 22.5124 41.192 22.8537 40.424C22.9817 40.168 23.1097 39.848 23.2377 39.464C23.3657 39.0373 23.4937 38.6107 23.6217 38.184C23.7497 37.7573 23.8991 37.3733 24.0697 37.032C24.2831 36.648 24.5177 36.3707 24.7737 36.2C25.3711 35.7307 26.0964 35.56 26.9497 35.688C27.2484 35.7307 27.5257 35.7307 27.7817 35.688C28.0804 35.6453 28.3791 35.5813 28.6778 35.496C29.5737 35.2827 30.4484 35.112 31.3018 34.984C32.1551 34.856 33.0297 34.728 33.9257 34.6C34.8218 34.5147 35.8671 34.472 37.0618 34.472C38.2564 34.4293 39.4724 34.4507 40.7098 34.536C41.9471 34.5787 43.1204 34.664 44.2297 34.792C45.3391 34.8773 46.2778 35.0053 47.0458 35.176C48.9231 35.5173 50.2671 35.9013 51.0778 36.328C51.9311 36.712 52.6564 37.16 53.2538 37.672C53.5098 37.8853 53.5738 38.3333 53.4458 39.016C53.3178 39.6987 53.1471 40.232 52.9338 40.616C52.1658 41.8533 51.3764 42.5573 50.5658 42.728C49.7978 42.856 49.1791 42.8773 48.7098 42.792C48.1978 42.7067 47.6004 42.6427 46.9178 42.6C46.2778 42.5573 45.6804 42.4507 45.1258 42.28C43.8884 41.9387 42.6724 41.7253 41.4778 41.64C40.2831 41.5547 39.0884 41.5333 37.8938 41.576C36.3578 41.576 34.9498 41.7467 33.6698 42.088C33.2004 42.216 32.7311 42.344 32.2618 42.472C31.7924 42.6 31.2377 42.8133 30.5977 43.112L28.2297 43.944ZM35.7178 32.68C35.1204 32.424 34.7364 31.9973 34.5658 31.4C34.4377 30.8027 34.2244 30.2693 33.9257 29.8C33.7551 28.9893 33.6484 28.264 33.6058 27.624C33.5631 26.9413 33.5844 26.3013 33.6698 25.704C33.7551 25.1067 33.8831 24.488 34.0538 23.848C34.2671 23.208 34.5017 22.504 34.7578 21.736C34.8858 21.736 35.0138 21.736 35.1418 21.736C35.3124 21.736 35.5044 21.7573 35.7178 21.8L36.3577 20.648C37.0831 20.8613 37.6804 21.2027 38.1497 21.672C38.6191 22.1413 39.0884 22.632 39.5578 23.144C40.0271 23.656 40.4751 23.9333 40.9018 23.976C41.3284 24.0187 41.8831 24.2107 42.5658 24.552C42.9924 24.808 43.3764 25.1707 43.7178 25.64C44.0591 26.1093 44.3151 26.6427 44.4858 27.24C44.6991 27.7947 44.8057 28.3707 44.8057 28.968C44.8057 29.5653 44.6991 30.0773 44.4858 30.504C44.2724 31.1013 43.8884 31.5067 43.3337 31.72C42.9071 31.9333 42.4804 32.104 42.0538 32.232C41.6271 32.3173 41.2218 32.4667 40.8378 32.68C40.2404 32.936 39.6431 32.9787 39.0457 32.808C38.4911 32.6373 37.9578 32.5093 37.4458 32.424C37.2751 32.424 37.1471 32.4667 37.0618 32.552C36.9764 32.6373 36.8911 32.7227 36.8057 32.808C36.7204 32.8507 36.5924 32.872 36.4218 32.872C36.2511 32.872 36.0164 32.808 35.7178 32.68ZM39.1098 52.328C39.1098 52.1147 39.0671 51.9013 38.9818 51.688C38.9391 51.432 38.8538 51.2613 38.7257 51.176C38.3417 50.8773 38.0004 50.6 37.7017 50.344C37.4031 50.088 37.1471 49.7467 36.9338 49.32C36.8484 49.32 36.7844 49.3413 36.7418 49.384L36.5498 49.64C35.5258 50.408 34.7578 51.176 34.2458 51.944C33.7764 52.6693 33.3711 53.608 33.0297 54.76C32.9444 55.1867 32.8591 55.528 32.7738 55.784C32.7311 56.04 32.8164 56.4027 33.0297 56.872C33.2004 57.512 33.6271 57.8533 34.3098 57.896C35.6324 57.896 36.6351 57.4267 37.3177 56.488C37.6591 56.0613 37.9364 55.72 38.1497 55.464C38.3631 55.1653 38.5764 54.76 38.7898 54.248C39.0031 53.7787 39.0884 53.4587 39.0457 53.288C39.0031 53.1173 39.0244 52.7973 39.1098 52.328Z" fill="black"/>
<path d="M118.184 95.76C117.672 95.28 117.256 94.976 116.936 94.848C116.744 94.912 116.376 94.976 115.832 95.04C115.32 95.104 114.936 95.168 114.68 95.232C113.752 95.424 113.064 95.28 112.616 94.8C112.2 94.32 112.088 93.616 112.28 92.688C112.44 91.952 112.52 91.312 112.52 90.768C112.552 90.256 112.616 89.664 112.712 88.992C112.808 88.48 112.872 87.84 112.904 87.072C112.936 86.272 112.984 85.584 113.048 85.008C112.568 84.944 112.104 84.896 111.656 84.864C111.24 84.8 110.84 84.768 110.456 84.768C109.656 84.768 108.936 84.752 108.296 84.72C107.656 84.656 107.032 84.608 106.424 84.576C105.816 84.544 105.192 84.528 104.552 84.528C103.912 84.528 103.192 84.576 102.392 84.672C102.008 84.736 101.528 84.752 100.952 84.72C100.376 84.688 99.8803 84.656 99.4643 84.624C98.5683 84.56 97.8003 84.528 97.1603 84.528C96.5523 84.528 95.9443 84.56 95.3363 84.624C94.7603 84.688 94.1523 84.784 93.5123 84.912C92.9043 85.04 92.1523 85.2 91.2563 85.392C91.0003 85.456 90.6963 85.504 90.3443 85.536C89.9923 85.568 89.6883 85.584 89.4323 85.584C89.0483 85.584 88.6643 85.536 88.2803 85.44C87.9283 85.312 87.6243 85.088 87.3683 84.768C87.0483 84.352 86.7603 83.776 86.5043 83.04C86.2483 82.304 86.1843 81.616 86.3123 80.976C86.3763 80.624 86.4723 80.4 86.6003 80.304C86.7603 80.208 86.9683 80.144 87.2243 80.112C88.0243 80.016 88.7123 79.952 89.2883 79.92C89.8643 79.888 90.4083 79.872 90.9203 79.872C91.4323 79.84 91.9603 79.808 92.5043 79.776C93.0803 79.744 93.7683 79.696 94.5683 79.632C94.9523 79.6 95.3683 79.6 95.8163 79.632C96.2963 79.664 96.7443 79.68 97.1603 79.68C98.3443 79.68 99.4963 79.696 100.616 79.728C101.736 79.728 102.904 79.728 104.12 79.728C105.624 79.728 107.224 79.728 108.92 79.728C110.616 79.728 112.184 79.856 113.624 80.112C114.136 80.176 114.616 80.272 115.064 80.4C115.544 80.528 116.008 80.592 116.456 80.592C116.904 80.592 117.24 80.736 117.464 81.024C117.72 81.28 117.912 81.6 118.04 81.984C118.168 82.368 118.264 82.768 118.328 83.184C118.392 83.568 118.488 83.904 118.616 84.192C118.936 84.96 119.112 85.888 119.144 86.976C119.176 88.032 119.16 88.992 119.096 89.856C119.064 90.432 119.048 91.088 119.048 91.824C119.08 92.592 119.048 93.264 118.952 93.84C118.92 94.096 118.824 94.368 118.664 94.656C118.504 94.976 118.344 95.344 118.184 95.76ZM84.5363 76.896C84.4403 76.832 84.3283 76.768 84.2003 76.704C84.1043 76.64 83.9763 76.544 83.8163 76.416L82.6643 75.552C82.4723 75.392 82.3283 75.216 82.2323 75.024C82.1683 74.832 82.0883 74.656 81.9923 74.496C81.8323 74.24 81.7683 74 81.8003 73.776C81.8323 73.52 81.8963 73.312 81.9923 73.152C82.1843 72.832 82.4083 72.528 82.6643 72.24C82.9523 71.92 83.2083 71.584 83.4323 71.232C83.7203 70.88 83.9923 70.512 84.2483 70.128C84.5043 69.712 84.7443 69.36 84.9683 69.072C85.0963 68.944 85.2723 68.704 85.4963 68.352C85.7203 68 85.9443 67.632 86.1683 67.248C86.4243 66.832 86.6643 66.448 86.8883 66.096C87.1443 65.712 87.3523 65.424 87.5123 65.232C87.7683 64.88 88.0083 64.464 88.2323 63.984C88.4883 63.472 88.7443 63.04 89.0003 62.688C89.1283 62.464 89.3683 62.096 89.7203 61.584C90.0723 61.04 90.4243 60.48 90.7763 59.904C91.1283 59.296 91.4483 58.752 91.7363 58.272C92.0243 57.76 92.1843 57.424 92.2163 57.264C92.3123 57.328 92.3923 57.264 92.4563 57.072C92.5523 56.848 92.6483 56.592 92.7443 56.304C92.8403 56.016 92.9363 55.76 93.0323 55.536C93.1283 55.28 93.2563 55.152 93.4163 55.152C93.6723 55.152 93.8803 55.2 94.0403 55.296C94.2323 55.36 94.4083 55.392 94.5683 55.392C94.8243 55.392 95.0643 55.392 95.2883 55.392C95.5123 55.36 95.7683 55.36 96.0563 55.392L96.1523 55.584C96.1523 55.712 96.2323 55.936 96.3923 56.256C96.5843 56.544 96.7603 56.736 96.9203 56.832C97.2723 57.312 97.5283 57.888 97.6883 58.56C97.8483 59.2 98.0723 59.792 98.3603 60.336C99.0963 61.424 99.8963 62.4 100.76 63.264C101.624 64.096 102.44 65.024 103.208 66.048C103.304 66.208 103.496 66.512 103.784 66.96C104.104 67.376 104.424 67.808 104.744 68.256C105.096 68.704 105.4 69.12 105.656 69.504C105.912 69.888 106.072 70.096 106.136 70.128C107.256 71.184 107.816 72.176 107.816 73.104C107.816 73.264 107.8 73.408 107.768 73.536C107.768 73.632 107.72 73.744 107.624 73.872C107.56 74 107.432 74.144 107.24 74.304C107.08 74.464 106.84 74.688 106.52 74.976C106.072 75.424 105.464 75.536 104.696 75.312C103.96 75.088 103.272 74.64 102.632 73.968C102.568 73.904 102.52 73.744 102.488 73.488C102.456 73.232 102.408 73.072 102.344 73.008C101.8 72.4 101.288 71.808 100.808 71.232C100.36 70.656 99.8643 70.08 99.3203 69.504C98.8083 68.96 98.3443 68.4 97.9283 67.824C97.5123 67.248 97.0003 66.688 96.3923 66.144C96.2003 65.952 95.9923 65.76 95.7683 65.568C95.5443 65.376 95.3523 65.12 95.1923 64.8C95.0963 64.8 94.9043 64.976 94.6163 65.328C94.3603 65.648 94.0243 66.064 93.6083 66.576C93.2243 67.056 92.8083 67.6 92.3603 68.208C91.9443 68.784 91.5443 69.344 91.1603 69.888C90.7763 70.4 90.4403 70.848 90.1523 71.232C89.8963 71.616 89.7363 71.856 89.6723 71.952C89.4483 72.272 89.2243 72.64 89.0003 73.056C88.7763 73.472 88.5203 73.888 88.2323 74.304C87.9763 74.72 87.7043 75.12 87.4163 75.504C87.1283 75.888 86.8083 76.192 86.4563 76.416C86.2003 76.608 85.8963 76.768 85.5443 76.896C85.1923 77.024 84.8563 77.024 84.5363 76.896ZM111.368 74.064C111.368 73.808 111.368 73.504 111.368 73.152C111.4 72.8 111.432 72.464 111.464 72.144C111.496 71.824 111.512 71.552 111.512 71.328C111.544 71.104 111.56 70.976 111.56 70.944C111.56 70.656 111.56 70.304 111.56 69.888C111.592 69.472 111.608 69.088 111.608 68.736L111.704 64.656C111.704 64.304 111.72 63.92 111.752 63.504C111.816 63.088 111.848 62.72 111.848 62.4C111.848 61.92 111.832 61.264 111.8 60.432C111.768 59.6 111.752 58.928 111.752 58.416C111.752 58.096 111.752 57.776 111.752 57.456C111.752 57.136 111.72 56.848 111.656 56.592C111.656 56.528 111.64 56.368 111.608 56.112C111.576 55.856 111.56 55.696 111.56 55.632V55.536C111.56 54.8 111.752 54.368 112.136 54.24C112.52 54.112 113 54.048 113.576 54.048C113.992 54.048 114.472 54.08 115.016 54.144C115.56 54.176 116.024 54.352 116.408 54.672C116.984 55.088 117.432 55.664 117.752 56.4C118.072 57.104 118.312 57.872 118.472 58.704C118.632 59.536 118.744 60.384 118.808 61.248C118.904 62.112 119 62.88 119.096 63.552C119.16 63.936 119.16 64.416 119.096 64.992C119.032 65.568 119 66.064 119 66.48C119 67.632 119 68.8 119 69.984C119.032 71.136 119.048 72.32 119.048 73.536C119.048 74.048 118.92 74.656 118.664 75.36C118.44 76.032 118.072 76.544 117.56 76.896C116.952 77.28 116.248 77.472 115.448 77.472C115.352 77.472 115.24 77.536 115.112 77.664L114.968 77.808C114.872 77.808 114.68 77.808 114.392 77.808C114.136 77.776 113.848 77.744 113.528 77.712C113.24 77.648 112.968 77.584 112.712 77.52C112.488 77.456 112.36 77.376 112.328 77.28C112.136 76.768 111.944 76.288 111.752 75.84C111.56 75.392 111.432 74.8 111.368 74.064Z" fill="black"/>
</svg>
