<svg width="153" height="123" viewBox="0 0 153 123" fill="none" xmlns="http://www.w3.org/2000/svg">
<path d="M64.0448 58.024C63.7034 58.3653 63.2128 58.5787 62.5728 58.664C61.9328 58.7493 61.2714 58.7707 60.5888 58.728C59.9061 58.6853 59.2661 58.6 58.6688 58.472C58.0714 58.344 57.6661 58.216 57.4528 58.088C56.7701 57.5333 56.2368 56.936 55.8528 56.296C55.4688 55.6133 55.2768 54.888 55.2768 54.12C55.2768 53.736 55.2768 53.2667 55.2768 52.712C55.3194 52.1573 55.3408 51.5813 55.3408 50.984C55.3834 50.3867 55.4048 49.8107 55.4048 49.256C55.4474 48.6587 55.4688 48.168 55.4688 47.784C55.4688 47.3147 55.4474 46.6107 55.4048 45.672C55.4048 44.6907 55.4048 43.688 55.4048 42.664C55.4048 41.64 55.3834 40.68 55.3408 39.784C55.3408 38.8453 55.3408 38.1627 55.3408 37.736V32.744C55.3408 32.7013 55.3408 32.5093 55.3408 32.168C55.3834 31.784 55.4048 31.3787 55.4048 30.952C55.4048 30.5253 55.4048 30.1413 55.4048 29.8C55.4474 29.416 55.4688 29.1813 55.4688 29.096V29.032C55.4688 28.6907 55.4474 28.3707 55.4048 28.072C55.3621 27.7307 55.3408 27.3893 55.3408 27.048C55.3408 26.536 55.4688 26.024 55.7248 25.512C55.9808 24.9573 56.4928 24.68 57.2607 24.68C57.6874 24.68 58.0501 24.7227 58.3488 24.808C58.6901 24.8933 59.0954 24.936 59.5648 24.936C60.2474 25.448 60.9088 25.704 61.5488 25.704C62.0181 25.704 62.3594 26.0027 62.5728 26.6C62.7861 27.1547 63.0634 27.7947 63.4048 28.52C63.4901 28.648 63.5754 28.904 63.6608 29.288C63.7461 29.672 63.8314 30.0987 63.9168 30.568C64.0448 30.9947 64.1728 31.4 64.3008 31.784C64.4288 32.1253 64.5781 32.3173 64.7488 32.36C65.4741 32.6587 66.2208 32.7867 66.9888 32.744C67.7568 32.6587 68.5674 32.616 69.4208 32.616H71.0848C71.1701 32.616 71.2981 32.6373 71.4688 32.68C71.6821 32.7227 71.8314 32.744 71.9168 32.744C72.5141 32.9147 72.9621 33.0427 73.2608 33.128C73.6021 33.1707 73.8581 33.256 74.0288 33.384C74.2421 33.512 74.4128 33.704 74.5408 33.96C74.6688 34.1733 74.8608 34.5147 75.1168 34.984C75.3301 35.3253 75.5221 35.7947 75.6928 36.392C75.8634 36.9467 75.7781 37.416 75.4368 37.8L74.1568 38.952C73.1754 38.952 72.5354 38.952 72.2368 38.952C71.9808 38.9093 71.7461 38.888 71.5328 38.888C70.5514 38.888 69.4208 38.76 68.1408 38.504C66.9034 38.248 65.8368 37.8427 64.9408 37.288C64.9408 37.5867 64.9408 38.12 64.9408 38.888C64.9408 39.6133 64.9408 40.4453 64.9408 41.384C64.9834 42.28 65.0048 43.1973 65.0048 44.136C65.0474 45.032 65.0901 45.7573 65.1328 46.312C65.5168 46.312 65.7941 46.248 65.9648 46.12C66.1354 45.9493 66.3914 45.8213 66.7328 45.736C67.4581 45.5227 68.1408 45.3733 68.7808 45.288C69.4208 45.2027 70.1034 45.16 70.8288 45.16C71.9381 45.16 72.9621 45.3093 73.9008 45.608C74.8394 45.9067 75.6074 46.504 76.2048 47.4C76.2474 47.6133 76.3328 47.8693 76.4608 48.168C76.5888 48.424 76.6528 48.6587 76.6528 48.872C76.6528 49.128 76.5461 49.512 76.3328 50.024C76.1194 50.4933 75.8208 50.792 75.4368 50.92C75.3088 51.0053 75.0314 51.176 74.6048 51.432C74.1781 51.6453 73.8794 51.752 73.7088 51.752C72.6848 51.752 71.6608 51.688 70.6368 51.56C69.6128 51.3893 68.6101 51.1973 67.6288 50.984C67.2874 50.8987 66.9034 50.856 66.4768 50.856C66.0928 50.856 65.6661 50.856 65.1968 50.856C65.1114 51.24 65.0474 51.7947 65.0048 52.52C65.0048 53.2027 64.9621 53.9067 64.8768 54.632C64.8341 55.3573 64.7488 56.04 64.6208 56.68C64.4928 57.32 64.3008 57.768 64.0448 58.024ZM24.8768 49.384C24.8768 49.1707 24.8341 48.744 24.7488 48.104C24.7061 47.464 24.6848 47.0373 24.6848 46.824V46.44C24.6848 44.9893 24.9621 43.5813 25.5168 42.216C26.0714 40.808 26.8181 39.5493 27.7568 38.44C28.0128 38.0987 28.2048 37.7787 28.3328 37.48C28.4608 37.1387 28.6314 36.8187 28.8448 36.52C29.6554 35.752 30.7008 34.9627 31.9808 34.152C33.3034 33.3413 34.6261 32.936 35.9488 32.936C36.2901 32.936 36.5674 32.9573 36.7808 33C37.0368 33 37.3781 33.0427 37.8048 33.128C38.1461 33.3413 38.3168 33.6187 38.3168 33.96C38.3594 34.3013 38.5301 34.5787 38.8288 34.792C39.0421 34.8773 39.2981 34.9627 39.5968 35.048C39.9381 35.1333 40.1941 35.24 40.3647 35.368C40.9194 35.8373 41.4954 36.392 42.0928 37.032C42.7328 37.672 43.2234 38.3333 43.5648 39.016V39.208C43.7781 39.848 44.0341 40.552 44.3328 41.32C44.6741 42.088 44.8448 42.8347 44.8448 43.56C44.8448 44.0293 44.7808 44.5413 44.6528 45.096C44.5674 45.6507 44.4821 46.12 44.3968 46.504C44.0128 48.2107 43.3728 49.7893 42.4768 51.24C42.1354 51.7947 41.7088 52.2213 41.1968 52.52C40.6848 52.8187 40.1941 53.1173 39.7248 53.416C38.7434 54.056 37.8048 54.6107 36.9088 55.08C36.0128 55.5067 34.9461 55.72 33.7088 55.72C33.4528 55.72 33.1541 55.72 32.8128 55.72C32.4714 55.6773 32.1088 55.656 31.7248 55.656C31.3408 55.6133 30.9781 55.592 30.6368 55.592C30.2954 55.5493 30.0394 55.5067 29.8688 55.464L29.3568 55.208C29.1008 55.0373 28.7594 54.8667 28.3328 54.696C27.9061 54.4827 27.5861 54.248 27.3728 53.992C26.9461 53.5653 26.5621 53.096 26.2208 52.584C25.9221 52.0293 25.6021 51.4533 25.2608 50.856L25.0688 50.152C25.0688 50.0667 25.0261 49.9387 24.9408 49.768C24.8981 49.5973 24.8768 49.4693 24.8768 49.384ZM55.8528 59.816C56.3221 60.072 56.7061 60.3067 57.0048 60.52C57.3461 60.6907 57.7514 60.9253 58.2208 61.224C58.4768 61.4373 58.7541 61.6507 59.0528 61.864C59.3514 62.0773 59.5648 62.3333 59.6928 62.632C60.0341 63.656 60.4608 64.6587 60.9728 65.64C61.4848 66.5787 61.9114 67.6027 62.2528 68.712C62.9781 71.3573 62.8501 73.832 61.8688 76.136C61.7408 76.392 61.5701 76.712 61.3568 77.096C61.1434 77.5227 60.8021 77.9493 60.3328 78.376C59.4794 79.1867 58.3274 79.7627 56.8768 80.104C55.4688 80.4453 54.0608 80.616 52.6528 80.616C51.0314 80.616 49.6874 80.2107 48.6208 79.4C47.5541 78.632 46.7008 77.5867 46.0608 76.264C44.9941 74.1733 44.5674 72.1253 44.7808 70.12C45.0368 68.072 45.7194 66.0667 46.8288 64.104C47.0848 63.6773 47.3194 63.336 47.5328 63.08C47.7888 62.7813 48.0234 62.5253 48.2368 62.312C48.4928 62.056 48.7488 61.8213 49.0048 61.608C49.3034 61.352 49.6234 61.0533 49.9648 60.712C50.9461 59.7307 51.9274 59.24 52.9088 59.24C53.9328 59.1973 54.9141 59.3893 55.8528 59.816ZM29.9328 46.376C29.9328 47.144 30.2101 47.8693 30.7648 48.552C31.3621 49.2347 32.1514 49.576 33.1328 49.576C33.4741 49.576 33.8154 49.4693 34.1568 49.256C34.5408 49 34.9034 48.808 35.2448 48.68C35.4154 48.5947 35.5221 48.4667 35.5648 48.296C35.6074 48.0827 35.7354 47.976 35.9488 47.976C36.5461 47.5493 37.0581 47.1013 37.4848 46.632C37.9114 46.12 38.1248 45.5227 38.1248 44.84C38.1248 44.2853 38.0394 43.6667 37.8688 42.984C37.6981 42.3013 37.4421 41.7253 37.1008 41.256C36.8874 41 36.6314 40.808 36.3328 40.68C36.0341 40.552 35.7781 40.3813 35.5648 40.168C35.3088 39.8267 35.1168 39.592 34.9888 39.464C34.8608 39.336 34.4981 39.1653 33.9008 38.952C33.5594 38.952 33.2181 39.144 32.8767 39.528C32.5781 39.8693 32.2794 40.296 31.9808 40.808C31.6821 41.2773 31.4048 41.7467 31.1488 42.216C30.8928 42.6853 30.6794 43.0267 30.5088 43.24C30.4661 43.3253 30.4021 43.496 30.3168 43.752C30.2314 43.9653 30.1461 44.136 30.0608 44.264C30.0608 44.4347 30.0394 44.7547 29.9968 45.224C29.9541 45.6933 29.9328 45.9707 29.9328 46.056V46.376ZM57.0688 70.248C56.9834 69.3947 56.8341 68.7333 56.6208 68.264C56.4074 67.752 56.0234 67.1973 55.4688 66.6C54.8288 65.96 54.1888 65.5547 53.5488 65.384C52.9088 65.1707 52.2901 65.4267 51.6928 66.152C50.7114 67.3893 50.1141 68.584 49.9008 69.736C49.6874 70.8453 49.8581 72.168 50.4128 73.704C50.6261 74.216 50.7968 74.6 50.9248 74.856C51.0954 75.1547 51.3941 75.4533 51.8208 75.752C52.5888 76.3493 53.4208 76.4987 54.3168 76.2C55.2554 75.944 55.8741 75.3253 56.1728 74.344C56.4288 73.6187 56.6421 72.9573 56.8128 72.36C57.0261 71.7627 57.1114 71.0587 57.0688 70.248Z" fill="black"/>
<path d="M118.184 95.76C117.672 95.28 117.256 94.976 116.936 94.848C116.744 94.912 116.376 94.976 115.832 95.04C115.32 95.104 114.936 95.168 114.68 95.232C113.752 95.424 113.064 95.28 112.616 94.8C112.2 94.32 112.088 93.616 112.28 92.688C112.44 91.952 112.52 91.312 112.52 90.768C112.552 90.256 112.616 89.664 112.712 88.992C112.808 88.48 112.872 87.84 112.904 87.072C112.936 86.272 112.984 85.584 113.048 85.008C112.568 84.944 112.104 84.896 111.656 84.864C111.24 84.8 110.84 84.768 110.456 84.768C109.656 84.768 108.936 84.752 108.296 84.72C107.656 84.656 107.032 84.608 106.424 84.576C105.816 84.544 105.192 84.528 104.552 84.528C103.912 84.528 103.192 84.576 102.392 84.672C102.008 84.736 101.528 84.752 100.952 84.72C100.376 84.688 99.8803 84.656 99.4643 84.624C98.5683 84.56 97.8003 84.528 97.1603 84.528C96.5523 84.528 95.9443 84.56 95.3363 84.624C94.7603 84.688 94.1523 84.784 93.5123 84.912C92.9043 85.04 92.1523 85.2 91.2563 85.392C91.0003 85.456 90.6963 85.504 90.3443 85.536C89.9923 85.568 89.6883 85.584 89.4323 85.584C89.0483 85.584 88.6643 85.536 88.2803 85.44C87.9283 85.312 87.6243 85.088 87.3683 84.768C87.0483 84.352 86.7603 83.776 86.5043 83.04C86.2483 82.304 86.1843 81.616 86.3123 80.976C86.3763 80.624 86.4723 80.4 86.6003 80.304C86.7603 80.208 86.9683 80.144 87.2243 80.112C88.0243 80.016 88.7123 79.952 89.2883 79.92C89.8643 79.888 90.4083 79.872 90.9203 79.872C91.4323 79.84 91.9603 79.808 92.5043 79.776C93.0803 79.744 93.7683 79.696 94.5683 79.632C94.9523 79.6 95.3683 79.6 95.8163 79.632C96.2963 79.664 96.7443 79.68 97.1603 79.68C98.3443 79.68 99.4963 79.696 100.616 79.728C101.736 79.728 102.904 79.728 104.12 79.728C105.624 79.728 107.224 79.728 108.92 79.728C110.616 79.728 112.184 79.856 113.624 80.112C114.136 80.176 114.616 80.272 115.064 80.4C115.544 80.528 116.008 80.592 116.456 80.592C116.904 80.592 117.24 80.736 117.464 81.024C117.72 81.28 117.912 81.6 118.04 81.984C118.168 82.368 118.264 82.768 118.328 83.184C118.392 83.568 118.488 83.904 118.616 84.192C118.936 84.96 119.112 85.888 119.144 86.976C119.176 88.032 119.16 88.992 119.096 89.856C119.064 90.432 119.048 91.088 119.048 91.824C119.08 92.592 119.048 93.264 118.952 93.84C118.92 94.096 118.824 94.368 118.664 94.656C118.504 94.976 118.344 95.344 118.184 95.76ZM84.5363 76.896C84.4403 76.832 84.3283 76.768 84.2003 76.704C84.1043 76.64 83.9763 76.544 83.8163 76.416L82.6643 75.552C82.4723 75.392 82.3283 75.216 82.2323 75.024C82.1683 74.832 82.0883 74.656 81.9923 74.496C81.8323 74.24 81.7683 74 81.8003 73.776C81.8323 73.52 81.8963 73.312 81.9923 73.152C82.1843 72.832 82.4083 72.528 82.6643 72.24C82.9523 71.92 83.2083 71.584 83.4323 71.232C83.7203 70.88 83.9923 70.512 84.2483 70.128C84.5043 69.712 84.7443 69.36 84.9683 69.072C85.0963 68.944 85.2723 68.704 85.4963 68.352C85.7203 68 85.9443 67.632 86.1683 67.248C86.4243 66.832 86.6643 66.448 86.8883 66.096C87.1443 65.712 87.3523 65.424 87.5123 65.232C87.7683 64.88 88.0083 64.464 88.2323 63.984C88.4883 63.472 88.7443 63.04 89.0003 62.688C89.1283 62.464 89.3683 62.096 89.7203 61.584C90.0723 61.04 90.4243 60.48 90.7763 59.904C91.1283 59.296 91.4483 58.752 91.7363 58.272C92.0243 57.76 92.1843 57.424 92.2163 57.264C92.3123 57.328 92.3923 57.264 92.4563 57.072C92.5523 56.848 92.6483 56.592 92.7443 56.304C92.8403 56.016 92.9363 55.76 93.0323 55.536C93.1283 55.28 93.2563 55.152 93.4163 55.152C93.6723 55.152 93.8803 55.2 94.0403 55.296C94.2323 55.36 94.4083 55.392 94.5683 55.392C94.8243 55.392 95.0643 55.392 95.2883 55.392C95.5123 55.36 95.7683 55.36 96.0563 55.392L96.1523 55.584C96.1523 55.712 96.2323 55.936 96.3923 56.256C96.5843 56.544 96.7603 56.736 96.9203 56.832C97.2723 57.312 97.5283 57.888 97.6883 58.56C97.8483 59.2 98.0723 59.792 98.3603 60.336C99.0963 61.424 99.8963 62.4 100.76 63.264C101.624 64.096 102.44 65.024 103.208 66.048C103.304 66.208 103.496 66.512 103.784 66.96C104.104 67.376 104.424 67.808 104.744 68.256C105.096 68.704 105.4 69.12 105.656 69.504C105.912 69.888 106.072 70.096 106.136 70.128C107.256 71.184 107.816 72.176 107.816 73.104C107.816 73.264 107.8 73.408 107.768 73.536C107.768 73.632 107.72 73.744 107.624 73.872C107.56 74 107.432 74.144 107.24 74.304C107.08 74.464 106.84 74.688 106.52 74.976C106.072 75.424 105.464 75.536 104.696 75.312C103.96 75.088 103.272 74.64 102.632 73.968C102.568 73.904 102.52 73.744 102.488 73.488C102.456 73.232 102.408 73.072 102.344 73.008C101.8 72.4 101.288 71.808 100.808 71.232C100.36 70.656 99.8643 70.08 99.3203 69.504C98.8083 68.96 98.3443 68.4 97.9283 67.824C97.5123 67.248 97.0003 66.688 96.3923 66.144C96.2003 65.952 95.9923 65.76 95.7683 65.568C95.5443 65.376 95.3523 65.12 95.1923 64.8C95.0963 64.8 94.9043 64.976 94.6163 65.328C94.3603 65.648 94.0243 66.064 93.6083 66.576C93.2243 67.056 92.8083 67.6 92.3603 68.208C91.9443 68.784 91.5443 69.344 91.1603 69.888C90.7763 70.4 90.4403 70.848 90.1523 71.232C89.8963 71.616 89.7363 71.856 89.6723 71.952C89.4483 72.272 89.2243 72.64 89.0003 73.056C88.7763 73.472 88.5203 73.888 88.2323 74.304C87.9763 74.72 87.7043 75.12 87.4163 75.504C87.1283 75.888 86.8083 76.192 86.4563 76.416C86.2003 76.608 85.8963 76.768 85.5443 76.896C85.1923 77.024 84.8563 77.024 84.5363 76.896ZM111.368 74.064C111.368 73.808 111.368 73.504 111.368 73.152C111.4 72.8 111.432 72.464 111.464 72.144C111.496 71.824 111.512 71.552 111.512 71.328C111.544 71.104 111.56 70.976 111.56 70.944C111.56 70.656 111.56 70.304 111.56 69.888C111.592 69.472 111.608 69.088 111.608 68.736L111.704 64.656C111.704 64.304 111.72 63.92 111.752 63.504C111.816 63.088 111.848 62.72 111.848 62.4C111.848 61.92 111.832 61.264 111.8 60.432C111.768 59.6 111.752 58.928 111.752 58.416C111.752 58.096 111.752 57.776 111.752 57.456C111.752 57.136 111.72 56.848 111.656 56.592C111.656 56.528 111.64 56.368 111.608 56.112C111.576 55.856 111.56 55.696 111.56 55.632V55.536C111.56 54.8 111.752 54.368 112.136 54.24C112.52 54.112 113 54.048 113.576 54.048C113.992 54.048 114.472 54.08 115.016 54.144C115.56 54.176 116.024 54.352 116.408 54.672C116.984 55.088 117.432 55.664 117.752 56.4C118.072 57.104 118.312 57.872 118.472 58.704C118.632 59.536 118.744 60.384 118.808 61.248C118.904 62.112 119 62.88 119.096 63.552C119.16 63.936 119.16 64.416 119.096 64.992C119.032 65.568 119 66.064 119 66.48C119 67.632 119 68.8 119 69.984C119.032 71.136 119.048 72.32 119.048 73.536C119.048 74.048 118.92 74.656 118.664 75.36C118.44 76.032 118.072 76.544 117.56 76.896C116.952 77.28 116.248 77.472 115.448 77.472C115.352 77.472 115.24 77.536 115.112 77.664L114.968 77.808C114.872 77.808 114.68 77.808 114.392 77.808C114.136 77.776 113.848 77.744 113.528 77.712C113.24 77.648 112.968 77.584 112.712 77.52C112.488 77.456 112.36 77.376 112.328 77.28C112.136 76.768 111.944 76.288 111.752 75.84C111.56 75.392 111.432 74.8 111.368 74.064Z" fill="black"/>
</svg>
