<svg width="153" height="123" viewBox="0 0 153 123" fill="none" xmlns="http://www.w3.org/2000/svg">
<path d="M33.8133 66.408C33.0879 66.408 32.4266 66.3867 31.8293 66.344C31.2319 66.2587 30.6346 66.1733 30.0373 66.088C29.4399 66.0453 28.7999 66.024 28.1173 66.024C27.4346 65.9813 26.8373 65.9173 26.3253 65.832C25.9413 65.7893 25.5999 65.5547 25.3013 65.128C25.0026 64.6587 24.7466 64.1253 24.5333 63.528C24.3199 62.9307 24.1493 62.3333 24.0213 61.736C23.8933 61.1387 23.8293 60.6907 23.8293 60.392C23.8293 60.264 23.8293 60.1573 23.8293 60.072C23.8719 59.9867 23.9359 59.8587 24.0213 59.688C24.3199 59.432 24.5546 59.112 24.7253 58.728C24.8959 58.344 25.2373 58.152 25.7493 58.152C26.2186 58.152 26.5386 58.216 26.7093 58.344C26.9226 58.472 27.1999 58.5787 27.5413 58.664C28.0533 58.8773 28.3946 59.0053 28.5653 59.048C28.7786 59.048 29.1413 59.048 29.6533 59.048C29.6959 59.048 29.7599 58.9413 29.8453 58.728C29.8453 58.6427 29.8666 58.536 29.9093 58.408C29.9093 57.9813 29.8666 57.4907 29.7812 56.936C29.6959 56.3387 29.6533 55.8267 29.6533 55.4C29.6533 54.0347 29.6746 52.776 29.7173 51.624C29.8026 50.4293 29.8879 49.2133 29.9733 47.976C30.0586 47.2507 30.1226 46.44 30.1653 45.544C30.2079 44.648 30.4426 43.88 30.8693 43.24C30.8693 43.1973 30.9759 43.1333 31.1892 43.048C31.4026 42.92 31.6159 42.8133 31.8293 42.728C32.0853 42.6 32.3199 42.5147 32.5333 42.472C32.7466 42.3867 32.8959 42.344 32.9813 42.344C33.4506 42.344 33.8133 42.344 34.0693 42.344C34.3253 42.344 34.6026 42.4507 34.9013 42.664C35.0293 42.792 35.2213 42.92 35.4773 43.048C35.7759 43.176 36.0533 43.304 36.3093 43.432C36.6079 43.5173 36.8639 43.624 37.0773 43.752C37.2906 43.88 37.4186 44.0293 37.4613 44.2C37.6746 44.9253 37.7599 46.2053 37.7173 48.04C37.6746 49.832 37.6533 52.2 37.6533 55.144C37.8666 55.4427 38.0159 55.8267 38.1013 56.296C38.2293 56.7653 38.2933 57.2133 38.2933 57.64C38.2933 57.8533 38.2506 58.0667 38.1653 58.28C38.1226 58.4933 38.1013 58.7493 38.1013 59.048H42.3253C42.5813 59.048 42.7946 59.0267 42.9653 58.984C43.1359 58.9413 43.2639 58.8133 43.3493 58.6C43.3493 58.216 43.3493 57.7253 43.3493 57.128C43.3493 56.5307 43.3493 55.912 43.3493 55.272C43.3919 54.632 43.4346 54.0133 43.4773 53.416C43.5199 52.8187 43.5839 52.328 43.6693 51.944C44.0106 50.7493 44.1599 49.4693 44.1173 48.104C44.0746 46.696 44.2239 45.3733 44.5653 44.136C44.9066 42.6 45.8239 41.832 47.3173 41.832C47.7439 41.832 48.3839 41.8533 49.2373 41.896C50.1333 41.9387 50.7946 42.152 51.2213 42.536C51.4346 42.8347 51.6053 43.2187 51.7333 43.688C51.8613 44.1147 51.9253 44.4773 51.9253 44.776C51.9253 45.8853 51.9253 47.0587 51.9253 48.296C51.9679 49.5333 51.9679 50.7067 51.9253 51.816C51.9253 51.9013 51.9253 52.0507 51.9253 52.264C51.9679 52.4773 51.9893 52.6267 51.9893 52.712C51.9466 52.968 51.9253 53.3093 51.9253 53.736C51.9253 54.1627 51.9253 54.6107 51.9253 55.08C51.9253 55.5067 51.9039 55.9333 51.8613 56.36C51.8186 56.7867 51.7759 57.128 51.7333 57.384C51.6906 57.4693 51.6479 57.704 51.6053 58.088C51.5626 58.472 51.6266 58.664 51.7973 58.664C52.1386 58.664 52.5866 58.6213 53.1413 58.536C53.7386 58.408 54.3786 58.344 55.0613 58.344C56.1706 58.344 56.9173 58.4933 57.3013 58.792C57.6853 59.0907 57.8773 59.8587 57.8773 61.096C57.8773 61.6507 57.8773 62.1413 57.8773 62.568C57.8773 62.9947 57.8559 63.3787 57.8133 63.72C57.7706 64.1467 57.4506 64.5093 56.8533 64.808C56.2559 65.1067 55.0399 65.4053 53.2053 65.704C52.4373 65.7893 51.7119 65.8747 51.0293 65.96C50.3466 66.0453 49.5999 66.1307 48.7893 66.216C48.0213 66.2587 47.1253 66.3013 46.1013 66.344C45.0773 66.3867 43.8399 66.408 42.3893 66.408C42.2186 66.408 41.8773 66.4293 41.3653 66.472C40.8959 66.472 40.3839 66.4933 39.8293 66.536C39.2746 66.5787 38.7626 66.6 38.2933 66.6C37.8666 66.6 37.5893 66.5573 37.4613 66.472C37.2906 66.472 37.0559 66.472 36.7573 66.472C36.4586 66.472 36.1173 66.472 35.7333 66.472C35.3919 66.4293 35.0506 66.408 34.7093 66.408C34.3679 66.408 34.0693 66.408 33.8133 66.408ZM67.3493 70.632C67.1786 70.632 67.0293 70.6747 66.9013 70.76C66.8159 70.8027 66.6666 70.824 66.4533 70.824C66.1973 70.824 65.9199 70.76 65.6213 70.632C65.3226 70.4613 65.0666 70.312 64.8533 70.184C64.1279 69.8853 63.5733 69.5227 63.1893 69.096C62.8479 68.6267 62.5919 68.136 62.4213 67.624C62.2506 67.0693 62.1439 66.472 62.1013 65.832C62.1013 65.192 62.1013 64.5093 62.1013 63.784C62.1013 63.2293 62.1226 62.632 62.1653 61.992C62.2506 61.352 62.2506 60.4773 62.1653 59.368C62.1653 58.0027 62.2079 56.616 62.2933 55.208C62.3786 53.7573 62.4639 52.3067 62.5493 50.856V48.36C62.5493 47.0373 62.5279 45.6933 62.4853 44.328C62.4853 42.92 62.4853 41.5973 62.4853 40.36C62.4853 39.1227 62.4639 38.0133 62.4213 37.032C62.4213 36.0507 62.4213 35.3253 62.4213 34.856C62.4213 34.3867 62.3786 33.8533 62.2933 33.256C62.2079 32.6587 62.1653 32.1253 62.1653 31.656C62.1653 31.5707 62.1866 31.4 62.2293 31.144C62.2719 30.8453 62.3359 30.568 62.4213 30.312C62.5066 30.0133 62.6133 29.7573 62.7413 29.544C62.8693 29.288 62.9973 29.16 63.1253 29.16C63.7653 29.0747 64.4479 29.0533 65.1733 29.096C65.8986 29.1387 66.6239 29.2667 67.3493 29.48C67.3919 29.48 67.5626 29.5013 67.8613 29.544C68.1599 29.5867 68.4799 29.6507 68.8213 29.736C69.1626 29.7787 69.4826 29.8427 69.7813 29.928C70.1226 30.0133 70.3573 30.0987 70.4853 30.184C70.7413 30.44 70.9119 30.8027 70.9973 31.272C71.1253 31.6987 71.2106 32.0827 71.2533 32.424L71.5093 36.648C71.5519 37.1173 71.5733 37.5867 71.5733 38.056C71.6159 38.4827 71.6373 38.8667 71.6373 39.208C71.6373 39.3787 71.6586 39.6773 71.7013 40.104C71.7439 40.488 71.7653 40.7867 71.7653 41C71.7653 41.256 71.7653 41.6187 71.7653 42.088C71.8079 42.5147 71.8293 43.0267 71.8293 43.624C71.8719 44.1787 71.8933 44.776 71.8933 45.416C71.8933 46.056 71.8933 46.6747 71.8933 47.272C71.8933 48.0827 71.8719 48.872 71.8293 49.64C71.7866 50.3653 71.7653 51.1547 71.7653 52.008C71.7653 52.3493 71.7866 52.648 71.8293 52.904C71.8719 53.16 71.8933 53.4373 71.8933 53.736C71.8933 53.9493 71.8933 54.1413 71.8933 54.312C71.8933 54.4827 71.8506 54.6747 71.7653 54.888C71.7653 54.9733 71.7653 55.144 71.7653 55.4C71.8079 55.656 71.8506 55.9333 71.8933 56.232C71.9359 56.5307 71.9573 56.8293 71.9573 57.128C71.9999 57.384 72.0213 57.576 72.0213 57.704C72.0213 57.7893 72.0426 57.96 72.0853 58.216C72.1279 58.4293 72.1493 58.5573 72.1493 58.6V64.296C72.0639 64.5093 71.9786 64.8507 71.8933 65.32C71.8079 65.7893 71.7653 66.1093 71.7653 66.28C71.7226 66.536 71.6586 66.9413 71.5733 67.496C71.5306 68.008 71.4239 68.5413 71.2533 69.096C71.1253 69.608 70.9546 70.056 70.7413 70.44C70.5279 70.824 70.2506 71.016 69.9093 71.016C69.6533 71.016 69.2053 70.952 68.5653 70.824C67.9679 70.696 67.5626 70.632 67.3493 70.632ZM32.7253 38.888C32.5546 38.888 32.2559 38.888 31.8293 38.888C31.4026 38.8453 30.9333 38.824 30.4213 38.824C29.9519 38.824 29.5039 38.824 29.0773 38.824C28.6933 38.7813 28.4586 38.76 28.3733 38.76C27.9466 38.76 27.5199 38.6107 27.0933 38.312C26.6666 37.9707 26.2613 37.544 25.8773 37.032C25.6213 36.7333 25.4079 36.2213 25.2373 35.496C25.0666 34.7707 24.9813 34.2373 24.9813 33.896C24.9813 33.0427 25.0879 32.4027 25.3013 31.976C25.5573 31.5067 26.0906 31.272 26.9013 31.272C27.7973 31.272 28.7146 31.3147 29.6533 31.4C30.6346 31.4853 31.5733 31.528 32.4693 31.528C33.5786 31.528 34.7519 31.5493 35.9893 31.592C37.2693 31.6347 38.8906 31.656 40.8533 31.656C40.9813 31.656 41.2586 31.656 41.6853 31.656C42.1119 31.656 42.5599 31.656 43.0293 31.656C43.5413 31.6133 44.0106 31.592 44.4373 31.592C44.9066 31.592 45.2479 31.592 45.4613 31.592C45.5039 31.5493 45.6106 31.528 45.7813 31.528C45.9519 31.4853 46.1226 31.464 46.2933 31.464C46.5066 31.464 46.6986 31.464 46.8693 31.464C47.0399 31.464 47.1466 31.464 47.1893 31.464C47.9573 31.464 48.7039 31.464 49.4293 31.464C50.1546 31.464 50.9439 31.5067 51.7973 31.592C52.0959 31.6347 52.4586 31.656 52.8853 31.656C53.3119 31.656 53.6959 31.784 54.0373 32.04C54.3359 32.2533 54.5706 32.4027 54.7413 32.488C54.9546 32.5733 55.1039 32.744 55.1893 33C55.3173 33.384 55.3813 33.8533 55.3813 34.408C55.4239 34.92 55.4453 35.2187 55.4453 35.304C55.4453 35.5173 55.4453 35.8373 55.4453 36.264C55.4879 36.648 55.4453 37.1387 55.3173 37.736C55.2746 37.8213 55.1893 38.0133 55.0613 38.312C54.9333 38.6107 54.6559 38.76 54.2293 38.76L49.3013 38.952C49.0453 38.952 48.6399 38.9733 48.0853 39.016C47.5733 39.016 47.0186 39.0373 46.4213 39.08C45.8666 39.08 45.3546 39.08 44.8853 39.08C44.4159 39.08 44.0959 39.08 43.9253 39.08C43.1999 39.08 42.4746 39.0587 41.7493 39.016C41.0666 38.9733 40.3626 38.9093 39.6373 38.824C38.9973 38.7813 38.3999 38.76 37.8453 38.76C37.2906 38.7173 36.7573 38.7173 36.2453 38.76C35.7333 38.8027 35.1786 38.8453 34.5813 38.888C34.0266 38.888 33.4079 38.888 32.7253 38.888Z" fill="black"/>
<path d="M84.0496 89.76C84.0176 89.728 83.9696 89.664 83.9056 89.568C83.8416 89.44 83.7776 89.264 83.7136 89.04C83.6496 88.784 83.6176 88.464 83.6176 88.08C83.6176 87.664 83.6816 87.136 83.8096 86.496C83.9376 85.856 84.0816 85.216 84.2416 84.576C84.4336 83.904 84.6096 83.264 84.7696 82.656C85.0576 81.728 85.3936 80.848 85.7776 80.016C86.1936 79.152 86.5776 78.256 86.9296 77.328C87.1536 76.752 87.3936 76.176 87.6496 75.6C87.9056 75.024 88.1776 74.448 88.4656 73.872C88.6256 73.456 88.7536 73.024 88.8496 72.576C88.9776 72.096 89.1376 71.648 89.3296 71.232C89.6816 70.4 90.0016 69.52 90.2896 68.592C90.6096 67.632 90.7696 66.688 90.7696 65.76C90.7696 65.568 90.7376 65.392 90.6736 65.232C90.6416 65.04 90.5296 64.944 90.3376 64.944C90.0176 64.944 89.6656 64.944 89.2816 64.944C88.8976 64.912 88.5136 64.896 88.1296 64.896L86.9296 64.848C86.8336 64.848 86.6416 64.768 86.3536 64.608C86.0656 64.448 85.9216 64.288 85.9216 64.128L85.2496 63.936C85.1856 63.904 85.1376 63.856 85.1056 63.792C85.0416 63.728 85.0096 63.664 85.0096 63.6V63.504C84.6256 63.184 84.2896 62.768 84.0016 62.256C83.7456 61.744 83.6176 61.232 83.6176 60.72C83.6176 60.464 83.6816 60.192 83.8096 59.904C83.9696 59.584 84.1776 59.344 84.4336 59.184C84.6576 59.056 84.8336 58.928 84.9616 58.8C85.0896 58.672 85.2176 58.56 85.3456 58.464C85.4736 58.368 85.6336 58.288 85.8256 58.224C86.0176 58.16 86.2896 58.128 86.6416 58.128C86.8976 58.128 87.1856 58.176 87.5056 58.272C87.8576 58.368 88.1936 58.416 88.5136 58.416C88.8976 58.416 89.2816 58.4 89.6656 58.368C90.0816 58.304 90.4816 58.192 90.8656 58.032C91.0576 57.968 91.2976 57.92 91.5856 57.888C91.9056 57.824 92.2416 57.776 92.5936 57.744C92.9456 57.68 93.2816 57.648 93.6016 57.648C93.9536 57.616 94.2256 57.6 94.4176 57.6C95.1216 57.6 95.7936 57.68 96.4336 57.84C97.1056 57.968 97.8096 58.032 98.5456 58.032C98.7056 58.064 99.1536 58.128 99.8896 58.224C100.658 58.288 101.458 58.4 102.29 58.56C103.122 58.72 103.858 58.912 104.498 59.136C105.17 59.36 105.506 59.616 105.506 59.904C105.506 60.16 105.41 60.432 105.218 60.72C105.058 60.976 104.946 61.2 104.882 61.392C104.818 61.52 104.706 61.696 104.546 61.92C104.386 62.112 104.21 62.32 104.018 62.544C103.858 62.768 103.682 62.976 103.49 63.168C103.298 63.328 103.138 63.44 103.01 63.504C102.754 63.6 102.45 63.696 102.098 63.792C101.778 63.856 101.442 63.92 101.09 63.984C100.77 64.016 100.482 64.048 100.226 64.08C99.9696 64.112 99.8256 64.128 99.7936 64.128C99.7296 64.128 99.6016 64.144 99.4096 64.176C99.2496 64.176 99.0736 64.176 98.8816 64.176C98.6576 64.208 98.4176 64.224 98.1616 64.224C97.7776 64.224 97.5376 64.496 97.4416 65.04C97.3456 65.584 97.4256 66.096 97.6816 66.576C97.6816 66.992 97.7936 67.44 98.0176 67.92C98.2736 68.4 98.4816 68.832 98.6416 69.216C98.8656 69.76 99.0576 70.304 99.2176 70.848C99.4096 71.392 99.6816 71.904 100.034 72.384C100.226 72.64 100.386 72.928 100.514 73.248C100.642 73.568 100.786 73.856 100.946 74.112C101.49 74.944 101.922 75.84 102.242 76.8C102.594 77.76 102.978 78.688 103.394 79.584C103.554 80.032 103.762 80.496 104.018 80.976C104.274 81.424 104.45 81.984 104.546 82.656C104.61 82.944 104.706 83.28 104.834 83.664C104.962 84.016 105.09 84.336 105.218 84.624C105.25 84.688 105.33 84.816 105.458 85.008C105.618 85.2 105.698 85.328 105.698 85.392C105.698 85.712 105.65 86.064 105.554 86.448C105.458 86.832 105.282 87.152 105.026 87.408C104.898 87.568 104.738 87.76 104.546 87.984C104.354 88.208 104.13 88.416 103.874 88.608C103.65 88.8 103.41 88.976 103.154 89.136C102.93 89.264 102.706 89.328 102.482 89.328C102.13 89.328 101.81 89.264 101.522 89.136C101.234 89.008 100.962 88.768 100.706 88.416C100.354 87.968 100.114 87.472 99.9856 86.928C99.8896 86.384 99.7296 85.872 99.5056 85.392C99.3136 85.008 99.1696 84.608 99.0736 84.192C98.9776 83.776 98.8656 83.344 98.7376 82.896C98.6736 82.704 98.5296 82.336 98.3056 81.792C98.0816 81.216 97.8256 80.576 97.5376 79.872C97.2496 79.136 96.9296 78.368 96.5776 77.568C96.2256 76.768 95.9056 76.048 95.6176 75.408C95.3296 74.736 95.0736 74.192 94.8496 73.776C94.6256 73.328 94.4816 73.104 94.4176 73.104C94.3856 73.104 94.2896 73.264 94.1296 73.584C94.0016 73.904 93.8416 74.288 93.6496 74.736C93.4896 75.152 93.3296 75.568 93.1696 75.984C93.0416 76.368 92.9456 76.64 92.8816 76.8C92.6256 77.376 92.3696 77.936 92.1136 78.48C91.8896 79.024 91.6496 79.568 91.3936 80.112C90.9456 81.136 90.4816 82.192 90.0016 83.28C89.5536 84.336 89.1536 85.456 88.8016 86.64C88.7696 86.736 88.7216 86.928 88.6576 87.216C88.6256 87.504 88.5776 87.808 88.5136 88.128C88.4496 88.416 88.3536 88.688 88.2256 88.944C88.0976 89.2 87.9536 89.328 87.7936 89.328H87.7456C87.6816 89.328 87.5696 89.312 87.4096 89.28C87.2496 89.248 87.1376 89.232 87.0736 89.232C86.9456 89.232 86.7376 89.296 86.4496 89.424C86.1616 89.52 85.8576 89.616 85.5376 89.712C85.2176 89.808 84.9136 89.872 84.6256 89.904C84.3376 89.936 84.1456 89.888 84.0496 89.76ZM110.642 87.12C110.514 86.896 110.466 86.592 110.498 86.208C110.562 85.824 110.594 85.552 110.594 85.392C110.594 84.368 110.594 83.392 110.594 82.464C110.626 81.536 110.642 80.56 110.642 79.536C110.642 78.16 110.626 76.832 110.594 75.552C110.594 74.24 110.594 72.912 110.594 71.568V68.688C110.594 68.24 110.61 67.712 110.642 67.104C110.674 66.464 110.706 65.824 110.738 65.184C110.77 64.544 110.802 63.936 110.834 63.36C110.866 62.752 110.882 62.256 110.882 61.872C110.882 61.52 110.898 61.04 110.93 60.432C110.994 59.824 110.994 59.328 110.93 58.944C110.834 58.592 110.754 58.288 110.69 58.032C110.626 57.744 110.594 57.392 110.594 56.976C110.594 56.976 110.642 56.96 110.738 56.928C110.866 56.896 110.994 56.864 111.122 56.832C111.282 56.8 111.426 56.784 111.554 56.784C111.682 56.752 111.762 56.736 111.794 56.736C111.986 56.736 112.226 56.752 112.514 56.784C112.834 56.784 113.154 56.816 113.474 56.88C113.794 56.912 114.082 56.976 114.338 57.072C114.626 57.168 114.834 57.28 114.962 57.408C115.282 57.664 115.57 57.92 115.826 58.176C116.114 58.432 116.418 58.672 116.738 58.896C116.866 59.024 116.978 59.36 117.074 59.904C117.202 60.448 117.298 61.04 117.362 61.68C117.426 62.32 117.474 62.944 117.506 63.552C117.538 64.128 117.554 64.512 117.554 64.704C117.554 65.12 117.538 65.616 117.506 66.192C117.474 66.736 117.458 67.216 117.458 67.632C117.458 67.792 117.442 68.016 117.41 68.304C117.41 68.56 117.41 68.848 117.41 69.168C117.41 69.456 117.426 69.744 117.458 70.032C117.49 70.32 117.554 70.528 117.65 70.656H117.698C117.858 70.656 117.97 70.576 118.034 70.416C118.13 70.256 118.274 70.144 118.466 70.08C118.722 69.952 118.994 69.872 119.282 69.84C119.57 69.808 119.842 69.76 120.098 69.696C120.45 69.632 120.866 69.68 121.346 69.84C121.858 69.968 122.322 70.176 122.738 70.464C123.186 70.72 123.522 71.072 123.746 71.52C124.002 71.936 124.13 72.336 124.13 72.72C124.13 73.072 124.066 73.44 123.938 73.824C123.842 74.208 123.682 74.56 123.458 74.88C123.266 75.168 123.026 75.424 122.738 75.648C122.45 75.84 122.146 75.936 121.826 75.936C121.346 75.936 120.818 75.792 120.242 75.504C119.698 75.216 119.266 74.848 118.946 74.4C118.818 74.176 118.61 73.904 118.322 73.584C118.066 73.264 117.842 73.072 117.65 73.008C117.65 73.68 117.65 74.224 117.65 74.64C117.682 75.056 117.698 75.456 117.698 75.84C117.73 76.192 117.746 76.576 117.746 76.992C117.746 77.408 117.73 77.952 117.698 78.624C117.858 79.296 117.89 80.016 117.794 80.784C117.698 81.52 117.65 82.304 117.65 83.136C117.65 83.712 117.682 84.352 117.746 85.056C117.81 85.728 117.746 86.352 117.554 86.928C117.554 86.992 117.522 87.184 117.458 87.504C117.394 87.792 117.234 88.336 116.978 89.136C116.946 89.2 116.866 89.28 116.738 89.376C116.642 89.44 116.514 89.52 116.354 89.616C116.226 89.712 116.082 89.792 115.922 89.856C115.794 89.92 115.682 89.952 115.586 89.952C115.426 89.952 115.266 89.888 115.106 89.76C114.946 89.632 114.866 89.552 114.866 89.52C114.738 89.52 114.61 89.568 114.482 89.664C114.354 89.728 114.21 89.808 114.05 89.904C113.922 89.968 113.778 90.016 113.618 90.048C113.458 90.112 113.298 90.112 113.138 90.048C113.01 90.048 112.914 90.08 112.85 90.144C112.786 90.24 112.69 90.288 112.562 90.288C112.402 90.288 112.194 90.176 111.938 89.952C111.714 89.696 111.538 89.488 111.41 89.328C111.218 89.136 111.09 88.96 111.026 88.8C110.962 88.64 110.914 88.48 110.882 88.32C110.882 88.128 110.866 87.936 110.834 87.744C110.834 87.552 110.77 87.344 110.642 87.12Z" fill="black"/>
</svg>
