<svg width="153" height="123" viewBox="0 0 153 123" fill="none" xmlns="http://www.w3.org/2000/svg">
<path d="M53.0935 81.768C50.4055 81.6827 47.9735 81.5547 45.7975 81.384C43.6215 81.256 41.7228 81.0213 40.1015 80.68C38.4802 80.3387 37.0935 79.912 35.9415 79.4C34.8322 78.888 33.8935 78.312 33.1255 77.672C32.3575 77.032 31.7388 76.328 31.2695 75.56C30.8002 74.8347 30.4375 74.024 30.1815 73.128C30.0535 72.6587 29.9255 72.232 29.7975 71.848C29.6695 71.4213 29.6055 70.952 29.6055 70.44C29.6055 69.8853 29.7335 69.3093 29.9895 68.712C30.2882 68.1147 30.6295 67.56 31.0135 67.048C31.4402 66.536 31.8882 66.1307 32.3575 65.832C32.8268 65.4907 33.2535 65.2773 33.6375 65.192C33.9788 65.1067 34.3628 65.064 34.7895 65.064C35.2162 65.064 35.6002 65.064 35.9415 65.064C37.0935 65.064 38.3308 65.0427 39.6535 65C41.0188 64.9573 42.5548 64.936 44.2615 64.936C45.8828 64.936 47.4615 64.9147 48.9975 64.872C50.5762 64.8293 52.1122 64.7653 53.6055 64.68C54.9708 64.5947 56.2935 64.5093 57.5735 64.424C58.8535 64.3387 60.0482 64.1893 61.1575 63.976L61.2215 63.464C61.2215 63.336 61.2215 63.08 61.2215 62.696C61.2215 62.2693 61.2002 61.9707 61.1575 61.8C61.0722 61.4587 60.5815 61.224 59.6855 61.096C58.7895 60.9253 57.7868 60.84 56.6775 60.84C55.5682 60.7973 54.5228 60.7973 53.5415 60.84C52.5602 60.84 51.9628 60.84 51.7495 60.84C51.0668 60.84 50.1922 60.8827 49.1255 60.968C48.0588 61.0107 46.9495 61.0747 45.7975 61.16C44.6455 61.2027 43.5148 61.2667 42.4055 61.352C41.3388 61.3947 40.4642 61.416 39.7815 61.416C39.5255 61.416 39.2055 61.3733 38.8215 61.288C38.4802 61.16 38.1388 61.0107 37.7975 60.84C37.4562 60.6267 37.1575 60.392 36.9015 60.136C36.6882 59.8373 36.5815 59.5173 36.5815 59.176C36.5815 58.6213 36.6882 58.216 36.9015 57.96C37.1575 57.6613 37.5628 57.4053 38.1175 57.192C38.4588 57.064 38.8002 56.9573 39.1415 56.872C39.5255 56.744 39.8882 56.6373 40.2295 56.552C41.0828 56.3813 42.0215 56.232 43.0455 56.104C44.1122 55.9333 45.0722 55.848 45.9255 55.848H55.1415C55.8668 55.848 56.5068 55.8267 57.0615 55.784C57.6162 55.7413 58.1922 55.784 58.7895 55.912C59.3442 56.0827 59.8562 56.1467 60.3255 56.104C60.8375 56.0187 61.3922 55.976 61.9895 55.976C62.2028 55.976 62.5228 55.9973 62.9495 56.04C63.3762 56.04 63.6962 56.04 63.9095 56.04C64.5495 56.04 65.2535 56.1253 66.0215 56.296C66.8322 56.4667 67.4722 56.744 67.9415 57.128C68.1975 57.384 68.3895 57.9387 68.5175 58.792C68.6882 59.6027 68.7948 60.4987 68.8375 61.48C68.8802 62.4187 68.9015 63.336 68.9015 64.232C68.9015 65.128 68.9015 65.768 68.9015 66.152C68.9015 66.4933 68.8802 66.92 68.8375 67.432C68.7948 67.9013 68.7095 68.3067 68.5815 68.648C68.4962 68.904 68.2188 69.1387 67.7495 69.352C67.2802 69.5227 66.8748 69.6933 66.5335 69.864C65.9362 70.0773 65.2535 70.2267 64.4855 70.312C63.7602 70.3973 63.2268 70.44 62.8855 70.44C62.5442 70.44 62.1602 70.4613 61.7335 70.504C61.3495 70.504 60.9868 70.504 60.6455 70.504C60.0055 70.504 59.1948 70.5253 58.2135 70.568C57.2748 70.6107 56.4855 70.6533 55.8455 70.696C55.2908 70.7387 54.6082 70.76 53.7975 70.76C53.0295 70.76 52.3468 70.76 51.7495 70.76C51.4082 70.76 50.9815 70.7813 50.4695 70.824C49.9575 70.8667 49.4242 70.9093 48.8695 70.952C48.3575 70.952 47.8668 70.9733 47.3975 71.016C46.9282 71.016 46.5655 71.016 46.3095 71.016C45.0295 71.016 43.6428 70.9733 42.1495 70.888C40.6988 70.76 39.2908 70.696 37.9255 70.696C37.1148 70.696 36.6242 70.8027 36.4535 71.016C36.3255 71.2293 36.2828 71.4427 36.3255 71.656C36.4108 71.8693 36.5388 72.1253 36.7095 72.424C36.9228 72.68 37.1148 72.872 37.2855 73C38.0962 73.7253 39.1415 74.216 40.4215 74.472C41.7015 74.7707 42.9815 74.92 44.2615 74.92C44.3895 74.92 44.6242 74.92 44.9655 74.92C45.3495 74.9627 45.7548 74.984 46.1815 74.984C46.6508 74.984 47.0562 74.984 47.3975 74.984C47.7815 75.0267 48.0375 75.048 48.1655 75.048C48.2082 75.048 48.5495 75.048 49.1895 75.048C49.8722 75.048 50.6402 75.048 51.4935 75.048C52.3895 75.048 53.2642 75.0267 54.1175 74.984C55.0135 74.984 55.6962 74.9413 56.1655 74.856C56.5922 74.7707 57.0188 74.7067 57.4455 74.664C57.9148 74.664 58.3415 74.6427 58.7255 74.6H61.6695C62.6082 74.6 63.4188 74.6 64.1015 74.6C64.7842 74.6 65.4455 74.6 66.0855 74.6C66.7255 74.6427 67.3868 74.664 68.0695 74.664C68.7948 74.664 69.6055 74.664 70.5015 74.664C70.5868 74.664 70.7575 74.7067 71.0135 74.792C71.3122 74.8773 71.6108 74.9627 71.9095 75.048C72.2508 75.176 72.5282 75.304 72.7415 75.432C72.9975 75.56 73.1468 75.6667 73.1895 75.752C73.2748 76.008 73.3602 76.328 73.4455 76.712C73.5735 77.1387 73.6375 77.5867 73.6375 78.056C73.6375 78.2693 73.6162 78.4827 73.5735 78.696C73.5308 78.9093 73.5095 79.1653 73.5095 79.464C73.5095 79.6773 73.4028 79.8053 73.1895 79.848C72.9762 79.8907 72.7415 79.9333 72.4855 79.976C72.5708 80.0613 72.6562 80.1893 72.7415 80.36C72.8695 80.5307 72.8268 80.6587 72.6135 80.744C72.1442 80.9147 71.5895 81.0213 70.9495 81.064C70.3095 81.1493 69.7548 81.192 69.2855 81.192C68.4322 81.192 67.7282 81.1707 67.1735 81.128C66.6615 81.0853 65.9788 81.064 65.1255 81.064C64.5282 81.064 63.9308 81.0853 63.3335 81.128C62.7362 81.1707 62.1175 81.192 61.4775 81.192H59.1095C59.0242 81.192 58.8322 81.2133 58.5335 81.256C58.2348 81.2987 57.8935 81.3413 57.5095 81.384C57.1255 81.4267 56.7628 81.4693 56.4215 81.512C56.0802 81.5547 55.8455 81.576 55.7175 81.576C55.2908 81.576 54.8642 81.5973 54.4375 81.64C54.0535 81.7253 53.6055 81.768 53.0935 81.768ZM24.9975 45.032C24.7842 44.264 24.5708 43.56 24.3575 42.92C24.1442 42.2373 24.0375 41.4267 24.0375 40.488C24.0375 39.3787 24.2082 38.184 24.5495 36.904C24.9335 35.5813 25.4882 34.3227 26.2135 33.128C26.7682 32.2747 27.3868 31.5067 28.0695 30.824C28.7948 30.0987 29.6055 29.5227 30.5015 29.096C30.6722 29.0107 30.9495 28.8827 31.3335 28.712C31.7175 28.5413 32.1228 28.392 32.5495 28.264C32.9762 28.0933 33.3602 27.944 33.7015 27.816C34.0855 27.688 34.3842 27.624 34.5975 27.624C35.1095 27.624 35.6215 27.7947 36.1335 28.136C36.6882 28.4347 37.2002 28.6267 37.6695 28.712C38.8215 28.8827 39.9095 29.032 40.9335 29.16C41.9575 29.288 43.0242 29.8 44.1335 30.696C44.4748 30.9093 44.7095 31.1013 44.8375 31.272C45.0082 31.4 45.2215 31.5707 45.4775 31.784C45.9468 32.1253 46.3948 32.552 46.8215 33.064C47.2482 33.576 47.5682 34.0667 47.7815 34.536C47.9948 35.0053 48.2295 35.7093 48.4855 36.648C48.7415 37.5867 48.8695 38.5467 48.8695 39.528C48.8695 39.912 48.8482 40.4667 48.8055 41.192C48.7628 41.8747 48.6562 42.5787 48.4855 43.304C48.3575 43.9867 48.1442 44.6267 47.8455 45.224C47.5895 45.7787 47.2268 46.12 46.7575 46.248C46.1602 46.8453 45.6908 47.272 45.3495 47.528C45.0508 47.784 44.6028 48.168 44.0055 48.68C43.7922 48.8933 43.4935 49.2133 43.1095 49.64C42.7682 50.024 42.5548 50.2373 42.4695 50.28C41.2322 50.92 40.1655 51.432 39.2695 51.816C38.3735 52.1573 37.1788 52.328 35.6855 52.328C34.3202 52.328 32.9975 52.136 31.7175 51.752C30.4375 51.368 29.3495 50.7067 28.4535 49.768C27.7708 49.0853 27.1522 48.424 26.5975 47.784C26.0855 47.144 25.5522 46.2267 24.9975 45.032ZM60.0055 43.24C60.0055 42.8987 59.9842 42.408 59.9415 41.768C59.9415 41.0853 59.9202 40.36 59.8775 39.592C59.8775 38.7813 59.8775 37.992 59.8775 37.224C59.8775 36.456 59.8775 35.7733 59.8775 35.176C59.8775 34.4933 59.8348 33.896 59.7495 33.384C59.7068 32.8293 59.6215 32.296 59.4935 31.784C59.4082 31.2293 59.3228 30.6747 59.2375 30.12C59.1948 29.5227 59.1735 28.84 59.1735 28.072C59.1735 27.9013 59.1735 27.688 59.1735 27.432C59.1735 27.1333 59.1948 26.856 59.2375 26.6C59.3228 26.344 59.4082 26.1307 59.4935 25.96C59.5788 25.7893 59.7282 25.704 59.9415 25.704C60.3255 25.704 60.8162 25.704 61.4135 25.704C62.0535 25.704 62.6935 25.7467 63.3335 25.832C63.9735 25.8747 64.5708 25.9813 65.1255 26.152C65.6802 26.28 66.1068 26.472 66.4055 26.728C66.7042 27.0267 67.0668 27.4747 67.4935 28.072C67.9628 28.6267 68.2615 29.1813 68.3895 29.736C68.8162 31.3573 69.0935 32.9573 69.2215 34.536C69.3922 36.1147 69.5202 37.7147 69.6055 39.336C69.6908 40.0187 69.7762 40.8293 69.8615 41.768C69.9895 42.664 70.0535 43.4107 70.0535 44.008V46.568C70.0535 46.9093 70.0108 47.336 69.9255 47.848C69.8828 48.36 69.7762 48.872 69.6055 49.384C69.4775 49.896 69.3068 50.3867 69.0935 50.856C68.8802 51.2827 68.6242 51.6027 68.3255 51.816C68.1975 51.9867 67.9415 52.1573 67.5575 52.328C67.2162 52.456 66.8108 52.584 66.3415 52.712C65.9148 52.84 65.4882 52.9467 65.0615 53.032C64.6348 53.0747 64.2935 53.096 64.0375 53.096C63.6108 53.096 63.1628 52.9893 62.6935 52.776C62.2668 52.5627 61.9468 52.328 61.7335 52.072C61.6055 51.8587 61.4348 51.7093 61.2215 51.624C61.0082 51.5387 60.8375 51.4107 60.7095 51.24C60.5388 50.984 60.4108 50.664 60.3255 50.28C60.2402 49.8533 60.1975 49.5547 60.1975 49.384L60.1335 46.184L60.0055 43.24ZM31.7815 40.36C31.7815 40.9573 31.8668 41.6827 32.0375 42.536C32.2082 43.3893 32.5922 44.072 33.1895 44.584C33.5308 44.7973 33.9362 44.9893 34.4055 45.16C34.9175 45.288 35.3868 45.3947 35.8135 45.48C36.5388 45.48 37.2428 45.3307 37.9255 45.032C38.6082 44.7333 39.2055 44.3493 39.7175 43.88C40.2722 43.368 40.6988 42.8347 40.9975 42.28C41.3388 41.7253 41.5095 41.2133 41.5095 40.744C41.5095 39.6347 41.3815 38.696 41.1255 37.928C40.8695 37.1173 40.1655 36.3707 39.0135 35.688C38.8428 35.6027 38.5228 35.496 38.0535 35.368C37.5842 35.1973 37.2215 35.112 36.9655 35.112C35.0028 35.112 33.6375 35.5813 32.8695 36.52C32.1442 37.416 31.7815 38.696 31.7815 40.36Z" fill="black"/>
<path d="M118.184 95.76C117.672 95.28 117.256 94.976 116.936 94.848C116.744 94.912 116.376 94.976 115.832 95.04C115.32 95.104 114.936 95.168 114.68 95.232C113.752 95.424 113.064 95.28 112.616 94.8C112.2 94.32 112.088 93.616 112.28 92.688C112.44 91.952 112.52 91.312 112.52 90.768C112.552 90.256 112.616 89.664 112.712 88.992C112.808 88.48 112.872 87.84 112.904 87.072C112.936 86.272 112.984 85.584 113.048 85.008C112.568 84.944 112.104 84.896 111.656 84.864C111.24 84.8 110.84 84.768 110.456 84.768C109.656 84.768 108.936 84.752 108.296 84.72C107.656 84.656 107.032 84.608 106.424 84.576C105.816 84.544 105.192 84.528 104.552 84.528C103.912 84.528 103.192 84.576 102.392 84.672C102.008 84.736 101.528 84.752 100.952 84.72C100.376 84.688 99.8803 84.656 99.4643 84.624C98.5683 84.56 97.8003 84.528 97.1603 84.528C96.5523 84.528 95.9443 84.56 95.3363 84.624C94.7603 84.688 94.1523 84.784 93.5123 84.912C92.9043 85.04 92.1523 85.2 91.2563 85.392C91.0003 85.456 90.6963 85.504 90.3443 85.536C89.9923 85.568 89.6883 85.584 89.4323 85.584C89.0483 85.584 88.6643 85.536 88.2803 85.44C87.9283 85.312 87.6243 85.088 87.3683 84.768C87.0483 84.352 86.7603 83.776 86.5043 83.04C86.2483 82.304 86.1843 81.616 86.3123 80.976C86.3763 80.624 86.4723 80.4 86.6003 80.304C86.7603 80.208 86.9683 80.144 87.2243 80.112C88.0243 80.016 88.7123 79.952 89.2883 79.92C89.8643 79.888 90.4083 79.872 90.9203 79.872C91.4323 79.84 91.9603 79.808 92.5043 79.776C93.0803 79.744 93.7683 79.696 94.5683 79.632C94.9523 79.6 95.3683 79.6 95.8163 79.632C96.2963 79.664 96.7443 79.68 97.1603 79.68C98.3443 79.68 99.4963 79.696 100.616 79.728C101.736 79.728 102.904 79.728 104.12 79.728C105.624 79.728 107.224 79.728 108.92 79.728C110.616 79.728 112.184 79.856 113.624 80.112C114.136 80.176 114.616 80.272 115.064 80.4C115.544 80.528 116.008 80.592 116.456 80.592C116.904 80.592 117.24 80.736 117.464 81.024C117.72 81.28 117.912 81.6 118.04 81.984C118.168 82.368 118.264 82.768 118.328 83.184C118.392 83.568 118.488 83.904 118.616 84.192C118.936 84.96 119.112 85.888 119.144 86.976C119.176 88.032 119.16 88.992 119.096 89.856C119.064 90.432 119.048 91.088 119.048 91.824C119.08 92.592 119.048 93.264 118.952 93.84C118.92 94.096 118.824 94.368 118.664 94.656C118.504 94.976 118.344 95.344 118.184 95.76ZM84.5363 76.896C84.4403 76.832 84.3283 76.768 84.2003 76.704C84.1043 76.64 83.9763 76.544 83.8163 76.416L82.6643 75.552C82.4723 75.392 82.3283 75.216 82.2323 75.024C82.1683 74.832 82.0883 74.656 81.9923 74.496C81.8323 74.24 81.7683 74 81.8003 73.776C81.8323 73.52 81.8963 73.312 81.9923 73.152C82.1843 72.832 82.4083 72.528 82.6643 72.24C82.9523 71.92 83.2083 71.584 83.4323 71.232C83.7203 70.88 83.9923 70.512 84.2483 70.128C84.5043 69.712 84.7443 69.36 84.9683 69.072C85.0963 68.944 85.2723 68.704 85.4963 68.352C85.7203 68 85.9443 67.632 86.1683 67.248C86.4243 66.832 86.6643 66.448 86.8883 66.096C87.1443 65.712 87.3523 65.424 87.5123 65.232C87.7683 64.88 88.0083 64.464 88.2323 63.984C88.4883 63.472 88.7443 63.04 89.0003 62.688C89.1283 62.464 89.3683 62.096 89.7203 61.584C90.0723 61.04 90.4243 60.48 90.7763 59.904C91.1283 59.296 91.4483 58.752 91.7363 58.272C92.0243 57.76 92.1843 57.424 92.2163 57.264C92.3123 57.328 92.3923 57.264 92.4563 57.072C92.5523 56.848 92.6483 56.592 92.7443 56.304C92.8403 56.016 92.9363 55.76 93.0323 55.536C93.1283 55.28 93.2563 55.152 93.4163 55.152C93.6723 55.152 93.8803 55.2 94.0403 55.296C94.2323 55.36 94.4083 55.392 94.5683 55.392C94.8243 55.392 95.0643 55.392 95.2883 55.392C95.5123 55.36 95.7683 55.36 96.0563 55.392L96.1523 55.584C96.1523 55.712 96.2323 55.936 96.3923 56.256C96.5843 56.544 96.7603 56.736 96.9203 56.832C97.2723 57.312 97.5283 57.888 97.6883 58.56C97.8483 59.2 98.0723 59.792 98.3603 60.336C99.0963 61.424 99.8963 62.4 100.76 63.264C101.624 64.096 102.44 65.024 103.208 66.048C103.304 66.208 103.496 66.512 103.784 66.96C104.104 67.376 104.424 67.808 104.744 68.256C105.096 68.704 105.4 69.12 105.656 69.504C105.912 69.888 106.072 70.096 106.136 70.128C107.256 71.184 107.816 72.176 107.816 73.104C107.816 73.264 107.8 73.408 107.768 73.536C107.768 73.632 107.72 73.744 107.624 73.872C107.56 74 107.432 74.144 107.24 74.304C107.08 74.464 106.84 74.688 106.52 74.976C106.072 75.424 105.464 75.536 104.696 75.312C103.96 75.088 103.272 74.64 102.632 73.968C102.568 73.904 102.52 73.744 102.488 73.488C102.456 73.232 102.408 73.072 102.344 73.008C101.8 72.4 101.288 71.808 100.808 71.232C100.36 70.656 99.8643 70.08 99.3203 69.504C98.8083 68.96 98.3443 68.4 97.9283 67.824C97.5123 67.248 97.0003 66.688 96.3923 66.144C96.2003 65.952 95.9923 65.76 95.7683 65.568C95.5443 65.376 95.3523 65.12 95.1923 64.8C95.0963 64.8 94.9043 64.976 94.6163 65.328C94.3603 65.648 94.0243 66.064 93.6083 66.576C93.2243 67.056 92.8083 67.6 92.3603 68.208C91.9443 68.784 91.5443 69.344 91.1603 69.888C90.7763 70.4 90.4403 70.848 90.1523 71.232C89.8963 71.616 89.7363 71.856 89.6723 71.952C89.4483 72.272 89.2243 72.64 89.0003 73.056C88.7763 73.472 88.5203 73.888 88.2323 74.304C87.9763 74.72 87.7043 75.12 87.4163 75.504C87.1283 75.888 86.8083 76.192 86.4563 76.416C86.2003 76.608 85.8963 76.768 85.5443 76.896C85.1923 77.024 84.8563 77.024 84.5363 76.896ZM111.368 74.064C111.368 73.808 111.368 73.504 111.368 73.152C111.4 72.8 111.432 72.464 111.464 72.144C111.496 71.824 111.512 71.552 111.512 71.328C111.544 71.104 111.56 70.976 111.56 70.944C111.56 70.656 111.56 70.304 111.56 69.888C111.592 69.472 111.608 69.088 111.608 68.736L111.704 64.656C111.704 64.304 111.72 63.92 111.752 63.504C111.816 63.088 111.848 62.72 111.848 62.4C111.848 61.92 111.832 61.264 111.8 60.432C111.768 59.6 111.752 58.928 111.752 58.416C111.752 58.096 111.752 57.776 111.752 57.456C111.752 57.136 111.72 56.848 111.656 56.592C111.656 56.528 111.64 56.368 111.608 56.112C111.576 55.856 111.56 55.696 111.56 55.632V55.536C111.56 54.8 111.752 54.368 112.136 54.24C112.52 54.112 113 54.048 113.576 54.048C113.992 54.048 114.472 54.08 115.016 54.144C115.56 54.176 116.024 54.352 116.408 54.672C116.984 55.088 117.432 55.664 117.752 56.4C118.072 57.104 118.312 57.872 118.472 58.704C118.632 59.536 118.744 60.384 118.808 61.248C118.904 62.112 119 62.88 119.096 63.552C119.16 63.936 119.16 64.416 119.096 64.992C119.032 65.568 119 66.064 119 66.48C119 67.632 119 68.8 119 69.984C119.032 71.136 119.048 72.32 119.048 73.536C119.048 74.048 118.92 74.656 118.664 75.36C118.44 76.032 118.072 76.544 117.56 76.896C116.952 77.28 116.248 77.472 115.448 77.472C115.352 77.472 115.24 77.536 115.112 77.664L114.968 77.808C114.872 77.808 114.68 77.808 114.392 77.808C114.136 77.776 113.848 77.744 113.528 77.712C113.24 77.648 112.968 77.584 112.712 77.52C112.488 77.456 112.36 77.376 112.328 77.28C112.136 76.768 111.944 76.288 111.752 75.84C111.56 75.392 111.432 74.8 111.368 74.064Z" fill="black"/>
</svg>
