<svg width="153" height="123" viewBox="0 0 153 123" fill="none" xmlns="http://www.w3.org/2000/svg">
<path d="M76.781 56.488C76.4397 57.128 76.1623 57.832 75.949 58.6C75.7783 59.3253 75.565 59.9227 75.309 60.392C75.0957 60.8613 74.6477 61.224 73.965 61.48C73.325 61.736 72.7277 61.736 72.173 61.48C71.7463 61.2667 71.2343 61.0107 70.637 60.712C70.0397 60.3707 69.4423 60.008 68.845 59.624C68.2903 59.24 67.7783 58.8133 67.309 58.344C66.8397 57.8747 66.4983 57.3627 66.285 56.808C66.0717 56.296 65.6663 55.6773 65.069 54.952C65.069 57.384 65.0477 59.752 65.005 62.056C65.005 64.3173 64.9837 66.0667 64.941 67.304C64.8983 68.072 64.7703 68.6693 64.557 69.096C64.3863 69.5227 64.109 69.864 63.725 70.12C63.3837 70.376 62.9357 70.5893 62.381 70.76C61.869 70.9307 61.2717 71.144 60.589 71.4C60.2477 71.528 59.8423 71.6987 59.373 71.912C58.9463 72.1253 58.4983 72.1893 58.029 72.104C57.5597 72.0187 57.2397 71.8267 57.069 71.528C56.8983 71.1867 56.749 70.824 56.621 70.44C56.493 70.056 56.365 69.6933 56.237 69.352C56.109 68.968 55.853 68.648 55.469 68.392C55.2557 68.3067 55.1277 68.072 55.085 67.688C55.0423 67.304 54.9997 66.9413 54.957 66.6C54.9143 66.2587 54.8717 65.6187 54.829 64.68C54.7863 63.6987 54.765 62.6107 54.765 61.416C54.7223 60.8613 54.6157 60.3067 54.445 59.752C54.2743 59.1547 54.189 58.5573 54.189 57.96C54.189 57.32 54.189 56.6373 54.189 55.912C54.189 55.144 54.189 54.3973 54.189 53.672C54.2317 52.904 54.253 52.1787 54.253 51.496C54.2957 50.7707 54.3383 50.152 54.381 49.64V43.816C54.381 43.688 54.381 43.368 54.381 42.856C54.4237 42.3013 54.445 41.6613 54.445 40.936C54.4877 40.168 54.5303 39.3787 54.573 38.568C54.6157 37.7147 54.6583 36.9253 54.701 36.2C54.701 35.6027 54.765 35.0693 54.893 34.6C55.021 34.1307 55.1063 33.6827 55.149 33.256C55.149 32.7013 55.1703 32.1467 55.213 31.592C55.2557 30.9947 55.3197 30.3973 55.405 29.8C55.4477 29.3307 55.661 28.9467 56.045 28.648C56.4717 28.3493 56.941 28.1573 57.453 28.072C58.0077 27.944 58.5623 27.944 59.117 28.072C59.6717 28.1573 60.141 28.3493 60.525 28.648C61.2503 29.2027 61.8903 29.8213 62.445 30.504C63.0423 31.144 63.4477 31.912 63.661 32.808C64.0877 34.344 64.4077 35.9227 64.621 37.544C65.133 37.0747 65.8157 36.8187 66.669 36.776C67.565 36.7333 68.333 36.7547 68.973 36.84C70.4663 37.0533 71.917 37.4587 73.325 38.056C74.733 38.6533 75.7143 39.6347 76.269 41C76.2263 41.7253 76.0557 42.4293 75.757 43.112C75.4583 43.7947 75.1383 44.392 74.797 44.904C74.413 45.416 73.9223 45.7787 73.325 45.992C72.7703 46.2053 72.1943 46.2267 71.597 46.056C71.1703 45.928 70.6583 45.7147 70.061 45.416C69.4637 45.1173 68.8663 44.7547 68.269 44.328C67.7143 43.9013 67.2023 43.432 66.733 42.92C66.2637 42.408 65.9437 41.8747 65.773 41.32C65.6877 41.1493 65.5597 41 65.389 40.872C65.261 40.7013 65.133 40.5307 65.005 40.36C65.133 42.1093 65.197 43.88 65.197 45.672C65.1543 46.5253 65.133 47.656 65.133 49.064C65.133 50.4293 65.1117 51.9227 65.069 53.544C65.6237 52.904 66.3277 52.52 67.181 52.392C68.0343 52.264 68.8237 52.2427 69.549 52.328C71.0423 52.5413 72.4717 52.9467 73.837 53.544C75.245 54.1413 76.2263 55.1227 76.781 56.488ZM33.837 35.944C34.6903 36.584 35.629 37.2453 36.653 37.928C37.677 38.6107 38.5517 39.272 39.277 39.912C39.4903 40.1253 39.7037 40.4027 39.917 40.744C40.173 41.0427 40.365 41.3627 40.493 41.704C40.877 42.6853 41.3037 43.6667 41.773 44.648C42.2423 45.6293 42.6477 46.6533 42.989 47.72C43.3303 49.0427 43.3517 50.344 43.053 51.624C42.7543 52.904 42.4557 54.0987 42.157 55.208C41.901 56.2747 41.3463 57.128 40.493 57.768C39.6823 58.3653 38.5303 58.9413 37.037 59.496C35.5863 60.0507 34.157 60.328 32.749 60.328C31.1703 60.328 29.7197 59.8373 28.397 58.856C27.117 57.832 26.157 56.6587 25.517 55.336C24.4503 53.2453 24.0237 51.1973 24.237 49.192C24.493 47.144 25.1757 45.1387 26.285 43.176C26.797 42.2373 27.4797 41.2773 28.333 40.296C29.229 39.3147 30.0397 38.4613 30.765 37.736C31.149 37.3093 31.6183 36.9893 32.173 36.776C32.7703 36.52 33.325 36.2427 33.837 35.944ZM36.525 49.256C36.6103 48.4027 36.525 47.592 36.269 46.824C36.013 46.056 35.5863 45.3733 34.989 44.776C34.5197 44.1787 34.0717 43.8587 33.645 43.816C33.2183 43.7733 32.7277 44.0507 32.173 44.648C31.021 45.7573 30.317 46.9733 30.061 48.296C29.805 49.6187 29.8903 50.9413 30.317 52.264C30.5303 52.6907 30.7863 53.096 31.085 53.48C31.3837 53.864 31.7037 54.2053 32.045 54.504C32.7277 55.016 33.4317 55.1653 34.157 54.952C34.925 54.696 35.4157 54.1413 35.629 53.288C35.8423 52.648 36.0343 52.008 36.205 51.368C36.3757 50.6853 36.4823 49.9813 36.525 49.256Z" fill="black"/>
<path d="M118.184 95.76C117.672 95.28 117.256 94.976 116.936 94.848C116.744 94.912 116.376 94.976 115.832 95.04C115.32 95.104 114.936 95.168 114.68 95.232C113.752 95.424 113.064 95.28 112.616 94.8C112.2 94.32 112.088 93.616 112.28 92.688C112.44 91.952 112.52 91.312 112.52 90.768C112.552 90.256 112.616 89.664 112.712 88.992C112.808 88.48 112.872 87.84 112.904 87.072C112.936 86.272 112.984 85.584 113.048 85.008C112.568 84.944 112.104 84.896 111.656 84.864C111.24 84.8 110.84 84.768 110.456 84.768C109.656 84.768 108.936 84.752 108.296 84.72C107.656 84.656 107.032 84.608 106.424 84.576C105.816 84.544 105.192 84.528 104.552 84.528C103.912 84.528 103.192 84.576 102.392 84.672C102.008 84.736 101.528 84.752 100.952 84.72C100.376 84.688 99.8803 84.656 99.4643 84.624C98.5683 84.56 97.8003 84.528 97.1603 84.528C96.5523 84.528 95.9443 84.56 95.3363 84.624C94.7603 84.688 94.1523 84.784 93.5123 84.912C92.9043 85.04 92.1523 85.2 91.2563 85.392C91.0003 85.456 90.6963 85.504 90.3443 85.536C89.9923 85.568 89.6883 85.584 89.4323 85.584C89.0483 85.584 88.6643 85.536 88.2803 85.44C87.9283 85.312 87.6243 85.088 87.3683 84.768C87.0483 84.352 86.7603 83.776 86.5043 83.04C86.2483 82.304 86.1843 81.616 86.3123 80.976C86.3763 80.624 86.4723 80.4 86.6003 80.304C86.7603 80.208 86.9683 80.144 87.2243 80.112C88.0243 80.016 88.7123 79.952 89.2883 79.92C89.8643 79.888 90.4083 79.872 90.9203 79.872C91.4323 79.84 91.9603 79.808 92.5043 79.776C93.0803 79.744 93.7683 79.696 94.5683 79.632C94.9523 79.6 95.3683 79.6 95.8163 79.632C96.2963 79.664 96.7443 79.68 97.1603 79.68C98.3443 79.68 99.4963 79.696 100.616 79.728C101.736 79.728 102.904 79.728 104.12 79.728C105.624 79.728 107.224 79.728 108.92 79.728C110.616 79.728 112.184 79.856 113.624 80.112C114.136 80.176 114.616 80.272 115.064 80.4C115.544 80.528 116.008 80.592 116.456 80.592C116.904 80.592 117.24 80.736 117.464 81.024C117.72 81.28 117.912 81.6 118.04 81.984C118.168 82.368 118.264 82.768 118.328 83.184C118.392 83.568 118.488 83.904 118.616 84.192C118.936 84.96 119.112 85.888 119.144 86.976C119.176 88.032 119.16 88.992 119.096 89.856C119.064 90.432 119.048 91.088 119.048 91.824C119.08 92.592 119.048 93.264 118.952 93.84C118.92 94.096 118.824 94.368 118.664 94.656C118.504 94.976 118.344 95.344 118.184 95.76ZM84.5363 76.896C84.4403 76.832 84.3283 76.768 84.2003 76.704C84.1043 76.64 83.9763 76.544 83.8163 76.416L82.6643 75.552C82.4723 75.392 82.3283 75.216 82.2323 75.024C82.1683 74.832 82.0883 74.656 81.9923 74.496C81.8323 74.24 81.7683 74 81.8003 73.776C81.8323 73.52 81.8963 73.312 81.9923 73.152C82.1843 72.832 82.4083 72.528 82.6643 72.24C82.9523 71.92 83.2083 71.584 83.4323 71.232C83.7203 70.88 83.9923 70.512 84.2483 70.128C84.5043 69.712 84.7443 69.36 84.9683 69.072C85.0963 68.944 85.2723 68.704 85.4963 68.352C85.7203 68 85.9443 67.632 86.1683 67.248C86.4243 66.832 86.6643 66.448 86.8883 66.096C87.1443 65.712 87.3523 65.424 87.5123 65.232C87.7683 64.88 88.0083 64.464 88.2323 63.984C88.4883 63.472 88.7443 63.04 89.0003 62.688C89.1283 62.464 89.3683 62.096 89.7203 61.584C90.0723 61.04 90.4243 60.48 90.7763 59.904C91.1283 59.296 91.4483 58.752 91.7363 58.272C92.0243 57.76 92.1843 57.424 92.2163 57.264C92.3123 57.328 92.3923 57.264 92.4563 57.072C92.5523 56.848 92.6483 56.592 92.7443 56.304C92.8403 56.016 92.9363 55.76 93.0323 55.536C93.1283 55.28 93.2563 55.152 93.4163 55.152C93.6723 55.152 93.8803 55.2 94.0403 55.296C94.2323 55.36 94.4083 55.392 94.5683 55.392C94.8243 55.392 95.0643 55.392 95.2883 55.392C95.5123 55.36 95.7683 55.36 96.0563 55.392L96.1523 55.584C96.1523 55.712 96.2323 55.936 96.3923 56.256C96.5843 56.544 96.7603 56.736 96.9203 56.832C97.2723 57.312 97.5283 57.888 97.6883 58.56C97.8483 59.2 98.0723 59.792 98.3603 60.336C99.0963 61.424 99.8963 62.4 100.76 63.264C101.624 64.096 102.44 65.024 103.208 66.048C103.304 66.208 103.496 66.512 103.784 66.96C104.104 67.376 104.424 67.808 104.744 68.256C105.096 68.704 105.4 69.12 105.656 69.504C105.912 69.888 106.072 70.096 106.136 70.128C107.256 71.184 107.816 72.176 107.816 73.104C107.816 73.264 107.8 73.408 107.768 73.536C107.768 73.632 107.72 73.744 107.624 73.872C107.56 74 107.432 74.144 107.24 74.304C107.08 74.464 106.84 74.688 106.52 74.976C106.072 75.424 105.464 75.536 104.696 75.312C103.96 75.088 103.272 74.64 102.632 73.968C102.568 73.904 102.52 73.744 102.488 73.488C102.456 73.232 102.408 73.072 102.344 73.008C101.8 72.4 101.288 71.808 100.808 71.232C100.36 70.656 99.8643 70.08 99.3203 69.504C98.8083 68.96 98.3443 68.4 97.9283 67.824C97.5123 67.248 97.0003 66.688 96.3923 66.144C96.2003 65.952 95.9923 65.76 95.7683 65.568C95.5443 65.376 95.3523 65.12 95.1923 64.8C95.0963 64.8 94.9043 64.976 94.6163 65.328C94.3603 65.648 94.0243 66.064 93.6083 66.576C93.2243 67.056 92.8083 67.6 92.3603 68.208C91.9443 68.784 91.5443 69.344 91.1603 69.888C90.7763 70.4 90.4403 70.848 90.1523 71.232C89.8963 71.616 89.7363 71.856 89.6723 71.952C89.4483 72.272 89.2243 72.64 89.0003 73.056C88.7763 73.472 88.5203 73.888 88.2323 74.304C87.9763 74.72 87.7043 75.12 87.4163 75.504C87.1283 75.888 86.8083 76.192 86.4563 76.416C86.2003 76.608 85.8963 76.768 85.5443 76.896C85.1923 77.024 84.8563 77.024 84.5363 76.896ZM111.368 74.064C111.368 73.808 111.368 73.504 111.368 73.152C111.4 72.8 111.432 72.464 111.464 72.144C111.496 71.824 111.512 71.552 111.512 71.328C111.544 71.104 111.56 70.976 111.56 70.944C111.56 70.656 111.56 70.304 111.56 69.888C111.592 69.472 111.608 69.088 111.608 68.736L111.704 64.656C111.704 64.304 111.72 63.92 111.752 63.504C111.816 63.088 111.848 62.72 111.848 62.4C111.848 61.92 111.832 61.264 111.8 60.432C111.768 59.6 111.752 58.928 111.752 58.416C111.752 58.096 111.752 57.776 111.752 57.456C111.752 57.136 111.72 56.848 111.656 56.592C111.656 56.528 111.64 56.368 111.608 56.112C111.576 55.856 111.56 55.696 111.56 55.632V55.536C111.56 54.8 111.752 54.368 112.136 54.24C112.52 54.112 113 54.048 113.576 54.048C113.992 54.048 114.472 54.08 115.016 54.144C115.56 54.176 116.024 54.352 116.408 54.672C116.984 55.088 117.432 55.664 117.752 56.4C118.072 57.104 118.312 57.872 118.472 58.704C118.632 59.536 118.744 60.384 118.808 61.248C118.904 62.112 119 62.88 119.096 63.552C119.16 63.936 119.16 64.416 119.096 64.992C119.032 65.568 119 66.064 119 66.48C119 67.632 119 68.8 119 69.984C119.032 71.136 119.048 72.32 119.048 73.536C119.048 74.048 118.92 74.656 118.664 75.36C118.44 76.032 118.072 76.544 117.56 76.896C116.952 77.28 116.248 77.472 115.448 77.472C115.352 77.472 115.24 77.536 115.112 77.664L114.968 77.808C114.872 77.808 114.68 77.808 114.392 77.808C114.136 77.776 113.848 77.744 113.528 77.712C113.24 77.648 112.968 77.584 112.712 77.52C112.488 77.456 112.36 77.376 112.328 77.28C112.136 76.768 111.944 76.288 111.752 75.84C111.56 75.392 111.432 74.8 111.368 74.064Z" fill="black"/>
</svg>
