<svg width="1753" height="260" viewBox="0 0 1753 260" fill="none" xmlns="http://www.w3.org/2000/svg">
<path d="M11.8281 226.658C13.4498 234.292 16.2135 236.718 23.6565 238.487C16.2681 239.707 13.4302 241.992 11.8281 250.315C11.0629 241.719 8.34819 239.247 -0.000287678 238.487C8.23998 236.785 10.6828 234.13 11.8281 226.658Z" fill="#FEEE93"/>
<path d="M1619.36 78.8204C1622.94 87.5225 1628.61 95.2075 1635.87 101.195C1643.13 107.182 1651.75 111.287 1660.97 113.145C1670.2 115.004 1679.74 114.558 1688.75 111.849C1697.76 109.14 1705.96 104.25 1712.63 97.6134C1719.3 90.9763 1724.23 82.7968 1726.99 73.7993C1729.74 64.8018 1730.23 55.264 1728.42 46.0308C1726.61 36.7977 1722.55 28.1541 1716.59 20.8658C1710.64 13.5775 1702.99 7.86936 1694.3 4.24707C1720.68 67.9345 1685.4 104.98 1619.36 78.8204Z" fill="url(#paint0_radial)"/>
<path d="M932.828 134C934.701 142.814 937.892 145.615 946.486 147.657C937.955 149.067 934.678 151.705 932.828 161.315C931.945 151.39 928.81 148.535 919.171 147.657C928.685 145.692 931.506 142.627 932.828 134Z" fill="#FEEE93"/>
<path d="M1587.11 241C1588.35 246.876 1590.48 248.743 1596.21 250.105C1590.52 251.045 1588.34 252.803 1587.11 259.21C1586.52 252.593 1584.43 250.69 1578 250.105C1584.34 248.795 1586.22 246.752 1587.11 241Z" fill="#FEEE93"/>
<path d="M1430.28 25.9999C1431.52 31.8762 1433.65 33.7434 1439.38 35.105C1433.69 36.0445 1431.51 37.8034 1430.28 44.21C1429.69 37.5932 1427.6 35.6901 1421.17 35.105C1427.51 33.7948 1429.39 31.7516 1430.28 25.9999Z" fill="#FEEE93"/>
<path d="M201.275 -5.86366e-05C202.524 5.87623 204.651 7.74339 210.38 9.10495C204.693 10.0445 202.509 11.8034 201.275 18.21C200.686 11.5932 198.597 9.69013 192.17 9.10495C198.513 7.79483 200.394 5.75157 201.275 -5.86366e-05Z" fill="#FEEE93"/>
<defs>
<radialGradient id="paint0_radial" cx="0" cy="0" r="1" gradientUnits="userSpaceOnUse" gradientTransform="translate(1669.65 53.8519) rotate(140.641) scale(57.2174)">
<stop stop-color="#FFF8DE"/>
<stop offset="1" stop-color="#FEEE93"/>
</radialGradient>
</defs>
</svg>
