<svg width="445" height="348" viewBox="0 0 445 348" fill="none" xmlns="http://www.w3.org/2000/svg">
<rect x="4.44336" y="215.46" width="49.0769" height="89" transform="rotate(-5.30606 4.44336 215.46)" fill="#F7E600"/>
<path d="M0 215.873L28.4315 213.232L29.9061 229.11C31.3645 244.812 19.8175 258.724 4.11518 260.182V260.182L0 215.873Z" fill="white"/>
<path d="M8.23047 304.491L36.662 301.851L35.1873 285.973C33.729 270.271 19.8176 258.724 4.11529 260.182V260.182L8.23047 304.491Z" fill="white"/>
<path d="M65.9824 299.127L37.5509 301.768L36.0763 285.89C34.618 270.188 46.165 256.276 61.8672 254.818V254.818L65.9824 299.127Z" fill="white"/>
<path d="M57.752 210.509L29.3205 213.149L30.7951 229.027C32.2534 244.729 46.1649 256.276 61.8671 254.818V254.818L57.752 210.509Z" fill="white"/>
<rect x="372.088" y="11.0518" width="32.1538" height="58" transform="rotate(7.96662 372.088 11.0518)" fill="#F7E600"/>
<path d="M369.193 10.6465L387.721 13.2393L386.294 23.4323C384.862 33.6645 375.406 40.7986 365.174 39.3666V39.3666L369.193 10.6465Z" fill="white"/>
<path d="M361.154 68.0869L379.681 70.6797L381.108 60.4868C382.54 50.2545 375.406 40.7988 365.174 39.3668V39.3668L361.154 68.0869Z" fill="white"/>
<path d="M398.787 73.3535L380.26 70.7607L381.686 60.5677C383.118 50.3355 392.574 43.2014 402.806 44.6334V44.6334L398.787 73.3535Z" fill="white"/>
<path d="M406.826 15.9131L388.299 13.3203L386.873 23.5132C385.441 33.7455 392.575 43.2012 402.807 44.6332V44.6332L406.826 15.9131Z" fill="white"/>
<rect x="420.99" y="153" width="22" height="39" fill="#F7E600"/>
<path d="M418.99 153H431.79V159.7C431.79 166.769 426.059 172.5 418.99 172.5V172.5V153Z" fill="white"/>
<path d="M418.99 192H431.79V185.3C431.79 178.231 426.059 172.5 418.99 172.5V172.5V192Z" fill="white"/>
<path d="M444.99 192H432.19V185.3C432.19 178.231 437.921 172.5 444.99 172.5V172.5V192Z" fill="white"/>
<path d="M444.99 153H432.19V159.7C432.19 166.769 437.921 172.5 444.99 172.5V172.5V153Z" fill="white"/>
<rect x="25.0527" y="78.1836" width="29.6154" height="53" transform="rotate(-10.6218 25.0527 78.1836)" fill="#F7E600"/>
<path d="M22.4062 78.6797L39.3418 75.5036L41.0503 84.614C42.8044 93.9672 36.6441 102.972 27.2909 104.726V104.726L22.4062 78.6797Z" fill="white"/>
<path d="M32.1758 130.771L49.1113 127.595L47.4027 118.485C45.6487 109.132 36.6444 102.971 27.2911 104.726V104.726L32.1758 130.771Z" fill="white"/>
<path d="M66.5762 124.32L49.6406 127.496L47.9321 118.386C46.178 109.033 52.3383 100.028 61.6915 98.2744V98.2744L66.5762 124.32Z" fill="white"/>
<path d="M56.8066 72.2285L39.8711 75.4046L41.5797 84.515C43.3338 93.8682 52.338 100.029 61.6913 98.2744V98.2744L56.8066 72.2285Z" fill="white"/>
<circle cx="217.99" cy="132" r="105" fill="#F3EAC7"/>
<circle cx="298.99" cy="75" r="46" fill="#5E5E5E"/>
<circle cx="250.99" cy="47" r="46" fill="#5E5E5E"/>
<circle cx="177.99" cy="46" r="46" fill="#5E5E5E"/>
<circle cx="136.99" cy="94" r="46" fill="#5E5E5E"/>
<circle cx="136.99" cy="165" r="46" fill="#5E5E5E"/>
<line x1="168.637" y1="216.646" x2="206.637" y2="178.646" stroke="black"/>
<line x1="229.637" y1="155.646" x2="267.637" y2="117.646" stroke="black"/>
<line x1="170.637" y1="218.646" x2="208.637" y2="180.646" stroke="black"/>
<line x1="231.637" y1="157.646" x2="269.637" y2="119.646" stroke="black"/>
<line x1="172.637" y1="220.646" x2="210.637" y2="182.646" stroke="black"/>
<line x1="233.637" y1="159.646" x2="271.637" y2="121.646" stroke="black"/>
<line x1="174.637" y1="222.646" x2="212.637" y2="184.646" stroke="black"/>
<line x1="235.637" y1="161.646" x2="273.637" y2="123.646" stroke="black"/>
<line x1="176.637" y1="224.646" x2="214.637" y2="186.646" stroke="black"/>
<line x1="237.637" y1="163.646" x2="275.637" y2="125.646" stroke="black"/>
<line x1="178.637" y1="226.646" x2="216.637" y2="188.646" stroke="black"/>
<line x1="239.637" y1="165.646" x2="277.637" y2="127.646" stroke="black"/>
<line x1="166.637" y1="214.646" x2="204.637" y2="176.646" stroke="black"/>
<line x1="227.637" y1="153.646" x2="265.637" y2="115.646" stroke="black"/>
<line x1="164.637" y1="212.646" x2="202.637" y2="174.646" stroke="black"/>
<line x1="225.637" y1="151.646" x2="263.637" y2="113.646" stroke="black"/>
<line x1="162.637" y1="210.646" x2="200.637" y2="172.646" stroke="black"/>
<line x1="223.637" y1="149.646" x2="261.637" y2="111.646" stroke="black"/>
<circle cx="178.99" cy="204" r="4" fill="white"/>
<circle cx="189.99" cy="193" r="6" fill="white"/>
<circle cx="191.99" cy="202" r="2" fill="white"/>
<circle cx="255.49" cy="131.5" r="3.5" fill="white"/>
<circle cx="240.99" cy="140" r="5" fill="white"/>
<circle cx="255.49" cy="143.5" r="3.5" fill="white"/>
<path d="M223.701 208.352L258.342 173.711C267.558 183.304 267.442 198.552 257.992 208.002C248.542 217.452 233.294 217.568 223.701 208.352Z" fill="#E67E22" stroke="black"/>
<line x1="217.49" y1="202" x2="217.49" y2="216" stroke="black"/>
<line x1="267.99" y1="167.5" x2="253.99" y2="167.5" stroke="black"/>
<path d="M204.86 220.657C207.984 223.781 205.768 231.063 199.911 236.92C194.053 242.778 186.771 244.994 183.647 241.87C180.523 238.746 182.739 231.465 188.597 225.607C194.455 219.749 201.736 217.533 204.86 220.657Z" fill="#E67E22"/>
<ellipse cx="292.254" cy="138.264" rx="15" ry="8" transform="rotate(-45 292.254 138.264)" fill="#E67E22"/>
<path d="M152.18 238.812L154.089 238.142C159.039 236.404 164.574 238.967 166.451 243.866L180.033 279.318L162.084 285.62L147.787 248.3C146.305 244.432 148.272 240.184 152.18 238.812Z" fill="#F3EAC7" stroke="black"/>
<path d="M160.953 253.692C161.12 252.951 161.834 251.547 162.707 252.884C163.081 253.457 163.716 254.329 163.944 254.985C164.242 255.848 163.549 256.499 163.244 256.962C162.678 257.821 162.403 257.689 161.376 257.188C158.719 255.892 156.671 252.647 157.839 249.402C159.145 245.772 162.2 247.813 164.24 251.237C164.943 252.416 166.338 254.422 166.238 255.788C166.182 256.55 166.052 258.41 165.618 258.811C165.113 259.276 165.09 260.362 164.677 260.645C163.455 261.484 162.931 262.043 161.33 261.357C159.957 260.769 158.6 259.923 157.412 258.897C156.412 258.033 155.466 256.204 154.74 254.986C153.747 253.319 153.347 252.182 153.004 250.432C152.309 246.885 153.839 242.032 156.871 241.526C159.908 241.02 162.458 243.089 164.494 246.506" stroke="#E67E22" stroke-linecap="round"/>
<path d="M177.132 331.953C163.012 339.942 143.887 333.103 134.466 316.455C125.046 299.807 129.031 279.89 143.15 271.901C157.269 263.911 176.395 270.75 185.815 287.398C195.236 304.047 191.251 323.963 177.132 331.953Z" fill="#F3EAC7" stroke="black"/>
<line x1="154.829" y1="288.283" x2="179.919" y2="279.83" stroke="black"/>
<line x1="160.592" y1="304.555" x2="189.656" y2="295.002" stroke="black"/>
<line x1="164.987" y1="320.451" x2="190.078" y2="311.999" stroke="black"/>
</svg>
